  0
SECTION
  2
HEADER
  9
$ACADVER
  1
AC1009
  9
$FILLMODE
 70
0
  9
$EXTMIN
 10
-12.1920
 20
-10.9220
 30
0.0000
  9
$EXTMAX
 10
12.1920
 20
10.9220
 30
0.0000
  0
ENDSEC
  0
SECTION
  2
TABLES
  0
TABLE
  2
LTYPE
 70
1
  0
LTYPE
  2
CONTINUOUS
 70
64
  3
Solid line
 72
65
 73
0
 40
0
  0
ENDTAB
  0
TABLE
  2
LAYER
 70
255
  0
LAYER
  2
1
 70
64
 62
22
  6
CONTINUOUS
  0
LAYER
  2
16
 70
64
 62
175
  6
CONTINUOUS
  0
LAYER
  2
17
 70
64
 62
82
  6
CONTINUOUS
  0
LAYER
  2
18
 70
64
 62
82
  6
CONTINUOUS
  0
LAYER
  2
19
 70
64
 62
53
  6
CONTINUOUS
  0
LAYER
  2
20
 70
64
 62
7
  6
CONTINUOUS
  0
LAYER
  2
21
 70
64
 62
253
  6
CONTINUOUS
  0
LAYER
  2
22
 70
64
 62
253
  6
CONTINUOUS
  0
LAYER
  2
23
 70
64
 62
7
  6
CONTINUOUS
  0
LAYER
  2
24
 70
64
 62
7
  6
CONTINUOUS
  0
LAYER
  2
25
 70
64
 62
253
  6
CONTINUOUS
  0
LAYER
  2
26
 70
64
 62
253
  6
CONTINUOUS
  0
LAYER
  2
27
 70
64
 62
253
  6
CONTINUOUS
  0
LAYER
  2
28
 70
64
 62
253
  6
CONTINUOUS
  0
LAYER
  2
39
 70
64
 62
22
  6
CONTINUOUS
  0
LAYER
  2
40
 70
64
 62
175
  6
CONTINUOUS
  0
LAYER
  2
41
 70
64
 62
22
  6
CONTINUOUS
  0
LAYER
  2
42
 70
64
 62
175
  6
CONTINUOUS
  0
LAYER
  2
43
 70
64
 62
82
  6
CONTINUOUS
  0
LAYER
  2
48
 70
64
 62
253
  6
CONTINUOUS
  0
LAYER
  2
49
 70
64
 62
253
  6
CONTINUOUS
  0
LAYER
  2
51
 70
64
 62
253
  6
CONTINUOUS
  0
LAYER
  2
52
 70
64
 62
253
  6
CONTINUOUS
  0
ENDTAB
  0
ENDSEC
  0
SECTION
  2
BLOCKS
  0
BLOCK
  8
0
  2
RECT
 70
64
 10
0.0000
 20
0.0000
 30
0.0000
  3
RECT
  0
SOLID
  8
0
 10
-0.5000
 20
-0.5000
 30
0.0000
 11
0.5000
 21
-0.5000
 31
0.0000
 12
-0.5000
 22
0.5000
 32
0.0000
 13
0.5000
 23
0.5000
 33
0.0000
  0
ENDBLK
  8
0
  0
BLOCK
  8
0
  2
PIE
 70
64
 10
0.0000
 20
0.0000
 30
0.0000
  3
PIE
  0
CIRCLE
  8
0
 10
0.0000
 20
0.0000
 30
0.0000
 40
0.5000
  0
ENDBLK
  8
0
  0
BLOCK
  8
0
  2
OCTAGONP
 70
64
 10
0.0000
 20
0.0000
 30
0.0000
  3
OCTAGONP
  0
POLYLINE
  8
0
 66
1
 10
0.0000
 20
0.0000
 30
0.0000
 40
0.0000
 41
0.0000
 70
1
  0
VERTEX
  8
0
 10
-0.5000
 20
-0.2071
 30
0.0000
  0
VERTEX
  8
0
 10
-0.5000
 20
0.2071
 30
0.0000
  0
VERTEX
  8
0
 10
-0.2071
 20
0.5000
 30
0.0000
  0
VERTEX
  8
0
 10
0.2071
 20
0.5000
 30
0.0000
  0
VERTEX
  8
0
 10
0.5000
 20
0.2071
 30
0.0000
  0
VERTEX
  8
0
 10
0.5000
 20
-0.2071
 30
0.0000
  0
VERTEX
  8
0
 10
0.2071
 20
-0.5000
 30
0.0000
  0
VERTEX
  8
0
 10
-0.2071
 20
-0.5000
 30
0.0000
  0
SEQEND
  8
0
  0
ENDBLK
  8
0
  0
BLOCK
  8
0
  2
SQUAREP
 70
64
 10
0.0000
 20
0.0000
 30
0.0000
  3
SQUAREP
  0
SOLID
  8
0
 10
-0.5000
 20
-0.5000
 30
0.0000
 11
0.5000
 21
-0.5000
 31
0.0000
 12
-0.5000
 22
0.5000
 32
0.0000
 13
0.5000
 23
0.5000
 33
0.0000
  0
ENDBLK
  8
0
  0
BLOCK
  8
0
  2
ROUNDP
 70
64
 10
0.0000
 20
0.0000
 30
0.0000
  3
ROUNDP
  0
CIRCLE
  8
0
 10
0.0000
 20
0.0000
 30
0.0000
 40
0.5000
  0
ENDBLK
  8
0
  0
BLOCK
  8
0
  2
ANNULUSP
 70
64
 10
0.0000
 20
0.0000
 30
0.0000
  3
ANNULUSP
  0
CIRCLE
  8
0
 10
0.0000
 20
0.0000
 30
0.0000
 40
0.5000
  0
ENDBLK
  8
0
  0
BLOCK
  8
0
  2
THERMALP
 70
64
 10
0.0000
 20
0.0000
 30
0.0000
  3
THERMALP
  0
LINE
  8
0
 10
-0.2379
 20
0.4500
 30
0.0000
 11
0.2379
 21
0.4500
 31
0.0000
  0
LINE
  8
0
 10
0.4500
 20
0.2379
 30
0.0000
 11
0.4500
 21
-0.2379
 31
0.0000
  0
LINE
  8
0
 10
0.2379
 20
-0.4500
 30
0.0000
 11
-0.2379
 21
-0.4500
 31
0.0000
  0
LINE
  8
0
 10
-0.4500
 20
-0.2379
 30
0.0000
 11
-0.4500
 21
0.2379
 31
0.0000
  0
ENDBLK
  8
0
  0
BLOCK
  8
0
  2
OCTAGONV
 70
64
 10
0.0000
 20
0.0000
 30
0.0000
  3
OCTAGONV
  0
POLYLINE
  8
0
 66
1
 10
0.0000
 20
0.0000
 30
0.0000
 40
0.0000
 41
0.0000
 70
1
  0
VERTEX
  8
0
 10
-0.5000
 20
-0.2071
 30
0.0000
  0
VERTEX
  8
0
 10
-0.5000
 20
0.2071
 30
0.0000
  0
VERTEX
  8
0
 10
-0.2071
 20
0.5000
 30
0.0000
  0
VERTEX
  8
0
 10
0.2071
 20
0.5000
 30
0.0000
  0
VERTEX
  8
0
 10
0.5000
 20
0.2071
 30
0.0000
  0
VERTEX
  8
0
 10
0.5000
 20
-0.2071
 30
0.0000
  0
VERTEX
  8
0
 10
0.2071
 20
-0.5000
 30
0.0000
  0
VERTEX
  8
0
 10
-0.2071
 20
-0.5000
 30
0.0000
  0
SEQEND
  8
0
  0
ENDBLK
  8
0
  0
BLOCK
  8
0
  2
SQUAREV
 70
64
 10
0.0000
 20
0.0000
 30
0.0000
  3
SQUAREV
  0
SOLID
  8
0
 10
-0.5000
 20
-0.5000
 30
0.0000
 11
0.5000
 21
-0.5000
 31
0.0000
 12
-0.5000
 22
0.5000
 32
0.0000
 13
0.5000
 23
0.5000
 33
0.0000
  0
ENDBLK
  8
0
  0
BLOCK
  8
0
  2
ROUNDV
 70
64
 10
0.0000
 20
0.0000
 30
0.0000
  3
ROUNDV
  0
CIRCLE
  8
0
 10
0.0000
 20
0.0000
 30
0.0000
 40
0.5000
  0
ENDBLK
  8
0
  0
BLOCK
  8
0
  2
ANNULUSV
 70
64
 10
0.0000
 20
0.0000
 30
0.0000
  3
ANNULUSV
  0
CIRCLE
  8
0
 10
0.0000
 20
0.0000
 30
0.0000
 40
0.5000
  0
ENDBLK
  8
0
  0
BLOCK
  8
0
  2
THERMALV
 70
64
 10
0.0000
 20
0.0000
 30
0.0000
  3
THERMALV
  0
LINE
  8
0
 10
-0.2379
 20
0.4500
 30
0.0000
 11
0.2379
 21
0.4500
 31
0.0000
  0
LINE
  8
0
 10
0.4500
 20
0.2379
 30
0.0000
 11
0.4500
 21
-0.2379
 31
0.0000
  0
LINE
  8
0
 10
0.2379
 20
-0.4500
 30
0.0000
 11
-0.2379
 21
-0.4500
 31
0.0000
  0
LINE
  8
0
 10
-0.4500
 20
-0.2379
 30
0.0000
 11
-0.4500
 21
0.2379
 31
0.0000
  0
ENDBLK
  8
0
  0
ENDSEC
  0
SECTION
  2
ENTITIES
  0
LINE
  8
20
 10
-5.0800
 20
-2.5400
 30
0.0000
 11
-5.0800
 21
2.5400
 31
0.0000
  0
ARC
  8
20
 10
-3.8100
 20
2.5400
 30
0.0000
 40
1.2700
 50
90.0000
 51
180.0000
  0
LINE
  8
20
 10
-3.8100
 20
3.8100
 30
0.0000
 11
3.5560
 21
3.8100
 31
0.0000
  0
ARC
  8
20
 10
3.5560
 20
2.2860
 30
0.0000
 40
1.5240
 50
0.0000
 51
90.0000
  0
LINE
  8
20
 10
5.0800
 20
2.2860
 30
0.0000
 11
5.0800
 21
-2.5400
 31
0.0000
  0
ARC
  8
20
 10
3.8100
 20
-2.5400
 30
0.0000
 40
1.2700
 50
270.0000
 51
0.0000
  0
LINE
  8
20
 10
3.8100
 20
-3.8100
 30
0.0000
 11
-3.8100
 21
-3.8100
 31
0.0000
  0
ARC
  8
20
 10
-3.8100
 20
-2.5400
 30
0.0000
 40
1.2700
 50
180.0000
 51
270.0000
  0
LINE
  8
21
 10
-1.6208
 20
-2.3531
 30
0.0000
 11
-1.7776
 21
-2.1963
 31
0.0000
  0
LINE
  8
21
 10
-1.7776
 20
-2.1963
 30
0.0000
 11
-2.0911
 21
-2.1963
 31
0.0000
  0
LINE
  8
21
 10
-2.0911
 20
-2.1963
 30
0.0000
 11
-2.2479
 21
-2.3531
 31
0.0000
  0
LINE
  8
21
 10
-2.2479
 20
-2.3531
 30
0.0000
 11
-2.2479
 21
-2.5098
 31
0.0000
  0
LINE
  8
21
 10
-2.2479
 20
-2.5098
 30
0.0000
 11
-2.0911
 21
-2.6666
 31
0.0000
  0
LINE
  8
21
 10
-2.0911
 20
-2.6666
 30
0.0000
 11
-1.7776
 21
-2.6666
 31
0.0000
  0
LINE
  8
21
 10
-1.7776
 20
-2.6666
 30
0.0000
 11
-1.6208
 21
-2.8234
 31
0.0000
  0
LINE
  8
21
 10
-1.6208
 20
-2.8234
 30
0.0000
 11
-1.6208
 21
-2.9801
 31
0.0000
  0
LINE
  8
21
 10
-1.6208
 20
-2.9801
 30
0.0000
 11
-1.7776
 21
-3.1369
 31
0.0000
  0
LINE
  8
21
 10
-1.7776
 20
-3.1369
 30
0.0000
 11
-2.0911
 21
-3.1369
 31
0.0000
  0
LINE
  8
21
 10
-2.0911
 20
-3.1369
 30
0.0000
 11
-2.2479
 21
-2.9801
 31
0.0000
  0
LINE
  8
21
 10
-0.8421
 20
-2.1963
 30
0.0000
 11
-1.1556
 21
-2.1963
 31
0.0000
  0
LINE
  8
21
 10
-1.1556
 20
-2.1963
 30
0.0000
 11
-1.3124
 21
-2.3531
 31
0.0000
  0
LINE
  8
21
 10
-1.3124
 20
-2.3531
 30
0.0000
 11
-1.3124
 21
-2.9801
 31
0.0000
  0
LINE
  8
21
 10
-1.3124
 20
-2.9801
 30
0.0000
 11
-1.1556
 21
-3.1369
 31
0.0000
  0
LINE
  8
21
 10
-1.1556
 20
-3.1369
 30
0.0000
 11
-0.8421
 21
-3.1369
 31
0.0000
  0
LINE
  8
21
 10
-0.8421
 20
-3.1369
 30
0.0000
 11
-0.6853
 21
-2.9801
 31
0.0000
  0
LINE
  8
21
 10
-0.6853
 20
-2.9801
 30
0.0000
 11
-0.6853
 21
-2.3531
 31
0.0000
  0
LINE
  8
21
 10
-0.6853
 20
-2.3531
 30
0.0000
 11
-0.8421
 21
-2.1963
 31
0.0000
  0
LINE
  8
21
 10
-0.0633
 20
-3.1369
 30
0.0000
 11
-0.0633
 21
-2.1963
 31
0.0000
  0
LINE
  8
21
 10
-0.3769
 20
-2.1963
 30
0.0000
 11
0.2502
 21
-2.1963
 31
0.0000
  0
LINE
  8
21
 10
1.1857
 20
-3.1369
 30
0.0000
 11
0.5587
 21
-3.1369
 31
0.0000
  0
LINE
  8
21
 10
0.5587
 20
-3.1369
 30
0.0000
 11
1.1857
 21
-2.5098
 31
0.0000
  0
LINE
  8
21
 10
1.1857
 20
-2.5098
 30
0.0000
 11
1.1857
 21
-2.3531
 31
0.0000
  0
LINE
  8
21
 10
1.1857
 20
-2.3531
 30
0.0000
 11
1.0290
 21
-2.1963
 31
0.0000
  0
LINE
  8
21
 10
1.0290
 20
-2.1963
 30
0.0000
 11
0.7154
 21
-2.1963
 31
0.0000
  0
LINE
  8
21
 10
0.7154
 20
-2.1963
 30
0.0000
 11
0.5587
 21
-2.3531
 31
0.0000
  0
LINE
  8
21
 10
1.4942
 20
-2.3531
 30
0.0000
 11
1.6509
 21
-2.1963
 31
0.0000
  0
LINE
  8
21
 10
1.6509
 20
-2.1963
 30
0.0000
 11
1.9645
 21
-2.1963
 31
0.0000
  0
LINE
  8
21
 10
1.9645
 20
-2.1963
 30
0.0000
 11
2.1212
 21
-2.3531
 31
0.0000
  0
LINE
  8
21
 10
2.1212
 20
-2.3531
 30
0.0000
 11
2.1212
 21
-2.5098
 31
0.0000
  0
LINE
  8
21
 10
2.1212
 20
-2.5098
 30
0.0000
 11
1.9645
 21
-2.6666
 31
0.0000
  0
LINE
  8
21
 10
1.9645
 20
-2.6666
 30
0.0000
 11
1.8077
 21
-2.6666
 31
0.0000
  0
LINE
  8
21
 10
1.9645
 20
-2.6666
 30
0.0000
 11
2.1212
 21
-2.8234
 31
0.0000
  0
LINE
  8
21
 10
2.1212
 20
-2.8234
 30
0.0000
 11
2.1212
 21
-2.9801
 31
0.0000
  0
LINE
  8
21
 10
2.1212
 20
-2.9801
 30
0.0000
 11
1.9645
 21
-3.1369
 31
0.0000
  0
LINE
  8
21
 10
1.9645
 20
-3.1369
 30
0.0000
 11
1.6509
 21
-3.1369
 31
0.0000
  0
LINE
  8
21
 10
1.6509
 20
-3.1369
 30
0.0000
 11
1.4942
 21
-2.9801
 31
0.0000
  0
CIRCLE
  8
27
 10
-2.1590
 20
2.9210
 30
0.0000
 40
0.3810
  0
POINT
  8
23
 10
3.8100
 20
0.0000
 30
0.0000
  0
INSERT
  8
51
  2
RECT
 10
3.8100
 20
0.0000
 30
0.0000
 41
0.5080
 42
0.5080
 43
1.0000
 50
270.0000
  0
INSERT
  8
51
  2
RECT
 10
3.8100
 20
2.5400
 30
0.0000
 41
0.5080
 42
0.5080
 43
1.0000
 50
270.0000
  0
INSERT
  8
51
  2
RECT
 10
3.8100
 20
-2.5400
 30
0.0000
 41
0.5080
 42
0.5080
 43
1.0000
 50
270.0000
  0
INSERT
  8
17
  2
ROUNDP
 10
3.8100
 20
2.5400
 30
0.0000
 41
1.6764
 42
1.6764
 43
1.0000
 50
0.0000
  0
INSERT
  8
17
  2
ROUNDP
 10
3.8100
 20
2.5400
 30
0.0000
 41
1.6764
 42
1.6764
 43
1.0000
 50
0.0000
  0
INSERT
  8
17
  2
ROUNDP
 10
3.8100
 20
0.0000
 30
0.0000
 41
1.6764
 42
1.6764
 43
1.0000
 50
0.0000
  0
INSERT
  8
17
  2
ROUNDP
 10
3.8100
 20
0.0000
 30
0.0000
 41
1.6764
 42
1.6764
 43
1.0000
 50
0.0000
  0
INSERT
  8
17
  2
ROUNDP
 10
3.8100
 20
-2.5400
 30
0.0000
 41
1.6764
 42
1.6764
 43
1.0000
 50
0.0000
  0
INSERT
  8
17
  2
ROUNDP
 10
3.8100
 20
-2.5400
 30
0.0000
 41
1.6764
 42
1.6764
 43
1.0000
 50
0.0000
  0
POINT
  8
23
 10
-3.8100
 20
0.0000
 30
0.0000
  0
INSERT
  8
51
  2
RECT
 10
-3.8100
 20
0.0000
 30
0.0000
 41
0.5080
 42
0.5080
 43
1.0000
 50
270.0000
  0
INSERT
  8
51
  2
RECT
 10
-3.8100
 20
2.5400
 30
0.0000
 41
0.5080
 42
0.5080
 43
1.0000
 50
270.0000
  0
INSERT
  8
51
  2
RECT
 10
-3.8100
 20
-2.5400
 30
0.0000
 41
0.5080
 42
0.5080
 43
1.0000
 50
270.0000
  0
INSERT
  8
17
  2
ROUNDP
 10
-3.8100
 20
2.5400
 30
0.0000
 41
1.6764
 42
1.6764
 43
1.0000
 50
0.0000
  0
INSERT
  8
17
  2
ROUNDP
 10
-3.8100
 20
2.5400
 30
0.0000
 41
1.6764
 42
1.6764
 43
1.0000
 50
0.0000
  0
INSERT
  8
17
  2
ROUNDP
 10
-3.8100
 20
0.0000
 30
0.0000
 41
1.6764
 42
1.6764
 43
1.0000
 50
0.0000
  0
INSERT
  8
17
  2
ROUNDP
 10
-3.8100
 20
0.0000
 30
0.0000
 41
1.6764
 42
1.6764
 43
1.0000
 50
0.0000
  0
INSERT
  8
17
  2
ROUNDP
 10
-3.8100
 20
-2.5400
 30
0.0000
 41
1.6764
 42
1.6764
 43
1.0000
 50
0.0000
  0
INSERT
  8
17
  2
ROUNDP
 10
-3.8100
 20
-2.5400
 30
0.0000
 41
1.6764
 42
1.6764
 43
1.0000
 50
0.0000
  0
POINT
  8
24
 10
0.0000
 20
-1.9050
 30
0.0000
  0
LINE
  8
52
 10
-0.6604
 20
-3.3274
 30
0.0000
 11
0.6604
 21
-3.3274
 31
0.0000
  0
LINE
  8
52
 10
0.6604
 20
-3.3274
 30
0.0000
 11
0.6604
 21
-0.4826
 31
0.0000
  0
LINE
  8
52
 10
0.6604
 20
-0.4826
 30
0.0000
 11
-0.6604
 21
-0.4826
 31
0.0000
  0
LINE
  8
52
 10
-0.6604
 20
-0.4826
 30
0.0000
 11
-0.6604
 21
-3.3274
 31
0.0000
  0
INSERT
  8
52
  2
RECT
 10
-1.0033
 20
-1.9050
 30
0.0000
 41
0.4572
 42
0.5842
 43
1.0000
 50
270.0000
  0
INSERT
  8
52
  2
RECT
 10
1.0033
 20
-2.8448
 30
0.0000
 41
0.4572
 42
0.5842
 43
1.0000
 50
270.0000
  0
INSERT
  8
52
  2
RECT
 10
1.0033
 20
-0.9652
 30
0.0000
 41
0.4572
 42
0.5842
 43
1.0000
 50
270.0000
  0
INSERT
  8
16
  2
RECT
 10
1.1000
 20
-0.9550
 30
0.0000
 41
1.0000
 42
1.4000
 43
1.0000
 50
270.0000
  0
INSERT
  8
16
  2
RECT
 10
1.1000
 20
-2.8550
 30
0.0000
 41
1.0000
 42
1.4000
 43
1.0000
 50
270.0000
  0
INSERT
  8
16
  2
RECT
 10
-1.1000
 20
-1.9050
 30
0.0000
 41
1.0000
 42
1.4000
 43
1.0000
 50
270.0000
  0
POINT
  8
24
 10
0.0000
 20
1.9050
 30
0.0000
  0
LINE
  8
52
 10
0.6604
 20
3.3274
 30
0.0000
 11
-0.6604
 21
3.3274
 31
0.0000
  0
LINE
  8
52
 10
-0.6604
 20
3.3274
 30
0.0000
 11
-0.6604
 21
0.4826
 31
0.0000
  0
LINE
  8
52
 10
-0.6604
 20
0.4826
 30
0.0000
 11
0.6604
 21
0.4826
 31
0.0000
  0
LINE
  8
52
 10
0.6604
 20
0.4826
 30
0.0000
 11
0.6604
 21
3.3274
 31
0.0000
  0
INSERT
  8
52
  2
RECT
 10
1.0033
 20
1.9050
 30
0.0000
 41
0.4572
 42
0.5842
 43
1.0000
 50
90.0000
  0
INSERT
  8
52
  2
RECT
 10
-1.0033
 20
2.8448
 30
0.0000
 41
0.4572
 42
0.5842
 43
1.0000
 50
90.0000
  0
INSERT
  8
52
  2
RECT
 10
-1.0033
 20
0.9652
 30
0.0000
 41
0.4572
 42
0.5842
 43
1.0000
 50
90.0000
  0
INSERT
  8
16
  2
RECT
 10
-1.1000
 20
0.9550
 30
0.0000
 41
1.0000
 42
1.4000
 43
1.0000
 50
90.0000
  0
INSERT
  8
16
  2
RECT
 10
-1.1000
 20
2.8550
 30
0.0000
 41
1.0000
 42
1.4000
 43
1.0000
 50
90.0000
  0
INSERT
  8
16
  2
RECT
 10
1.1000
 20
1.9050
 30
0.0000
 41
1.0000
 42
1.4000
 43
1.0000
 50
90.0000
  0
POINT
  8
23
 10
0.0000
 20
-0.5080
 30
0.0000
  0
LINE
  8
21
 10
0.8100
 20
-1.9300
 30
0.0000
 11
-0.8100
 21
-1.9300
 31
0.0000
  0
LINE
  8
51
 10
-0.8100
 20
-1.9300
 30
0.0000
 11
-0.8100
 21
0.9140
 31
0.0000
  0
LINE
  8
21
 10
-0.8100
 20
0.9140
 30
0.0000
 11
0.8100
 21
0.9140
 31
0.0000
  0
LINE
  8
51
 10
0.8100
 20
0.9140
 30
0.0000
 11
0.8100
 21
-1.9300
 31
0.0000
  0
LINE
  8
21
 10
0.8100
 20
0.0140
 30
0.0000
 11
0.8100
 21
-1.0300
 31
0.0000
  0
LINE
  8
21
 10
-0.8100
 20
-0.0800
 30
0.0000
 11
-0.8100
 21
0.0140
 31
0.0000
  0
LINE
  8
21
 10
-0.8100
 20
-1.0300
 30
0.0000
 11
-0.8100
 21
-0.9360
 31
0.0000
  0
LINE
  8
21
 10
-0.8100
 20
0.8200
 30
0.0000
 11
-0.8100
 21
0.9140
 31
0.0000
  0
LINE
  8
21
 10
-0.8100
 20
-1.9300
 30
0.0000
 11
-0.8100
 21
-1.8360
 31
0.0000
  0
LINE
  8
21
 10
0.8100
 20
-1.8360
 30
0.0000
 11
0.8100
 21
-1.9300
 31
0.0000
  0
LINE
  8
21
 10
0.8100
 20
0.9140
 30
0.0000
 11
0.8100
 21
0.8200
 31
0.0000
  0
CIRCLE
  8
21
 10
-0.3000
 20
0.4920
 30
0.0000
 40
0.1000
  0
INSERT
  8
51
  2
RECT
 10
-1.1750
 20
0.4420
 30
0.0000
 41
0.5000
 42
0.6500
 43
1.0000
 50
270.0000
  0
INSERT
  8
51
  2
RECT
 10
-1.1750
 20
-0.5080
 30
0.0000
 41
0.5000
 42
0.6500
 43
1.0000
 50
270.0000
  0
INSERT
  8
51
  2
RECT
 10
-1.1750
 20
-1.4580
 30
0.0000
 41
0.5000
 42
0.6500
 43
1.0000
 50
270.0000
  0
INSERT
  8
51
  2
RECT
 10
1.1750
 20
-1.4580
 30
0.0000
 41
0.5000
 42
0.6500
 43
1.0000
 50
270.0000
  0
INSERT
  8
51
  2
RECT
 10
1.1750
 20
0.4420
 30
0.0000
 41
0.5000
 42
0.6500
 43
1.0000
 50
270.0000
  0
INSERT
  8
51
  2
RECT
 10
1.1750
 20
-0.4580
 30
0.0000
 41
0.5000
 42
0.6500
 43
1.0000
 50
270.0000
  0
INSERT
  8
1
  2
RECT
 10
-1.3000
 20
0.4420
 30
0.0000
 41
0.5500
 42
1.2000
 43
1.0000
 50
270.0000
  0
INSERT
  8
1
  2
RECT
 10
-1.3000
 20
-0.5080
 30
0.0000
 41
0.5500
 42
1.2000
 43
1.0000
 50
270.0000
  0
INSERT
  8
1
  2
RECT
 10
-1.3000
 20
-1.4580
 30
0.0000
 41
0.5500
 42
1.2000
 43
1.0000
 50
270.0000
  0
INSERT
  8
1
  2
RECT
 10
1.3000
 20
-1.4580
 30
0.0000
 41
0.5500
 42
1.2000
 43
1.0000
 50
270.0000
  0
INSERT
  8
1
  2
RECT
 10
1.3000
 20
-0.5080
 30
0.0000
 41
0.5500
 42
1.2000
 43
1.0000
 50
270.0000
  0
INSERT
  8
1
  2
RECT
 10
1.3000
 20
0.4420
 30
0.0000
 41
0.5500
 42
1.2000
 43
1.0000
 50
270.0000
  0
POINT
  8
23
 10
-1.1430
 20
1.1430
 30
0.0000
  0
INSERT
  8
21
  2
RECT
 10
0.5639
 20
1.1430
 30
0.0000
 41
0.0343
 42
0.0038
 43
1.0000
 50
0.0000
  0
INSERT
  8
21
  2
RECT
 10
0.5639
 20
1.1468
 30
0.0000
 41
0.0572
 42
0.0038
 43
1.0000
 50
0.0000
  0
INSERT
  8
21
  2
RECT
 10
0.5620
 20
1.1506
 30
0.0000
 41
0.0762
 42
0.0038
 43
1.0000
 50
0.0000
  0
INSERT
  8
21
  2
RECT
 10
0.5620
 20
1.1544
 30
0.0000
 41
0.0914
 42
0.0038
 43
1.0000
 50
0.0000
  0
INSERT
  8
21
  2
RECT
 10
0.5639
 20
1.1582
 30
0.0000
 41
0.1029
 42
0.0038
 43
1.0000
 50
0.0000
  0
INSERT
  8
21
  2
RECT
 10
0.5620
 20
1.1621
 30
0.0000
 41
0.1143
 42
0.0039
 43
1.0000
 50
0.0000
  0
INSERT
  8
21
  2
RECT
 10
0.5620
 20
1.1659
 30
0.0000
 41
0.1295
 42
0.0038
 43
1.0000
 50
0.0000
  0
INSERT
  8
21
  2
RECT
 10
0.5620
 20
1.1697
 30
0.0000
 41
0.1372
 42
0.0038
 43
1.0000
 50
0.0000
  0
INSERT
  8
21
  2
RECT
 10
0.5620
 20
1.1735
 30
0.0000
 41
0.1448
 42
0.0038
 43
1.0000
 50
0.0000
  0
INSERT
  8
21
  2
RECT
 10
0.5582
 20
1.1773
 30
0.0000
 41
0.1524
 42
0.0038
 43
1.0000
 50
0.0000
  0
INSERT
  8
21
  2
RECT
 10
0.5582
 20
1.1811
 30
0.0000
 41
0.1600
 42
0.0038
 43
1.0000
 50
0.0000
  0
INSERT
  8
21
  2
RECT
 10
0.5563
 20
1.1849
 30
0.0000
 41
0.1715
 42
0.0038
 43
1.0000
 50
0.0000
  0
INSERT
  8
21
  2
RECT
 10
0.5544
 20
1.1887
 30
0.0000
 41
0.1753
 42
0.0038
 43
1.0000
 50
0.0000
  0
INSERT
  8
21
  2
RECT
 10
0.5544
 20
1.1925
 30
0.0000
 41
0.1829
 42
0.0038
 43
1.0000
 50
0.0000
  0
INSERT
  8
21
  2
RECT
 10
0.5505
 20
1.1963
 30
0.0000
 41
0.1905
 42
0.0038
 43
1.0000
 50
0.0000
  0
INSERT
  8
21
  2
RECT
 10
0.5486
 20
1.2002
 30
0.0000
 41
0.1943
 42
0.0039
 43
1.0000
 50
0.0000
  0
INSERT
  8
21
  2
RECT
 10
0.5486
 20
1.2040
 30
0.0000
 41
0.2019
 42
0.0038
 43
1.0000
 50
0.0000
  0
INSERT
  8
21
  2
RECT
 10
0.5449
 20
1.2078
 30
0.0000
 41
0.2095
 42
0.0038
 43
1.0000
 50
0.0000
  0
INSERT
  8
21
  2
RECT
 10
0.5429
 20
1.2116
 30
0.0000
 41
0.2134
 42
0.0038
 43
1.0000
 50
0.0000
  0
INSERT
  8
21
  2
RECT
 10
0.5391
 20
1.2154
 30
0.0000
 41
0.2210
 42
0.0038
 43
1.0000
 50
0.0000
  0
INSERT
  8
21
  2
RECT
 10
0.5372
 20
1.2192
 30
0.0000
 41
0.2248
 42
0.0038
 43
1.0000
 50
0.0000
  0
INSERT
  8
21
  2
RECT
 10
0.5372
 20
1.2230
 30
0.0000
 41
0.2324
 42
0.0038
 43
1.0000
 50
0.0000
  0
INSERT
  8
21
  2
RECT
 10
0.5334
 20
1.2268
 30
0.0000
 41
0.2400
 42
0.0038
 43
1.0000
 50
0.0000
  0
INSERT
  8
21
  2
RECT
 10
0.5315
 20
1.2306
 30
0.0000
 41
0.2438
 42
0.0038
 43
1.0000
 50
0.0000
  0
INSERT
  8
21
  2
RECT
 10
0.5296
 20
1.2344
 30
0.0000
 41
0.2476
 42
0.0038
 43
1.0000
 50
0.0000
  0
INSERT
  8
21
  2
RECT
 10
0.5258
 20
1.2383
 30
0.0000
 41
0.2553
 42
0.0039
 43
1.0000
 50
0.0000
  0
INSERT
  8
21
  2
RECT
 10
0.5239
 20
1.2421
 30
0.0000
 41
0.2591
 42
0.0038
 43
1.0000
 50
0.0000
  0
INSERT
  8
21
  2
RECT
 10
0.5220
 20
1.2459
 30
0.0000
 41
0.2629
 42
0.0038
 43
1.0000
 50
0.0000
  0
INSERT
  8
21
  2
RECT
 10
0.5181
 20
1.2497
 30
0.0000
 41
0.2705
 42
0.0038
 43
1.0000
 50
0.0000
  0
INSERT
  8
21
  2
RECT
 10
0.5162
 20
1.2535
 30
0.0000
 41
0.2743
 42
0.0038
 43
1.0000
 50
0.0000
  0
INSERT
  8
21
  2
RECT
 10
0.5125
 20
1.2573
 30
0.0000
 41
0.2819
 42
0.0038
 43
1.0000
 50
0.0000
  0
INSERT
  8
21
  2
RECT
 10
0.5106
 20
1.2611
 30
0.0000
 41
0.2857
 42
0.0038
 43
1.0000
 50
0.0000
  0
INSERT
  8
21
  2
RECT
 10
0.5087
 20
1.2649
 30
0.0000
 41
0.2895
 42
0.0038
 43
1.0000
 50
0.0000
  0
INSERT
  8
21
  2
RECT
 10
0.5048
 20
1.2687
 30
0.0000
 41
0.2972
 42
0.0038
 43
1.0000
 50
0.0000
  0
INSERT
  8
21
  2
RECT
 10
0.5029
 20
1.2725
 30
0.0000
 41
0.3010
 42
0.0038
 43
1.0000
 50
0.0000
  0
INSERT
  8
21
  2
RECT
 10
0.5010
 20
1.2764
 30
0.0000
 41
0.3048
 42
0.0039
 43
1.0000
 50
0.0000
  0
INSERT
  8
21
  2
RECT
 10
0.4972
 20
1.2802
 30
0.0000
 41
0.3124
 42
0.0038
 43
1.0000
 50
0.0000
  0
INSERT
  8
21
  2
RECT
 10
0.4953
 20
1.2840
 30
0.0000
 41
0.3162
 42
0.0038
 43
1.0000
 50
0.0000
  0
INSERT
  8
21
  2
RECT
 10
0.4934
 20
1.2878
 30
0.0000
 41
0.3200
 42
0.0038
 43
1.0000
 50
0.0000
  0
INSERT
  8
21
  2
RECT
 10
0.4896
 20
1.2916
 30
0.0000
 41
0.3276
 42
0.0038
 43
1.0000
 50
0.0000
  0
INSERT
  8
21
  2
RECT
 10
0.4877
 20
1.2954
 30
0.0000
 41
0.3315
 42
0.0038
 43
1.0000
 50
0.0000
  0
INSERT
  8
21
  2
RECT
 10
0.4839
 20
1.2992
 30
0.0000
 41
0.3391
 42
0.0038
 43
1.0000
 50
0.0000
  0
INSERT
  8
21
  2
RECT
 10
0.4820
 20
1.3030
 30
0.0000
 41
0.3429
 42
0.0038
 43
1.0000
 50
0.0000
  0
INSERT
  8
21
  2
RECT
 10
0.4801
 20
1.3068
 30
0.0000
 41
0.3467
 42
0.0038
 43
1.0000
 50
0.0000
  0
INSERT
  8
21
  2
RECT
 10
0.4763
 20
1.3106
 30
0.0000
 41
0.3543
 42
0.0038
 43
1.0000
 50
0.0000
  0
INSERT
  8
21
  2
RECT
 10
0.4744
 20
1.3145
 30
0.0000
 41
0.3581
 42
0.0039
 43
1.0000
 50
0.0000
  0
INSERT
  8
21
  2
RECT
 10
0.4725
 20
1.3183
 30
0.0000
 41
0.3619
 42
0.0038
 43
1.0000
 50
0.0000
  0
INSERT
  8
21
  2
RECT
 10
0.4686
 20
1.3221
 30
0.0000
 41
0.3696
 42
0.0038
 43
1.0000
 50
0.0000
  0
INSERT
  8
21
  2
RECT
 10
0.4667
 20
1.3259
 30
0.0000
 41
0.3734
 42
0.0038
 43
1.0000
 50
0.0000
  0
INSERT
  8
21
  2
RECT
 10
0.4648
 20
1.3297
 30
0.0000
 41
0.3772
 42
0.0038
 43
1.0000
 50
0.0000
  0
INSERT
  8
21
  2
RECT
 10
0.4610
 20
1.3335
 30
0.0000
 41
0.3848
 42
0.0038
 43
1.0000
 50
0.0000
  0
INSERT
  8
21
  2
RECT
 10
0.4591
 20
1.3373
 30
0.0000
 41
0.3886
 42
0.0038
 43
1.0000
 50
0.0000
  0
INSERT
  8
21
  2
RECT
 10
0.4553
 20
1.3411
 30
0.0000
 41
0.3962
 42
0.0038
 43
1.0000
 50
0.0000
  0
INSERT
  8
21
  2
RECT
 10
0.4534
 20
1.3449
 30
0.0000
 41
0.4000
 42
0.0038
 43
1.0000
 50
0.0000
  0
INSERT
  8
21
  2
RECT
 10
0.4515
 20
1.3487
 30
0.0000
 41
0.4038
 42
0.0038
 43
1.0000
 50
0.0000
  0
INSERT
  8
21
  2
RECT
 10
0.4477
 20
1.3526
 30
0.0000
 41
0.4115
 42
0.0039
 43
1.0000
 50
0.0000
  0
INSERT
  8
21
  2
RECT
 10
0.4458
 20
1.3564
 30
0.0000
 41
0.4153
 42
0.0038
 43
1.0000
 50
0.0000
  0
INSERT
  8
21
  2
RECT
 10
0.4439
 20
1.3602
 30
0.0000
 41
0.4191
 42
0.0038
 43
1.0000
 50
0.0000
  0
INSERT
  8
21
  2
RECT
 10
-0.8325
 20
1.3640
 30
0.0000
 41
0.0457
 42
0.0038
 43
1.0000
 50
0.0000
  0
INSERT
  8
21
  2
RECT
 10
0.4400
 20
1.3640
 30
0.0000
 41
0.4267
 42
0.0038
 43
1.0000
 50
0.0000
  0
INSERT
  8
21
  2
RECT
 10
-0.8306
 20
1.3678
 30
0.0000
 41
0.0724
 42
0.0038
 43
1.0000
 50
0.0000
  0
INSERT
  8
21
  2
RECT
 10
0.4382
 20
1.3678
 30
0.0000
 41
0.4305
 42
0.0038
 43
1.0000
 50
0.0000
  0
INSERT
  8
21
  2
RECT
 10
-0.8267
 20
1.3716
 30
0.0000
 41
0.0953
 42
0.0038
 43
1.0000
 50
0.0000
  0
INSERT
  8
21
  2
RECT
 10
0.4344
 20
1.3716
 30
0.0000
 41
0.4381
 42
0.0038
 43
1.0000
 50
0.0000
  0
INSERT
  8
21
  2
RECT
 10
-0.8230
 20
1.3754
 30
0.0000
 41
0.1105
 42
0.0038
 43
1.0000
 50
0.0000
  0
INSERT
  8
21
  2
RECT
 10
0.4325
 20
1.3754
 30
0.0000
 41
0.4419
 42
0.0038
 43
1.0000
 50
0.0000
  0
INSERT
  8
21
  2
RECT
 10
-0.8211
 20
1.3792
 30
0.0000
 41
0.1295
 42
0.0038
 43
1.0000
 50
0.0000
  0
INSERT
  8
21
  2
RECT
 10
0.4305
 20
1.3792
 30
0.0000
 41
0.4458
 42
0.0038
 43
1.0000
 50
0.0000
  0
INSERT
  8
21
  2
RECT
 10
-0.8173
 20
1.3830
 30
0.0000
 41
0.1447
 42
0.0038
 43
1.0000
 50
0.0000
  0
INSERT
  8
21
  2
RECT
 10
0.4267
 20
1.3830
 30
0.0000
 41
0.4534
 42
0.0038
 43
1.0000
 50
0.0000
  0
INSERT
  8
21
  2
RECT
 10
-0.8134
 20
1.3868
 30
0.0000
 41
0.1600
 42
0.0038
 43
1.0000
 50
0.0000
  0
INSERT
  8
21
  2
RECT
 10
0.4248
 20
1.3868
 30
0.0000
 41
0.4572
 42
0.0038
 43
1.0000
 50
0.0000
  0
INSERT
  8
21
  2
RECT
 10
-0.8097
 20
1.3907
 30
0.0000
 41
0.1753
 42
0.0039
 43
1.0000
 50
0.0000
  0
INSERT
  8
21
  2
RECT
 10
0.4229
 20
1.3907
 30
0.0000
 41
0.4610
 42
0.0039
 43
1.0000
 50
0.0000
  0
INSERT
  8
21
  2
RECT
 10
-0.8059
 20
1.3945
 30
0.0000
 41
0.1905
 42
0.0038
 43
1.0000
 50
0.0000
  0
INSERT
  8
21
  2
RECT
 10
0.4191
 20
1.3945
 30
0.0000
 41
0.4686
 42
0.0038
 43
1.0000
 50
0.0000
  0
INSERT
  8
21
  2
RECT
 10
-0.8020
 20
1.3983
 30
0.0000
 41
0.2058
 42
0.0038
 43
1.0000
 50
0.0000
  0
INSERT
  8
21
  2
RECT
 10
0.4172
 20
1.3983
 30
0.0000
 41
0.4724
 42
0.0038
 43
1.0000
 50
0.0000
  0
INSERT
  8
21
  2
RECT
 10
-0.7963
 20
1.4021
 30
0.0000
 41
0.2172
 42
0.0038
 43
1.0000
 50
0.0000
  0
INSERT
  8
21
  2
RECT
 10
0.4153
 20
1.4021
 30
0.0000
 41
0.4762
 42
0.0038
 43
1.0000
 50
0.0000
  0
INSERT
  8
21
  2
RECT
 10
-0.7925
 20
1.4059
 30
0.0000
 41
0.2324
 42
0.0038
 43
1.0000
 50
0.0000
  0
INSERT
  8
21
  2
RECT
 10
0.4115
 20
1.4059
 30
0.0000
 41
0.4839
 42
0.0038
 43
1.0000
 50
0.0000
  0
INSERT
  8
21
  2
RECT
 10
-0.7887
 20
1.4097
 30
0.0000
 41
0.2477
 42
0.0038
 43
1.0000
 50
0.0000
  0
INSERT
  8
21
  2
RECT
 10
0.4096
 20
1.4097
 30
0.0000
 41
0.4877
 42
0.0038
 43
1.0000
 50
0.0000
  0
INSERT
  8
21
  2
RECT
 10
-0.7830
 20
1.4135
 30
0.0000
 41
0.2591
 42
0.0038
 43
1.0000
 50
0.0000
  0
INSERT
  8
21
  2
RECT
 10
0.4057
 20
1.4135
 30
0.0000
 41
0.4953
 42
0.0038
 43
1.0000
 50
0.0000
  0
INSERT
  8
21
  2
RECT
 10
-0.7792
 20
1.4173
 30
0.0000
 41
0.2743
 42
0.0038
 43
1.0000
 50
0.0000
  0
INSERT
  8
21
  2
RECT
 10
0.4039
 20
1.4173
 30
0.0000
 41
0.4991
 42
0.0038
 43
1.0000
 50
0.0000
  0
INSERT
  8
21
  2
RECT
 10
-0.7735
 20
1.4211
 30
0.0000
 41
0.2857
 42
0.0038
 43
1.0000
 50
0.0000
  0
INSERT
  8
21
  2
RECT
 10
0.4020
 20
1.4211
 30
0.0000
 41
0.5029
 42
0.0038
 43
1.0000
 50
0.0000
  0
INSERT
  8
21
  2
RECT
 10
-0.7677
 20
1.4249
 30
0.0000
 41
0.2972
 42
0.0038
 43
1.0000
 50
0.0000
  0
INSERT
  8
21
  2
RECT
 10
0.3982
 20
1.4249
 30
0.0000
 41
0.5105
 42
0.0038
 43
1.0000
 50
0.0000
  0
INSERT
  8
21
  2
RECT
 10
-0.7620
 20
1.4287
 30
0.0000
 41
0.3086
 42
0.0039
 43
1.0000
 50
0.0000
  0
INSERT
  8
21
  2
RECT
 10
0.3963
 20
1.4287
 30
0.0000
 41
0.5143
 42
0.0039
 43
1.0000
 50
0.0000
  0
INSERT
  8
21
  2
RECT
 10
-0.7582
 20
1.4326
 30
0.0000
 41
0.3238
 42
0.0038
 43
1.0000
 50
0.0000
  0
INSERT
  8
21
  2
RECT
 10
0.3944
 20
1.4326
 30
0.0000
 41
0.5181
 42
0.0038
 43
1.0000
 50
0.0000
  0
INSERT
  8
21
  2
RECT
 10
-0.7525
 20
1.4364
 30
0.0000
 41
0.3353
 42
0.0038
 43
1.0000
 50
0.0000
  0
INSERT
  8
21
  2
RECT
 10
0.3905
 20
1.4364
 30
0.0000
 41
0.5258
 42
0.0038
 43
1.0000
 50
0.0000
  0
INSERT
  8
21
  2
RECT
 10
-0.7468
 20
1.4402
 30
0.0000
 41
0.3467
 42
0.0038
 43
1.0000
 50
0.0000
  0
INSERT
  8
21
  2
RECT
 10
0.3886
 20
1.4402
 30
0.0000
 41
0.5296
 42
0.0038
 43
1.0000
 50
0.0000
  0
INSERT
  8
21
  2
RECT
 10
-0.7410
 20
1.4440
 30
0.0000
 41
0.3581
 42
0.0038
 43
1.0000
 50
0.0000
  0
INSERT
  8
21
  2
RECT
 10
0.3867
 20
1.4440
 30
0.0000
 41
0.5334
 42
0.0038
 43
1.0000
 50
0.0000
  0
INSERT
  8
21
  2
RECT
 10
-0.7353
 20
1.4478
 30
0.0000
 41
0.3696
 42
0.0038
 43
1.0000
 50
0.0000
  0
INSERT
  8
21
  2
RECT
 10
0.3848
 20
1.4478
 30
0.0000
 41
0.5372
 42
0.0038
 43
1.0000
 50
0.0000
  0
INSERT
  8
21
  2
RECT
 10
-0.7296
 20
1.4516
 30
0.0000
 41
0.3810
 42
0.0038
 43
1.0000
 50
0.0000
  0
INSERT
  8
21
  2
RECT
 10
0.3810
 20
1.4516
 30
0.0000
 41
0.5448
 42
0.0038
 43
1.0000
 50
0.0000
  0
INSERT
  8
21
  2
RECT
 10
-0.7239
 20
1.4554
 30
0.0000
 41
0.3924
 42
0.0038
 43
1.0000
 50
0.0000
  0
INSERT
  8
21
  2
RECT
 10
0.3791
 20
1.4554
 30
0.0000
 41
0.5486
 42
0.0038
 43
1.0000
 50
0.0000
  0
INSERT
  8
21
  2
RECT
 10
-0.7182
 20
1.4592
 30
0.0000
 41
0.4038
 42
0.0038
 43
1.0000
 50
0.0000
  0
INSERT
  8
21
  2
RECT
 10
0.3772
 20
1.4592
 30
0.0000
 41
0.5524
 42
0.0038
 43
1.0000
 50
0.0000
  0
INSERT
  8
21
  2
RECT
 10
-0.7125
 20
1.4630
 30
0.0000
 41
0.4153
 42
0.0038
 43
1.0000
 50
0.0000
  0
INSERT
  8
21
  2
RECT
 10
0.3753
 20
1.4630
 30
0.0000
 41
0.5562
 42
0.0038
 43
1.0000
 50
0.0000
  0
INSERT
  8
21
  2
RECT
 10
-0.7049
 20
1.4668
 30
0.0000
 41
0.4229
 42
0.0039
 43
1.0000
 50
0.0000
  0
INSERT
  8
21
  2
RECT
 10
0.3734
 20
1.4668
 30
0.0000
 41
0.5601
 42
0.0039
 43
1.0000
 50
0.0000
  0
INSERT
  8
21
  2
RECT
 10
-0.6992
 20
1.4707
 30
0.0000
 41
0.4343
 42
0.0038
 43
1.0000
 50
0.0000
  0
INSERT
  8
21
  2
RECT
 10
0.3715
 20
1.4707
 30
0.0000
 41
0.5639
 42
0.0038
 43
1.0000
 50
0.0000
  0
INSERT
  8
21
  2
RECT
 10
-0.6934
 20
1.4745
 30
0.0000
 41
0.4458
 42
0.0038
 43
1.0000
 50
0.0000
  0
INSERT
  8
21
  2
RECT
 10
0.3696
 20
1.4745
 30
0.0000
 41
0.5677
 42
0.0038
 43
1.0000
 50
0.0000
  0
INSERT
  8
21
  2
RECT
 10
-0.6858
 20
1.4783
 30
0.0000
 41
0.4610
 42
0.0038
 43
1.0000
 50
0.0000
  0
INSERT
  8
21
  2
RECT
 10
0.3677
 20
1.4783
 30
0.0000
 41
0.5715
 42
0.0038
 43
1.0000
 50
0.0000
  0
INSERT
  8
21
  2
RECT
 10
-0.6801
 20
1.4821
 30
0.0000
 41
0.4724
 42
0.0038
 43
1.0000
 50
0.0000
  0
INSERT
  8
21
  2
RECT
 10
0.3658
 20
1.4821
 30
0.0000
 41
0.5753
 42
0.0038
 43
1.0000
 50
0.0000
  0
INSERT
  8
21
  2
RECT
 10
-0.6724
 20
1.4859
 30
0.0000
 41
0.4801
 42
0.0038
 43
1.0000
 50
0.0000
  0
INSERT
  8
21
  2
RECT
 10
0.3639
 20
1.4859
 30
0.0000
 41
0.5791
 42
0.0038
 43
1.0000
 50
0.0000
  0
INSERT
  8
21
  2
RECT
 10
-0.6668
 20
1.4897
 30
0.0000
 41
0.4915
 42
0.0038
 43
1.0000
 50
0.0000
  0
INSERT
  8
21
  2
RECT
 10
0.3619
 20
1.4897
 30
0.0000
 41
0.5829
 42
0.0038
 43
1.0000
 50
0.0000
  0
INSERT
  8
21
  2
RECT
 10
-0.6611
 20
1.4935
 30
0.0000
 41
0.5029
 42
0.0038
 43
1.0000
 50
0.0000
  0
INSERT
  8
21
  2
RECT
 10
0.3601
 20
1.4935
 30
0.0000
 41
0.5867
 42
0.0038
 43
1.0000
 50
0.0000
  0
INSERT
  8
21
  2
RECT
 10
-0.6534
 20
1.4973
 30
0.0000
 41
0.5106
 42
0.0038
 43
1.0000
 50
0.0000
  0
INSERT
  8
21
  2
RECT
 10
0.3582
 20
1.4973
 30
0.0000
 41
0.5905
 42
0.0038
 43
1.0000
 50
0.0000
  0
INSERT
  8
21
  2
RECT
 10
-0.6477
 20
1.5011
 30
0.0000
 41
0.5220
 42
0.0038
 43
1.0000
 50
0.0000
  0
INSERT
  8
21
  2
RECT
 10
0.3563
 20
1.5011
 30
0.0000
 41
0.5943
 42
0.0038
 43
1.0000
 50
0.0000
  0
INSERT
  8
21
  2
RECT
 10
-0.6420
 20
1.5050
 30
0.0000
 41
0.5334
 42
0.0039
 43
1.0000
 50
0.0000
  0
INSERT
  8
21
  2
RECT
 10
0.3543
 20
1.5050
 30
0.0000
 41
0.5982
 42
0.0039
 43
1.0000
 50
0.0000
  0
INSERT
  8
21
  2
RECT
 10
-0.6344
 20
1.5088
 30
0.0000
 41
0.5410
 42
0.0038
 43
1.0000
 50
0.0000
  0
INSERT
  8
21
  2
RECT
 10
0.3524
 20
1.5088
 30
0.0000
 41
0.6020
 42
0.0038
 43
1.0000
 50
0.0000
  0
INSERT
  8
21
  2
RECT
 10
-0.6287
 20
1.5126
 30
0.0000
 41
0.5525
 42
0.0038
 43
1.0000
 50
0.0000
  0
INSERT
  8
21
  2
RECT
 10
0.3505
 20
1.5126
 30
0.0000
 41
0.6058
 42
0.0038
 43
1.0000
 50
0.0000
  0
INSERT
  8
21
  2
RECT
 10
-0.6249
 20
1.5164
 30
0.0000
 41
0.5601
 42
0.0038
 43
1.0000
 50
0.0000
  0
INSERT
  8
21
  2
RECT
 10
0.3505
 20
1.5164
 30
0.0000
 41
0.6058
 42
0.0038
 43
1.0000
 50
0.0000
  0
INSERT
  8
21
  2
RECT
 10
-0.6191
 20
1.5202
 30
0.0000
 41
0.5715
 42
0.0038
 43
1.0000
 50
0.0000
  0
INSERT
  8
21
  2
RECT
 10
0.3486
 20
1.5202
 30
0.0000
 41
0.6096
 42
0.0038
 43
1.0000
 50
0.0000
  0
INSERT
  8
21
  2
RECT
 10
-0.6135
 20
1.5240
 30
0.0000
 41
0.5753
 42
0.0038
 43
1.0000
 50
0.0000
  0
INSERT
  8
21
  2
RECT
 10
0.3467
 20
1.5240
 30
0.0000
 41
0.6134
 42
0.0038
 43
1.0000
 50
0.0000
  0
INSERT
  8
21
  2
RECT
 10
-0.6096
 20
1.5278
 30
0.0000
 41
0.5830
 42
0.0038
 43
1.0000
 50
0.0000
  0
INSERT
  8
21
  2
RECT
 10
0.3448
 20
1.5278
 30
0.0000
 41
0.6172
 42
0.0038
 43
1.0000
 50
0.0000
  0
INSERT
  8
21
  2
RECT
 10
-0.6039
 20
1.5316
 30
0.0000
 41
0.5944
 42
0.0038
 43
1.0000
 50
0.0000
  0
INSERT
  8
21
  2
RECT
 10
0.3429
 20
1.5316
 30
0.0000
 41
0.6210
 42
0.0038
 43
1.0000
 50
0.0000
  0
INSERT
  8
21
  2
RECT
 10
-0.5982
 20
1.5354
 30
0.0000
 41
0.5982
 42
0.0038
 43
1.0000
 50
0.0000
  0
INSERT
  8
21
  2
RECT
 10
0.3429
 20
1.5354
 30
0.0000
 41
0.6210
 42
0.0038
 43
1.0000
 50
0.0000
  0
INSERT
  8
21
  2
RECT
 10
-0.5944
 20
1.5392
 30
0.0000
 41
0.6058
 42
0.0038
 43
1.0000
 50
0.0000
  0
INSERT
  8
21
  2
RECT
 10
0.3410
 20
1.5392
 30
0.0000
 41
0.6248
 42
0.0038
 43
1.0000
 50
0.0000
  0
INSERT
  8
21
  2
RECT
 10
-0.5906
 20
1.5431
 30
0.0000
 41
0.6135
 42
0.0039
 43
1.0000
 50
0.0000
  0
INSERT
  8
21
  2
RECT
 10
0.3391
 20
1.5431
 30
0.0000
 41
0.6286
 42
0.0039
 43
1.0000
 50
0.0000
  0
INSERT
  8
21
  2
RECT
 10
-0.5867
 20
1.5469
 30
0.0000
 41
0.6134
 42
0.0038
 43
1.0000
 50
0.0000
  0
INSERT
  8
21
  2
RECT
 10
0.3372
 20
1.5469
 30
0.0000
 41
0.6324
 42
0.0038
 43
1.0000
 50
0.0000
  0
INSERT
  8
21
  2
RECT
 10
-0.5829
 20
1.5507
 30
0.0000
 41
0.6210
 42
0.0038
 43
1.0000
 50
0.0000
  0
INSERT
  8
21
  2
RECT
 10
0.3372
 20
1.5507
 30
0.0000
 41
0.6324
 42
0.0038
 43
1.0000
 50
0.0000
  0
INSERT
  8
21
  2
RECT
 10
-0.5791
 20
1.5545
 30
0.0000
 41
0.6286
 42
0.0038
 43
1.0000
 50
0.0000
  0
INSERT
  8
21
  2
RECT
 10
0.3352
 20
1.5545
 30
0.0000
 41
0.6363
 42
0.0038
 43
1.0000
 50
0.0000
  0
INSERT
  8
21
  2
RECT
 10
-0.5734
 20
1.5583
 30
0.0000
 41
0.6324
 42
0.0038
 43
1.0000
 50
0.0000
  0
INSERT
  8
21
  2
RECT
 10
0.3334
 20
1.5583
 30
0.0000
 41
0.6401
 42
0.0038
 43
1.0000
 50
0.0000
  0
INSERT
  8
21
  2
RECT
 10
-0.5715
 20
1.5621
 30
0.0000
 41
0.6362
 42
0.0038
 43
1.0000
 50
0.0000
  0
INSERT
  8
21
  2
RECT
 10
0.3315
 20
1.5621
 30
0.0000
 41
0.6439
 42
0.0038
 43
1.0000
 50
0.0000
  0
INSERT
  8
21
  2
RECT
 10
-0.5676
 20
1.5659
 30
0.0000
 41
0.6439
 42
0.0038
 43
1.0000
 50
0.0000
  0
INSERT
  8
21
  2
RECT
 10
0.3315
 20
1.5659
 30
0.0000
 41
0.6439
 42
0.0038
 43
1.0000
 50
0.0000
  0
INSERT
  8
21
  2
RECT
 10
-0.5620
 20
1.5697
 30
0.0000
 41
0.6477
 42
0.0038
 43
1.0000
 50
0.0000
  0
INSERT
  8
21
  2
RECT
 10
0.3296
 20
1.5697
 30
0.0000
 41
0.6477
 42
0.0038
 43
1.0000
 50
0.0000
  0
INSERT
  8
21
  2
RECT
 10
-0.5601
 20
1.5735
 30
0.0000
 41
0.6515
 42
0.0038
 43
1.0000
 50
0.0000
  0
INSERT
  8
21
  2
RECT
 10
0.3276
 20
1.5735
 30
0.0000
 41
0.6515
 42
0.0038
 43
1.0000
 50
0.0000
  0
INSERT
  8
21
  2
RECT
 10
-0.5563
 20
1.5773
 30
0.0000
 41
0.6591
 42
0.0038
 43
1.0000
 50
0.0000
  0
INSERT
  8
21
  2
RECT
 10
0.3276
 20
1.5773
 30
0.0000
 41
0.6515
 42
0.0038
 43
1.0000
 50
0.0000
  0
INSERT
  8
21
  2
RECT
 10
-0.5524
 20
1.5812
 30
0.0000
 41
0.6591
 42
0.0039
 43
1.0000
 50
0.0000
  0
INSERT
  8
21
  2
RECT
 10
0.3258
 20
1.5812
 30
0.0000
 41
0.6553
 42
0.0039
 43
1.0000
 50
0.0000
  0
INSERT
  8
21
  2
RECT
 10
-0.5505
 20
1.5850
 30
0.0000
 41
0.6629
 42
0.0038
 43
1.0000
 50
0.0000
  0
INSERT
  8
21
  2
RECT
 10
0.3258
 20
1.5850
 30
0.0000
 41
0.6553
 42
0.0038
 43
1.0000
 50
0.0000
  0
INSERT
  8
21
  2
RECT
 10
-0.5468
 20
1.5888
 30
0.0000
 41
0.6705
 42
0.0038
 43
1.0000
 50
0.0000
  0
INSERT
  8
21
  2
RECT
 10
0.3239
 20
1.5888
 30
0.0000
 41
0.6591
 42
0.0038
 43
1.0000
 50
0.0000
  0
INSERT
  8
21
  2
RECT
 10
-0.5429
 20
1.5926
 30
0.0000
 41
0.6706
 42
0.0038
 43
1.0000
 50
0.0000
  0
INSERT
  8
21
  2
RECT
 10
0.3220
 20
1.5926
 30
0.0000
 41
0.6629
 42
0.0038
 43
1.0000
 50
0.0000
  0
INSERT
  8
21
  2
RECT
 10
-0.5410
 20
1.5964
 30
0.0000
 41
0.6744
 42
0.0038
 43
1.0000
 50
0.0000
  0
INSERT
  8
21
  2
RECT
 10
0.3220
 20
1.5964
 30
0.0000
 41
0.6629
 42
0.0038
 43
1.0000
 50
0.0000
  0
INSERT
  8
21
  2
RECT
 10
-0.5372
 20
1.6002
 30
0.0000
 41
0.6820
 42
0.0038
 43
1.0000
 50
0.0000
  0
INSERT
  8
21
  2
RECT
 10
0.3201
 20
1.6002
 30
0.0000
 41
0.6667
 42
0.0038
 43
1.0000
 50
0.0000
  0
INSERT
  8
21
  2
RECT
 10
-0.5334
 20
1.6040
 30
0.0000
 41
0.6820
 42
0.0038
 43
1.0000
 50
0.0000
  0
INSERT
  8
21
  2
RECT
 10
0.3201
 20
1.6040
 30
0.0000
 41
0.6667
 42
0.0038
 43
1.0000
 50
0.0000
  0
INSERT
  8
21
  2
RECT
 10
-0.5315
 20
1.6078
 30
0.0000
 41
0.6858
 42
0.0038
 43
1.0000
 50
0.0000
  0
INSERT
  8
21
  2
RECT
 10
0.3181
 20
1.6078
 30
0.0000
 41
0.6705
 42
0.0038
 43
1.0000
 50
0.0000
  0
INSERT
  8
21
  2
RECT
 10
-0.5296
 20
1.6116
 30
0.0000
 41
0.6896
 42
0.0038
 43
1.0000
 50
0.0000
  0
INSERT
  8
21
  2
RECT
 10
0.3181
 20
1.6116
 30
0.0000
 41
0.6705
 42
0.0038
 43
1.0000
 50
0.0000
  0
INSERT
  8
21
  2
RECT
 10
-0.5258
 20
1.6154
 30
0.0000
 41
0.6896
 42
0.0038
 43
1.0000
 50
0.0000
  0
INSERT
  8
21
  2
RECT
 10
0.3162
 20
1.6154
 30
0.0000
 41
0.6744
 42
0.0038
 43
1.0000
 50
0.0000
  0
INSERT
  8
21
  2
RECT
 10
-0.5239
 20
1.6193
 30
0.0000
 41
0.6934
 42
0.0039
 43
1.0000
 50
0.0000
  0
INSERT
  8
21
  2
RECT
 10
0.3162
 20
1.6193
 30
0.0000
 41
0.6744
 42
0.0039
 43
1.0000
 50
0.0000
  0
INSERT
  8
21
  2
RECT
 10
-0.5220
 20
1.6231
 30
0.0000
 41
0.6972
 42
0.0038
 43
1.0000
 50
0.0000
  0
INSERT
  8
21
  2
RECT
 10
0.3143
 20
1.6231
 30
0.0000
 41
0.6782
 42
0.0038
 43
1.0000
 50
0.0000
  0
INSERT
  8
21
  2
RECT
 10
-0.5181
 20
1.6269
 30
0.0000
 41
0.6973
 42
0.0038
 43
1.0000
 50
0.0000
  0
INSERT
  8
21
  2
RECT
 10
0.3143
 20
1.6269
 30
0.0000
 41
0.6782
 42
0.0038
 43
1.0000
 50
0.0000
  0
INSERT
  8
21
  2
RECT
 10
-0.5162
 20
1.6307
 30
0.0000
 41
0.7011
 42
0.0038
 43
1.0000
 50
0.0000
  0
INSERT
  8
21
  2
RECT
 10
0.3143
 20
1.6307
 30
0.0000
 41
0.6782
 42
0.0038
 43
1.0000
 50
0.0000
  0
INSERT
  8
21
  2
RECT
 10
-0.5143
 20
1.6345
 30
0.0000
 41
0.7049
 42
0.0038
 43
1.0000
 50
0.0000
  0
INSERT
  8
21
  2
RECT
 10
0.3124
 20
1.6345
 30
0.0000
 41
0.6820
 42
0.0038
 43
1.0000
 50
0.0000
  0
INSERT
  8
21
  2
RECT
 10
-0.5106
 20
1.6383
 30
0.0000
 41
0.7049
 42
0.0038
 43
1.0000
 50
0.0000
  0
INSERT
  8
21
  2
RECT
 10
0.3124
 20
1.6383
 30
0.0000
 41
0.6820
 42
0.0038
 43
1.0000
 50
0.0000
  0
INSERT
  8
21
  2
RECT
 10
-0.5087
 20
1.6421
 30
0.0000
 41
0.7087
 42
0.0038
 43
1.0000
 50
0.0000
  0
INSERT
  8
21
  2
RECT
 10
0.3105
 20
1.6421
 30
0.0000
 41
0.6858
 42
0.0038
 43
1.0000
 50
0.0000
  0
INSERT
  8
21
  2
RECT
 10
-0.5068
 20
1.6459
 30
0.0000
 41
0.7125
 42
0.0038
 43
1.0000
 50
0.0000
  0
INSERT
  8
21
  2
RECT
 10
0.3105
 20
1.6459
 30
0.0000
 41
0.6858
 42
0.0038
 43
1.0000
 50
0.0000
  0
INSERT
  8
21
  2
RECT
 10
-0.5030
 20
1.6497
 30
0.0000
 41
0.7125
 42
0.0038
 43
1.0000
 50
0.0000
  0
INSERT
  8
21
  2
RECT
 10
0.3105
 20
1.6497
 30
0.0000
 41
0.6858
 42
0.0038
 43
1.0000
 50
0.0000
  0
INSERT
  8
21
  2
RECT
 10
-0.5010
 20
1.6535
 30
0.0000
 41
0.7163
 42
0.0038
 43
1.0000
 50
0.0000
  0
INSERT
  8
21
  2
RECT
 10
0.3086
 20
1.6535
 30
0.0000
 41
0.6896
 42
0.0038
 43
1.0000
 50
0.0000
  0
INSERT
  8
21
  2
RECT
 10
-0.4992
 20
1.6574
 30
0.0000
 41
0.7201
 42
0.0039
 43
1.0000
 50
0.0000
  0
INSERT
  8
21
  2
RECT
 10
0.3086
 20
1.6574
 30
0.0000
 41
0.6896
 42
0.0039
 43
1.0000
 50
0.0000
  0
INSERT
  8
21
  2
RECT
 10
-0.4953
 20
1.6612
 30
0.0000
 41
0.7200
 42
0.0038
 43
1.0000
 50
0.0000
  0
INSERT
  8
21
  2
RECT
 10
0.3067
 20
1.6612
 30
0.0000
 41
0.6934
 42
0.0038
 43
1.0000
 50
0.0000
  0
INSERT
  8
21
  2
RECT
 10
-0.4934
 20
1.6650
 30
0.0000
 41
0.7239
 42
0.0038
 43
1.0000
 50
0.0000
  0
INSERT
  8
21
  2
RECT
 10
0.3067
 20
1.6650
 30
0.0000
 41
0.6934
 42
0.0038
 43
1.0000
 50
0.0000
  0
INSERT
  8
21
  2
RECT
 10
-0.4934
 20
1.6688
 30
0.0000
 41
0.7239
 42
0.0038
 43
1.0000
 50
0.0000
  0
INSERT
  8
21
  2
RECT
 10
0.3067
 20
1.6688
 30
0.0000
 41
0.6934
 42
0.0038
 43
1.0000
 50
0.0000
  0
INSERT
  8
21
  2
RECT
 10
-0.4896
 20
1.6726
 30
0.0000
 41
0.7239
 42
0.0038
 43
1.0000
 50
0.0000
  0
INSERT
  8
21
  2
RECT
 10
0.3067
 20
1.6726
 30
0.0000
 41
0.6934
 42
0.0038
 43
1.0000
 50
0.0000
  0
INSERT
  8
21
  2
RECT
 10
-0.4877
 20
1.6764
 30
0.0000
 41
0.7277
 42
0.0038
 43
1.0000
 50
0.0000
  0
INSERT
  8
21
  2
RECT
 10
0.3048
 20
1.6764
 30
0.0000
 41
0.6972
 42
0.0038
 43
1.0000
 50
0.0000
  0
INSERT
  8
21
  2
RECT
 10
-0.4858
 20
1.6802
 30
0.0000
 41
0.7315
 42
0.0038
 43
1.0000
 50
0.0000
  0
INSERT
  8
21
  2
RECT
 10
0.3048
 20
1.6802
 30
0.0000
 41
0.6972
 42
0.0038
 43
1.0000
 50
0.0000
  0
INSERT
  8
21
  2
RECT
 10
-0.4839
 20
1.6840
 30
0.0000
 41
0.7277
 42
0.0038
 43
1.0000
 50
0.0000
  0
INSERT
  8
21
  2
RECT
 10
0.3048
 20
1.6840
 30
0.0000
 41
0.6972
 42
0.0038
 43
1.0000
 50
0.0000
  0
INSERT
  8
21
  2
RECT
 10
-0.4820
 20
1.6878
 30
0.0000
 41
0.7315
 42
0.0038
 43
1.0000
 50
0.0000
  0
INSERT
  8
21
  2
RECT
 10
0.3029
 20
1.6878
 30
0.0000
 41
0.7010
 42
0.0038
 43
1.0000
 50
0.0000
  0
INSERT
  8
21
  2
RECT
 10
-0.4801
 20
1.6916
 30
0.0000
 41
0.7353
 42
0.0038
 43
1.0000
 50
0.0000
  0
INSERT
  8
21
  2
RECT
 10
0.3029
 20
1.6916
 30
0.0000
 41
0.7010
 42
0.0038
 43
1.0000
 50
0.0000
  0
INSERT
  8
21
  2
RECT
 10
-0.4782
 20
1.6955
 30
0.0000
 41
0.7315
 42
0.0039
 43
1.0000
 50
0.0000
  0
INSERT
  8
21
  2
RECT
 10
0.3029
 20
1.6955
 30
0.0000
 41
0.7010
 42
0.0039
 43
1.0000
 50
0.0000
  0
INSERT
  8
21
  2
RECT
 10
-0.4763
 20
1.6993
 30
0.0000
 41
0.7353
 42
0.0038
 43
1.0000
 50
0.0000
  0
INSERT
  8
21
  2
RECT
 10
0.3029
 20
1.6993
 30
0.0000
 41
0.7010
 42
0.0038
 43
1.0000
 50
0.0000
  0
INSERT
  8
21
  2
RECT
 10
-0.4763
 20
1.7031
 30
0.0000
 41
0.7353
 42
0.0038
 43
1.0000
 50
0.0000
  0
INSERT
  8
21
  2
RECT
 10
0.3010
 20
1.7031
 30
0.0000
 41
0.7048
 42
0.0038
 43
1.0000
 50
0.0000
  0
INSERT
  8
21
  2
RECT
 10
-0.4725
 20
1.7069
 30
0.0000
 41
0.7353
 42
0.0038
 43
1.0000
 50
0.0000
  0
INSERT
  8
21
  2
RECT
 10
0.2991
 20
1.7069
 30
0.0000
 41
0.7010
 42
0.0038
 43
1.0000
 50
0.0000
  0
INSERT
  8
21
  2
RECT
 10
-0.4706
 20
1.7107
 30
0.0000
 41
0.7391
 42
0.0038
 43
1.0000
 50
0.0000
  0
INSERT
  8
21
  2
RECT
 10
0.2991
 20
1.7107
 30
0.0000
 41
0.7010
 42
0.0038
 43
1.0000
 50
0.0000
  0
INSERT
  8
21
  2
RECT
 10
-0.4706
 20
1.7145
 30
0.0000
 41
0.7391
 42
0.0038
 43
1.0000
 50
0.0000
  0
INSERT
  8
21
  2
RECT
 10
0.2991
 20
1.7145
 30
0.0000
 41
0.7010
 42
0.0038
 43
1.0000
 50
0.0000
  0
INSERT
  8
21
  2
RECT
 10
-0.4667
 20
1.7183
 30
0.0000
 41
0.7391
 42
0.0038
 43
1.0000
 50
0.0000
  0
INSERT
  8
21
  2
RECT
 10
0.2991
 20
1.7183
 30
0.0000
 41
0.7010
 42
0.0038
 43
1.0000
 50
0.0000
  0
INSERT
  8
21
  2
RECT
 10
-0.4667
 20
1.7221
 30
0.0000
 41
0.7391
 42
0.0038
 43
1.0000
 50
0.0000
  0
INSERT
  8
21
  2
RECT
 10
0.2991
 20
1.7221
 30
0.0000
 41
0.7010
 42
0.0038
 43
1.0000
 50
0.0000
  0
INSERT
  8
21
  2
RECT
 10
-0.4648
 20
1.7259
 30
0.0000
 41
0.7430
 42
0.0038
 43
1.0000
 50
0.0000
  0
INSERT
  8
21
  2
RECT
 10
0.2972
 20
1.7259
 30
0.0000
 41
0.7048
 42
0.0038
 43
1.0000
 50
0.0000
  0
INSERT
  8
21
  2
RECT
 10
-0.4629
 20
1.7297
 30
0.0000
 41
0.7392
 42
0.0038
 43
1.0000
 50
0.0000
  0
INSERT
  8
21
  2
RECT
 10
0.2972
 20
1.7297
 30
0.0000
 41
0.7048
 42
0.0038
 43
1.0000
 50
0.0000
  0
INSERT
  8
21
  2
RECT
 10
-0.4610
 20
1.7336
 30
0.0000
 41
0.7430
 42
0.0039
 43
1.0000
 50
0.0000
  0
INSERT
  8
21
  2
RECT
 10
0.2972
 20
1.7336
 30
0.0000
 41
0.7048
 42
0.0039
 43
1.0000
 50
0.0000
  0
INSERT
  8
21
  2
RECT
 10
-0.4610
 20
1.7374
 30
0.0000
 41
0.7430
 42
0.0038
 43
1.0000
 50
0.0000
  0
INSERT
  8
21
  2
RECT
 10
0.2972
 20
1.7374
 30
0.0000
 41
0.7048
 42
0.0038
 43
1.0000
 50
0.0000
  0
INSERT
  8
21
  2
RECT
 10
-0.4572
 20
1.7412
 30
0.0000
 41
0.7430
 42
0.0038
 43
1.0000
 50
0.0000
  0
INSERT
  8
21
  2
RECT
 10
0.2972
 20
1.7412
 30
0.0000
 41
0.7048
 42
0.0038
 43
1.0000
 50
0.0000
  0
INSERT
  8
21
  2
RECT
 10
-0.4572
 20
1.7450
 30
0.0000
 41
0.7430
 42
0.0038
 43
1.0000
 50
0.0000
  0
INSERT
  8
21
  2
RECT
 10
0.2972
 20
1.7450
 30
0.0000
 41
0.7048
 42
0.0038
 43
1.0000
 50
0.0000
  0
INSERT
  8
21
  2
RECT
 10
-0.4572
 20
1.7488
 30
0.0000
 41
0.7430
 42
0.0038
 43
1.0000
 50
0.0000
  0
INSERT
  8
21
  2
RECT
 10
0.2972
 20
1.7488
 30
0.0000
 41
0.7048
 42
0.0038
 43
1.0000
 50
0.0000
  0
INSERT
  8
21
  2
RECT
 10
-0.4534
 20
1.7526
 30
0.0000
 41
0.7430
 42
0.0038
 43
1.0000
 50
0.0000
  0
INSERT
  8
21
  2
RECT
 10
0.2953
 20
1.7526
 30
0.0000
 41
0.7010
 42
0.0038
 43
1.0000
 50
0.0000
  0
INSERT
  8
21
  2
RECT
 10
-0.4534
 20
1.7564
 30
0.0000
 41
0.7430
 42
0.0038
 43
1.0000
 50
0.0000
  0
INSERT
  8
21
  2
RECT
 10
0.2953
 20
1.7564
 30
0.0000
 41
0.7010
 42
0.0038
 43
1.0000
 50
0.0000
  0
INSERT
  8
21
  2
RECT
 10
-0.4515
 20
1.7602
 30
0.0000
 41
0.7468
 42
0.0038
 43
1.0000
 50
0.0000
  0
INSERT
  8
21
  2
RECT
 10
0.2953
 20
1.7602
 30
0.0000
 41
0.7010
 42
0.0038
 43
1.0000
 50
0.0000
  0
INSERT
  8
21
  2
RECT
 10
-0.4496
 20
1.7640
 30
0.0000
 41
0.7430
 42
0.0038
 43
1.0000
 50
0.0000
  0
INSERT
  8
21
  2
RECT
 10
0.2953
 20
1.7640
 30
0.0000
 41
0.7010
 42
0.0038
 43
1.0000
 50
0.0000
  0
INSERT
  8
21
  2
RECT
 10
-0.4496
 20
1.7678
 30
0.0000
 41
0.7430
 42
0.0038
 43
1.0000
 50
0.0000
  0
INSERT
  8
21
  2
RECT
 10
0.2953
 20
1.7678
 30
0.0000
 41
0.7010
 42
0.0038
 43
1.0000
 50
0.0000
  0
INSERT
  8
21
  2
RECT
 10
-0.4477
 20
1.7717
 30
0.0000
 41
0.7468
 42
0.0039
 43
1.0000
 50
0.0000
  0
INSERT
  8
21
  2
RECT
 10
0.2953
 20
1.7717
 30
0.0000
 41
0.7010
 42
0.0039
 43
1.0000
 50
0.0000
  0
INSERT
  8
21
  2
RECT
 10
-0.4458
 20
1.7755
 30
0.0000
 41
0.7429
 42
0.0038
 43
1.0000
 50
0.0000
  0
INSERT
  8
21
  2
RECT
 10
0.2953
 20
1.7755
 30
0.0000
 41
0.7010
 42
0.0038
 43
1.0000
 50
0.0000
  0
INSERT
  8
21
  2
RECT
 10
-0.4458
 20
1.7793
 30
0.0000
 41
0.7429
 42
0.0038
 43
1.0000
 50
0.0000
  0
INSERT
  8
21
  2
RECT
 10
0.2934
 20
1.7793
 30
0.0000
 41
0.6972
 42
0.0038
 43
1.0000
 50
0.0000
  0
INSERT
  8
21
  2
RECT
 10
-0.4439
 20
1.7831
 30
0.0000
 41
0.7467
 42
0.0038
 43
1.0000
 50
0.0000
  0
INSERT
  8
21
  2
RECT
 10
0.2934
 20
1.7831
 30
0.0000
 41
0.6972
 42
0.0038
 43
1.0000
 50
0.0000
  0
INSERT
  8
21
  2
RECT
 10
-0.4420
 20
1.7869
 30
0.0000
 41
0.7429
 42
0.0038
 43
1.0000
 50
0.0000
  0
INSERT
  8
21
  2
RECT
 10
0.2934
 20
1.7869
 30
0.0000
 41
0.6972
 42
0.0038
 43
1.0000
 50
0.0000
  0
INSERT
  8
21
  2
RECT
 10
-0.4420
 20
1.7907
 30
0.0000
 41
0.7429
 42
0.0038
 43
1.0000
 50
0.0000
  0
INSERT
  8
21
  2
RECT
 10
0.2934
 20
1.7907
 30
0.0000
 41
0.6972
 42
0.0038
 43
1.0000
 50
0.0000
  0
INSERT
  8
21
  2
RECT
 10
-0.4420
 20
1.7945
 30
0.0000
 41
0.7429
 42
0.0038
 43
1.0000
 50
0.0000
  0
INSERT
  8
21
  2
RECT
 10
0.2934
 20
1.7945
 30
0.0000
 41
0.6972
 42
0.0038
 43
1.0000
 50
0.0000
  0
INSERT
  8
21
  2
RECT
 10
-0.4400
 20
1.7983
 30
0.0000
 41
0.7467
 42
0.0038
 43
1.0000
 50
0.0000
  0
INSERT
  8
21
  2
RECT
 10
0.2915
 20
1.7983
 30
0.0000
 41
0.6934
 42
0.0038
 43
1.0000
 50
0.0000
  0
INSERT
  8
21
  2
RECT
 10
-0.4382
 20
1.8021
 30
0.0000
 41
0.7429
 42
0.0038
 43
1.0000
 50
0.0000
  0
INSERT
  8
21
  2
RECT
 10
0.2915
 20
1.8021
 30
0.0000
 41
0.6934
 42
0.0038
 43
1.0000
 50
0.0000
  0
INSERT
  8
21
  2
RECT
 10
-0.4382
 20
1.8059
 30
0.0000
 41
0.7429
 42
0.0038
 43
1.0000
 50
0.0000
  0
INSERT
  8
21
  2
RECT
 10
0.2915
 20
1.8059
 30
0.0000
 41
0.6934
 42
0.0038
 43
1.0000
 50
0.0000
  0
INSERT
  8
21
  2
RECT
 10
-0.4363
 20
1.8098
 30
0.0000
 41
0.7467
 42
0.0039
 43
1.0000
 50
0.0000
  0
INSERT
  8
21
  2
RECT
 10
0.2915
 20
1.8098
 30
0.0000
 41
0.6934
 42
0.0039
 43
1.0000
 50
0.0000
  0
INSERT
  8
21
  2
RECT
 10
-0.4344
 20
1.8136
 30
0.0000
 41
0.7429
 42
0.0038
 43
1.0000
 50
0.0000
  0
INSERT
  8
21
  2
RECT
 10
0.2896
 20
1.8136
 30
0.0000
 41
0.6896
 42
0.0038
 43
1.0000
 50
0.0000
  0
INSERT
  8
21
  2
RECT
 10
-0.4344
 20
1.8174
 30
0.0000
 41
0.7429
 42
0.0038
 43
1.0000
 50
0.0000
  0
INSERT
  8
21
  2
RECT
 10
0.2896
 20
1.8174
 30
0.0000
 41
0.6896
 42
0.0038
 43
1.0000
 50
0.0000
  0
INSERT
  8
21
  2
RECT
 10
-0.4325
 20
1.8212
 30
0.0000
 41
0.7467
 42
0.0038
 43
1.0000
 50
0.0000
  0
INSERT
  8
21
  2
RECT
 10
0.2896
 20
1.8212
 30
0.0000
 41
0.6896
 42
0.0038
 43
1.0000
 50
0.0000
  0
INSERT
  8
21
  2
RECT
 10
-0.4306
 20
1.8250
 30
0.0000
 41
0.7429
 42
0.0038
 43
1.0000
 50
0.0000
  0
INSERT
  8
21
  2
RECT
 10
0.2896
 20
1.8250
 30
0.0000
 41
0.6896
 42
0.0038
 43
1.0000
 50
0.0000
  0
INSERT
  8
21
  2
RECT
 10
-0.4306
 20
1.8288
 30
0.0000
 41
0.7429
 42
0.0038
 43
1.0000
 50
0.0000
  0
INSERT
  8
21
  2
RECT
 10
0.2877
 20
1.8288
 30
0.0000
 41
0.6858
 42
0.0038
 43
1.0000
 50
0.0000
  0
INSERT
  8
21
  2
RECT
 10
-0.4306
 20
1.8326
 30
0.0000
 41
0.7429
 42
0.0038
 43
1.0000
 50
0.0000
  0
INSERT
  8
21
  2
RECT
 10
0.2877
 20
1.8326
 30
0.0000
 41
0.6858
 42
0.0038
 43
1.0000
 50
0.0000
  0
INSERT
  8
21
  2
RECT
 10
-0.0838
 20
1.8364
 30
0.0000
 41
1.4288
 42
0.0038
 43
1.0000
 50
0.0000
  0
INSERT
  8
21
  2
RECT
 10
-0.0838
 20
1.8402
 30
0.0000
 41
1.4288
 42
0.0038
 43
1.0000
 50
0.0000
  0
INSERT
  8
21
  2
RECT
 10
-0.0858
 20
1.8440
 30
0.0000
 41
1.4249
 42
0.0038
 43
1.0000
 50
0.0000
  0
INSERT
  8
21
  2
RECT
 10
-0.0839
 20
1.8478
 30
0.0000
 41
1.4211
 42
0.0039
 43
1.0000
 50
0.0000
  0
INSERT
  8
21
  2
RECT
 10
-0.0839
 20
1.8517
 30
0.0000
 41
1.4211
 42
0.0038
 43
1.0000
 50
0.0000
  0
INSERT
  8
21
  2
RECT
 10
-0.0858
 20
1.8555
 30
0.0000
 41
1.4173
 42
0.0038
 43
1.0000
 50
0.0000
  0
INSERT
  8
21
  2
RECT
 10
-0.0839
 20
1.8593
 30
0.0000
 41
1.4135
 42
0.0038
 43
1.0000
 50
0.0000
  0
INSERT
  8
21
  2
RECT
 10
-0.0839
 20
1.8631
 30
0.0000
 41
1.4135
 42
0.0038
 43
1.0000
 50
0.0000
  0
INSERT
  8
21
  2
RECT
 10
-0.0858
 20
1.8669
 30
0.0000
 41
1.4097
 42
0.0038
 43
1.0000
 50
0.0000
  0
INSERT
  8
21
  2
RECT
 10
-0.0839
 20
1.8707
 30
0.0000
 41
1.4059
 42
0.0038
 43
1.0000
 50
0.0000
  0
INSERT
  8
21
  2
RECT
 10
-0.0839
 20
1.8745
 30
0.0000
 41
1.4059
 42
0.0038
 43
1.0000
 50
0.0000
  0
INSERT
  8
21
  2
RECT
 10
-0.0858
 20
1.8783
 30
0.0000
 41
1.4021
 42
0.0038
 43
1.0000
 50
0.0000
  0
INSERT
  8
21
  2
RECT
 10
-0.0839
 20
1.8821
 30
0.0000
 41
1.3983
 42
0.0038
 43
1.0000
 50
0.0000
  0
INSERT
  8
21
  2
RECT
 10
-0.2915
 20
1.8860
 30
0.0000
 41
0.9830
 42
0.0039
 43
1.0000
 50
0.0000
  0
INSERT
  8
21
  2
RECT
 10
0.4191
 20
1.8860
 30
0.0000
 41
0.3848
 42
0.0039
 43
1.0000
 50
0.0000
  0
INSERT
  8
21
  2
RECT
 10
-0.2972
 20
1.8898
 30
0.0000
 41
0.9716
 42
0.0038
 43
1.0000
 50
0.0000
  0
INSERT
  8
21
  2
RECT
 10
0.4229
 20
1.8898
 30
0.0000
 41
0.3772
 42
0.0038
 43
1.0000
 50
0.0000
  0
INSERT
  8
21
  2
RECT
 10
-0.2972
 20
1.8936
 30
0.0000
 41
0.9639
 42
0.0038
 43
1.0000
 50
0.0000
  0
INSERT
  8
21
  2
RECT
 10
0.4248
 20
1.8936
 30
0.0000
 41
0.3734
 42
0.0038
 43
1.0000
 50
0.0000
  0
INSERT
  8
21
  2
RECT
 10
-0.3009
 20
1.8974
 30
0.0000
 41
0.9563
 42
0.0038
 43
1.0000
 50
0.0000
  0
INSERT
  8
21
  2
RECT
 10
0.4248
 20
1.8974
 30
0.0000
 41
0.3658
 42
0.0038
 43
1.0000
 50
0.0000
  0
INSERT
  8
21
  2
RECT
 10
-0.3029
 20
1.9012
 30
0.0000
 41
0.9525
 42
0.0038
 43
1.0000
 50
0.0000
  0
INSERT
  8
21
  2
RECT
 10
0.4248
 20
1.9012
 30
0.0000
 41
0.3658
 42
0.0038
 43
1.0000
 50
0.0000
  0
INSERT
  8
21
  2
RECT
 10
-0.3048
 20
1.9050
 30
0.0000
 41
0.9410
 42
0.0038
 43
1.0000
 50
0.0000
  0
INSERT
  8
21
  2
RECT
 10
0.4248
 20
1.9050
 30
0.0000
 41
0.3582
 42
0.0038
 43
1.0000
 50
0.0000
  0
INSERT
  8
21
  2
RECT
 10
-0.3067
 20
1.9088
 30
0.0000
 41
0.9372
 42
0.0038
 43
1.0000
 50
0.0000
  0
INSERT
  8
21
  2
RECT
 10
0.4248
 20
1.9088
 30
0.0000
 41
0.3582
 42
0.0038
 43
1.0000
 50
0.0000
  0
INSERT
  8
21
  2
RECT
 10
-0.3086
 20
1.9126
 30
0.0000
 41
0.9334
 42
0.0038
 43
1.0000
 50
0.0000
  0
INSERT
  8
21
  2
RECT
 10
0.4229
 20
1.9126
 30
0.0000
 41
0.3544
 42
0.0038
 43
1.0000
 50
0.0000
  0
INSERT
  8
21
  2
RECT
 10
-0.3086
 20
1.9164
 30
0.0000
 41
0.9258
 42
0.0038
 43
1.0000
 50
0.0000
  0
INSERT
  8
21
  2
RECT
 10
0.4249
 20
1.9164
 30
0.0000
 41
0.3505
 42
0.0038
 43
1.0000
 50
0.0000
  0
INSERT
  8
21
  2
RECT
 10
-0.3105
 20
1.9202
 30
0.0000
 41
0.9220
 42
0.0038
 43
1.0000
 50
0.0000
  0
INSERT
  8
21
  2
RECT
 10
0.4229
 20
1.9202
 30
0.0000
 41
0.3467
 42
0.0038
 43
1.0000
 50
0.0000
  0
INSERT
  8
21
  2
RECT
 10
-0.3124
 20
1.9241
 30
0.0000
 41
0.9182
 42
0.0039
 43
1.0000
 50
0.0000
  0
INSERT
  8
21
  2
RECT
 10
0.4229
 20
1.9241
 30
0.0000
 41
0.3467
 42
0.0039
 43
1.0000
 50
0.0000
  0
INSERT
  8
21
  2
RECT
 10
-0.3124
 20
1.9279
 30
0.0000
 41
0.9106
 42
0.0038
 43
1.0000
 50
0.0000
  0
INSERT
  8
21
  2
RECT
 10
0.4211
 20
1.9279
 30
0.0000
 41
0.3429
 42
0.0038
 43
1.0000
 50
0.0000
  0
INSERT
  8
21
  2
RECT
 10
-0.3143
 20
1.9317
 30
0.0000
 41
0.9068
 42
0.0038
 43
1.0000
 50
0.0000
  0
INSERT
  8
21
  2
RECT
 10
0.4211
 20
1.9317
 30
0.0000
 41
0.3429
 42
0.0038
 43
1.0000
 50
0.0000
  0
INSERT
  8
21
  2
RECT
 10
-0.3162
 20
1.9355
 30
0.0000
 41
0.9030
 42
0.0038
 43
1.0000
 50
0.0000
  0
INSERT
  8
21
  2
RECT
 10
0.4191
 20
1.9355
 30
0.0000
 41
0.3390
 42
0.0038
 43
1.0000
 50
0.0000
  0
INSERT
  8
21
  2
RECT
 10
-0.3163
 20
1.9393
 30
0.0000
 41
0.8953
 42
0.0038
 43
1.0000
 50
0.0000
  0
INSERT
  8
21
  2
RECT
 10
0.4191
 20
1.9393
 30
0.0000
 41
0.3390
 42
0.0038
 43
1.0000
 50
0.0000
  0
INSERT
  8
21
  2
RECT
 10
-0.3163
 20
1.9431
 30
0.0000
 41
0.8953
 42
0.0038
 43
1.0000
 50
0.0000
  0
INSERT
  8
21
  2
RECT
 10
0.4172
 20
1.9431
 30
0.0000
 41
0.3352
 42
0.0038
 43
1.0000
 50
0.0000
  0
INSERT
  8
21
  2
RECT
 10
-0.3163
 20
1.9469
 30
0.0000
 41
0.8877
 42
0.0038
 43
1.0000
 50
0.0000
  0
INSERT
  8
21
  2
RECT
 10
0.4172
 20
1.9469
 30
0.0000
 41
0.3352
 42
0.0038
 43
1.0000
 50
0.0000
  0
INSERT
  8
21
  2
RECT
 10
-0.3181
 20
1.9507
 30
0.0000
 41
0.8839
 42
0.0038
 43
1.0000
 50
0.0000
  0
INSERT
  8
21
  2
RECT
 10
0.4153
 20
1.9507
 30
0.0000
 41
0.3314
 42
0.0038
 43
1.0000
 50
0.0000
  0
INSERT
  8
21
  2
RECT
 10
-0.3201
 20
1.9545
 30
0.0000
 41
0.8801
 42
0.0038
 43
1.0000
 50
0.0000
  0
INSERT
  8
21
  2
RECT
 10
0.4134
 20
1.9545
 30
0.0000
 41
0.3276
 42
0.0038
 43
1.0000
 50
0.0000
  0
INSERT
  8
21
  2
RECT
 10
-0.3181
 20
1.9583
 30
0.0000
 41
0.8763
 42
0.0038
 43
1.0000
 50
0.0000
  0
INSERT
  8
21
  2
RECT
 10
0.4134
 20
1.9583
 30
0.0000
 41
0.3276
 42
0.0038
 43
1.0000
 50
0.0000
  0
INSERT
  8
21
  2
RECT
 10
-0.5220
 20
1.9622
 30
0.0000
 41
0.4686
 42
0.0039
 43
1.0000
 50
0.0000
  0
INSERT
  8
21
  2
RECT
 10
-0.0819
 20
1.9622
 30
0.0000
 41
0.3962
 42
0.0039
 43
1.0000
 50
0.0000
  0
INSERT
  8
21
  2
RECT
 10
0.4115
 20
1.9622
 30
0.0000
 41
0.3238
 42
0.0039
 43
1.0000
 50
0.0000
  0
INSERT
  8
21
  2
RECT
 10
-0.5277
 20
1.9660
 30
0.0000
 41
0.4496
 42
0.0038
 43
1.0000
 50
0.0000
  0
INSERT
  8
21
  2
RECT
 10
-0.0724
 20
1.9660
 30
0.0000
 41
0.3696
 42
0.0038
 43
1.0000
 50
0.0000
  0
INSERT
  8
21
  2
RECT
 10
0.4077
 20
1.9660
 30
0.0000
 41
0.3239
 42
0.0038
 43
1.0000
 50
0.0000
  0
INSERT
  8
21
  2
RECT
 10
-0.5315
 20
1.9698
 30
0.0000
 41
0.4420
 42
0.0038
 43
1.0000
 50
0.0000
  0
INSERT
  8
21
  2
RECT
 10
-0.0667
 20
1.9698
 30
0.0000
 41
0.3581
 42
0.0038
 43
1.0000
 50
0.0000
  0
INSERT
  8
21
  2
RECT
 10
0.4077
 20
1.9698
 30
0.0000
 41
0.3239
 42
0.0038
 43
1.0000
 50
0.0000
  0
INSERT
  8
21
  2
RECT
 10
-0.5315
 20
1.9736
 30
0.0000
 41
0.4344
 42
0.0038
 43
1.0000
 50
0.0000
  0
INSERT
  8
21
  2
RECT
 10
-0.0648
 20
1.9736
 30
0.0000
 41
0.3467
 42
0.0038
 43
1.0000
 50
0.0000
  0
INSERT
  8
21
  2
RECT
 10
0.4057
 20
1.9736
 30
0.0000
 41
0.3201
 42
0.0038
 43
1.0000
 50
0.0000
  0
INSERT
  8
21
  2
RECT
 10
-0.5315
 20
1.9774
 30
0.0000
 41
0.4344
 42
0.0038
 43
1.0000
 50
0.0000
  0
INSERT
  8
21
  2
RECT
 10
-0.0629
 20
1.9774
 30
0.0000
 41
0.3353
 42
0.0038
 43
1.0000
 50
0.0000
  0
INSERT
  8
21
  2
RECT
 10
0.4039
 20
1.9774
 30
0.0000
 41
0.3163
 42
0.0038
 43
1.0000
 50
0.0000
  0
INSERT
  8
21
  2
RECT
 10
-0.5315
 20
1.9812
 30
0.0000
 41
0.4268
 42
0.0038
 43
1.0000
 50
0.0000
  0
INSERT
  8
21
  2
RECT
 10
-0.0591
 20
1.9812
 30
0.0000
 41
0.3277
 42
0.0038
 43
1.0000
 50
0.0000
  0
INSERT
  8
21
  2
RECT
 10
0.4020
 20
1.9812
 30
0.0000
 41
0.3125
 42
0.0038
 43
1.0000
 50
0.0000
  0
INSERT
  8
21
  2
RECT
 10
-0.5315
 20
1.9850
 30
0.0000
 41
0.4268
 42
0.0038
 43
1.0000
 50
0.0000
  0
INSERT
  8
21
  2
RECT
 10
-0.0571
 20
1.9850
 30
0.0000
 41
0.3163
 42
0.0038
 43
1.0000
 50
0.0000
  0
INSERT
  8
21
  2
RECT
 10
0.4020
 20
1.9850
 30
0.0000
 41
0.3125
 42
0.0038
 43
1.0000
 50
0.0000
  0
INSERT
  8
21
  2
RECT
 10
-0.5296
 20
1.9888
 30
0.0000
 41
0.4229
 42
0.0038
 43
1.0000
 50
0.0000
  0
INSERT
  8
21
  2
RECT
 10
-0.0533
 20
1.9888
 30
0.0000
 41
0.3086
 42
0.0038
 43
1.0000
 50
0.0000
  0
INSERT
  8
21
  2
RECT
 10
0.3982
 20
1.9888
 30
0.0000
 41
0.3125
 42
0.0038
 43
1.0000
 50
0.0000
  0
INSERT
  8
21
  2
RECT
 10
-0.5296
 20
1.9926
 30
0.0000
 41
0.4229
 42
0.0038
 43
1.0000
 50
0.0000
  0
INSERT
  8
21
  2
RECT
 10
-0.0533
 20
1.9926
 30
0.0000
 41
0.3010
 42
0.0038
 43
1.0000
 50
0.0000
  0
INSERT
  8
21
  2
RECT
 10
0.3962
 20
1.9926
 30
0.0000
 41
0.3086
 42
0.0038
 43
1.0000
 50
0.0000
  0
INSERT
  8
21
  2
RECT
 10
-0.5277
 20
1.9964
 30
0.0000
 41
0.4191
 42
0.0038
 43
1.0000
 50
0.0000
  0
INSERT
  8
21
  2
RECT
 10
-0.0495
 20
1.9964
 30
0.0000
 41
0.2934
 42
0.0038
 43
1.0000
 50
0.0000
  0
INSERT
  8
21
  2
RECT
 10
0.3943
 20
1.9964
 30
0.0000
 41
0.3048
 42
0.0038
 43
1.0000
 50
0.0000
  0
INSERT
  8
21
  2
RECT
 10
-0.5277
 20
2.0003
 30
0.0000
 41
0.4191
 42
0.0039
 43
1.0000
 50
0.0000
  0
INSERT
  8
21
  2
RECT
 10
-0.0496
 20
2.0003
 30
0.0000
 41
0.2857
 42
0.0039
 43
1.0000
 50
0.0000
  0
INSERT
  8
21
  2
RECT
 10
0.3924
 20
2.0003
 30
0.0000
 41
0.3010
 42
0.0039
 43
1.0000
 50
0.0000
  0
INSERT
  8
21
  2
RECT
 10
-0.5258
 20
2.0041
 30
0.0000
 41
0.4153
 42
0.0038
 43
1.0000
 50
0.0000
  0
INSERT
  8
21
  2
RECT
 10
-0.0477
 20
2.0041
 30
0.0000
 41
0.2743
 42
0.0038
 43
1.0000
 50
0.0000
  0
INSERT
  8
21
  2
RECT
 10
0.3886
 20
2.0041
 30
0.0000
 41
0.3010
 42
0.0038
 43
1.0000
 50
0.0000
  0
INSERT
  8
21
  2
RECT
 10
-0.5258
 20
2.0079
 30
0.0000
 41
0.4153
 42
0.0038
 43
1.0000
 50
0.0000
  0
INSERT
  8
21
  2
RECT
 10
-0.0457
 20
2.0079
 30
0.0000
 41
0.2705
 42
0.0038
 43
1.0000
 50
0.0000
  0
INSERT
  8
21
  2
RECT
 10
0.3867
 20
2.0079
 30
0.0000
 41
0.2972
 42
0.0038
 43
1.0000
 50
0.0000
  0
INSERT
  8
21
  2
RECT
 10
-0.5239
 20
2.0117
 30
0.0000
 41
0.4115
 42
0.0038
 43
1.0000
 50
0.0000
  0
INSERT
  8
21
  2
RECT
 10
-0.0457
 20
2.0117
 30
0.0000
 41
0.2629
 42
0.0038
 43
1.0000
 50
0.0000
  0
INSERT
  8
21
  2
RECT
 10
0.3848
 20
2.0117
 30
0.0000
 41
0.2934
 42
0.0038
 43
1.0000
 50
0.0000
  0
INSERT
  8
21
  2
RECT
 10
-0.5239
 20
2.0155
 30
0.0000
 41
0.4115
 42
0.0038
 43
1.0000
 50
0.0000
  0
INSERT
  8
21
  2
RECT
 10
-0.0439
 20
2.0155
 30
0.0000
 41
0.2591
 42
0.0038
 43
1.0000
 50
0.0000
  0
INSERT
  8
21
  2
RECT
 10
0.3810
 20
2.0155
 30
0.0000
 41
0.2934
 42
0.0038
 43
1.0000
 50
0.0000
  0
INSERT
  8
21
  2
RECT
 10
-0.5220
 20
2.0193
 30
0.0000
 41
0.4077
 42
0.0038
 43
1.0000
 50
0.0000
  0
INSERT
  8
21
  2
RECT
 10
-0.0419
 20
2.0193
 30
0.0000
 41
0.2476
 42
0.0038
 43
1.0000
 50
0.0000
  0
INSERT
  8
21
  2
RECT
 10
0.3791
 20
2.0193
 30
0.0000
 41
0.2896
 42
0.0038
 43
1.0000
 50
0.0000
  0
INSERT
  8
21
  2
RECT
 10
-0.5181
 20
2.0231
 30
0.0000
 41
0.4077
 42
0.0038
 43
1.0000
 50
0.0000
  0
INSERT
  8
21
  2
RECT
 10
-0.0400
 20
2.0231
 30
0.0000
 41
0.2438
 42
0.0038
 43
1.0000
 50
0.0000
  0
INSERT
  8
21
  2
RECT
 10
0.3772
 20
2.0231
 30
0.0000
 41
0.2858
 42
0.0038
 43
1.0000
 50
0.0000
  0
INSERT
  8
21
  2
RECT
 10
-0.5181
 20
2.0269
 30
0.0000
 41
0.4077
 42
0.0038
 43
1.0000
 50
0.0000
  0
INSERT
  8
21
  2
RECT
 10
-0.0381
 20
2.0269
 30
0.0000
 41
0.2400
 42
0.0038
 43
1.0000
 50
0.0000
  0
INSERT
  8
21
  2
RECT
 10
0.3734
 20
2.0269
 30
0.0000
 41
0.2858
 42
0.0038
 43
1.0000
 50
0.0000
  0
INSERT
  8
21
  2
RECT
 10
-0.5162
 20
2.0307
 30
0.0000
 41
0.4039
 42
0.0038
 43
1.0000
 50
0.0000
  0
INSERT
  8
21
  2
RECT
 10
-0.0381
 20
2.0307
 30
0.0000
 41
0.2324
 42
0.0038
 43
1.0000
 50
0.0000
  0
INSERT
  8
21
  2
RECT
 10
0.3715
 20
2.0307
 30
0.0000
 41
0.2819
 42
0.0038
 43
1.0000
 50
0.0000
  0
INSERT
  8
21
  2
RECT
 10
-0.5143
 20
2.0345
 30
0.0000
 41
0.4077
 42
0.0038
 43
1.0000
 50
0.0000
  0
INSERT
  8
21
  2
RECT
 10
-0.0362
 20
2.0345
 30
0.0000
 41
0.2286
 42
0.0038
 43
1.0000
 50
0.0000
  0
INSERT
  8
21
  2
RECT
 10
0.3677
 20
2.0345
 30
0.0000
 41
0.2819
 42
0.0038
 43
1.0000
 50
0.0000
  0
INSERT
  8
21
  2
RECT
 10
-0.5125
 20
2.0383
 30
0.0000
 41
0.4039
 42
0.0039
 43
1.0000
 50
0.0000
  0
INSERT
  8
21
  2
RECT
 10
-0.0362
 20
2.0383
 30
0.0000
 41
0.2210
 42
0.0039
 43
1.0000
 50
0.0000
  0
INSERT
  8
21
  2
RECT
 10
0.3658
 20
2.0383
 30
0.0000
 41
0.2781
 42
0.0039
 43
1.0000
 50
0.0000
  0
INSERT
  8
21
  2
RECT
 10
-0.5106
 20
2.0422
 30
0.0000
 41
0.4001
 42
0.0038
 43
1.0000
 50
0.0000
  0
INSERT
  8
21
  2
RECT
 10
-0.0343
 20
2.0422
 30
0.0000
 41
0.2172
 42
0.0038
 43
1.0000
 50
0.0000
  0
INSERT
  8
21
  2
RECT
 10
0.3619
 20
2.0422
 30
0.0000
 41
0.2705
 42
0.0038
 43
1.0000
 50
0.0000
  0
INSERT
  8
21
  2
RECT
 10
-0.5087
 20
2.0460
 30
0.0000
 41
0.4039
 42
0.0038
 43
1.0000
 50
0.0000
  0
INSERT
  8
21
  2
RECT
 10
-0.0343
 20
2.0460
 30
0.0000
 41
0.2096
 42
0.0038
 43
1.0000
 50
0.0000
  0
INSERT
  8
21
  2
RECT
 10
0.3582
 20
2.0460
 30
0.0000
 41
0.2705
 42
0.0038
 43
1.0000
 50
0.0000
  0
INSERT
  8
21
  2
RECT
 10
-0.5068
 20
2.0498
 30
0.0000
 41
0.4001
 42
0.0038
 43
1.0000
 50
0.0000
  0
INSERT
  8
21
  2
RECT
 10
-0.0324
 20
2.0498
 30
0.0000
 41
0.2058
 42
0.0038
 43
1.0000
 50
0.0000
  0
INSERT
  8
21
  2
RECT
 10
0.3563
 20
2.0498
 30
0.0000
 41
0.2667
 42
0.0038
 43
1.0000
 50
0.0000
  0
INSERT
  8
21
  2
RECT
 10
0.6038
 20
2.0498
 30
0.0000
 41
0.0381
 42
0.0038
 43
1.0000
 50
0.0000
  0
INSERT
  8
21
  2
RECT
 10
-0.5029
 20
2.0536
 30
0.0000
 41
0.4000
 42
0.0038
 43
1.0000
 50
0.0000
  0
INSERT
  8
21
  2
RECT
 10
-0.0305
 20
2.0536
 30
0.0000
 41
0.2019
 42
0.0038
 43
1.0000
 50
0.0000
  0
INSERT
  8
21
  2
RECT
 10
0.3506
 20
2.0536
 30
0.0000
 41
0.2629
 42
0.0038
 43
1.0000
 50
0.0000
  0
INSERT
  8
21
  2
RECT
 10
0.6058
 20
2.0536
 30
0.0000
 41
0.1105
 42
0.0038
 43
1.0000
 50
0.0000
  0
INSERT
  8
21
  2
RECT
 10
-0.5029
 20
2.0574
 30
0.0000
 41
0.4000
 42
0.0038
 43
1.0000
 50
0.0000
  0
INSERT
  8
21
  2
RECT
 10
-0.0305
 20
2.0574
 30
0.0000
 41
0.1943
 42
0.0038
 43
1.0000
 50
0.0000
  0
INSERT
  8
21
  2
RECT
 10
0.3487
 20
2.0574
 30
0.0000
 41
0.2591
 42
0.0038
 43
1.0000
 50
0.0000
  0
INSERT
  8
21
  2
RECT
 10
0.6058
 20
2.0574
 30
0.0000
 41
0.1486
 42
0.0038
 43
1.0000
 50
0.0000
  0
INSERT
  8
21
  2
RECT
 10
-0.4991
 20
2.0612
 30
0.0000
 41
0.4000
 42
0.0038
 43
1.0000
 50
0.0000
  0
INSERT
  8
21
  2
RECT
 10
-0.0286
 20
2.0612
 30
0.0000
 41
0.1905
 42
0.0038
 43
1.0000
 50
0.0000
  0
INSERT
  8
21
  2
RECT
 10
0.3448
 20
2.0612
 30
0.0000
 41
0.2590
 42
0.0038
 43
1.0000
 50
0.0000
  0
INSERT
  8
21
  2
RECT
 10
0.6077
 20
2.0612
 30
0.0000
 41
0.1828
 42
0.0038
 43
1.0000
 50
0.0000
  0
INSERT
  8
21
  2
RECT
 10
-0.4972
 20
2.0650
 30
0.0000
 41
0.3962
 42
0.0038
 43
1.0000
 50
0.0000
  0
INSERT
  8
21
  2
RECT
 10
-0.0267
 20
2.0650
 30
0.0000
 41
0.1867
 42
0.0038
 43
1.0000
 50
0.0000
  0
INSERT
  8
21
  2
RECT
 10
0.3410
 20
2.0650
 30
0.0000
 41
0.2514
 42
0.0038
 43
1.0000
 50
0.0000
  0
INSERT
  8
21
  2
RECT
 10
0.6077
 20
2.0650
 30
0.0000
 41
0.2134
 42
0.0038
 43
1.0000
 50
0.0000
  0
INSERT
  8
21
  2
RECT
 10
-0.4934
 20
2.0688
 30
0.0000
 41
0.3962
 42
0.0038
 43
1.0000
 50
0.0000
  0
INSERT
  8
21
  2
RECT
 10
-0.0267
 20
2.0688
 30
0.0000
 41
0.1791
 42
0.0038
 43
1.0000
 50
0.0000
  0
INSERT
  8
21
  2
RECT
 10
0.3372
 20
2.0688
 30
0.0000
 41
0.2514
 42
0.0038
 43
1.0000
 50
0.0000
  0
INSERT
  8
21
  2
RECT
 10
0.6077
 20
2.0688
 30
0.0000
 41
0.2362
 42
0.0038
 43
1.0000
 50
0.0000
  0
INSERT
  8
21
  2
RECT
 10
-0.4915
 20
2.0726
 30
0.0000
 41
0.4000
 42
0.0038
 43
1.0000
 50
0.0000
  0
INSERT
  8
21
  2
RECT
 10
-0.0267
 20
2.0726
 30
0.0000
 41
0.1791
 42
0.0038
 43
1.0000
 50
0.0000
  0
INSERT
  8
21
  2
RECT
 10
0.3334
 20
2.0726
 30
0.0000
 41
0.2438
 42
0.0038
 43
1.0000
 50
0.0000
  0
INSERT
  8
21
  2
RECT
 10
0.6077
 20
2.0726
 30
0.0000
 41
0.2590
 42
0.0038
 43
1.0000
 50
0.0000
  0
INSERT
  8
21
  2
RECT
 10
-0.4896
 20
2.0764
 30
0.0000
 41
0.3962
 42
0.0039
 43
1.0000
 50
0.0000
  0
INSERT
  8
21
  2
RECT
 10
-0.0248
 20
2.0764
 30
0.0000
 41
0.1753
 42
0.0039
 43
1.0000
 50
0.0000
  0
INSERT
  8
21
  2
RECT
 10
0.3296
 20
2.0764
 30
0.0000
 41
0.2439
 42
0.0039
 43
1.0000
 50
0.0000
  0
INSERT
  8
21
  2
RECT
 10
0.6077
 20
2.0764
 30
0.0000
 41
0.2820
 42
0.0039
 43
1.0000
 50
0.0000
  0
INSERT
  8
21
  2
RECT
 10
-0.4858
 20
2.0803
 30
0.0000
 41
0.3962
 42
0.0038
 43
1.0000
 50
0.0000
  0
INSERT
  8
21
  2
RECT
 10
-0.0248
 20
2.0803
 30
0.0000
 41
0.1677
 42
0.0038
 43
1.0000
 50
0.0000
  0
INSERT
  8
21
  2
RECT
 10
0.3258
 20
2.0803
 30
0.0000
 41
0.2363
 42
0.0038
 43
1.0000
 50
0.0000
  0
INSERT
  8
21
  2
RECT
 10
0.6096
 20
2.0803
 30
0.0000
 41
0.3010
 42
0.0038
 43
1.0000
 50
0.0000
  0
INSERT
  8
21
  2
RECT
 10
-0.4820
 20
2.0841
 30
0.0000
 41
0.3963
 42
0.0038
 43
1.0000
 50
0.0000
  0
INSERT
  8
21
  2
RECT
 10
-0.0229
 20
2.0841
 30
0.0000
 41
0.1639
 42
0.0038
 43
1.0000
 50
0.0000
  0
INSERT
  8
21
  2
RECT
 10
0.3220
 20
2.0841
 30
0.0000
 41
0.2363
 42
0.0038
 43
1.0000
 50
0.0000
  0
INSERT
  8
21
  2
RECT
 10
0.6077
 20
2.0841
 30
0.0000
 41
0.3200
 42
0.0038
 43
1.0000
 50
0.0000
  0
INSERT
  8
21
  2
RECT
 10
-0.4801
 20
2.0879
 30
0.0000
 41
0.3925
 42
0.0038
 43
1.0000
 50
0.0000
  0
INSERT
  8
21
  2
RECT
 10
-0.0209
 20
2.0879
 30
0.0000
 41
0.1601
 42
0.0038
 43
1.0000
 50
0.0000
  0
INSERT
  8
21
  2
RECT
 10
0.3181
 20
2.0879
 30
0.0000
 41
0.2286
 42
0.0038
 43
1.0000
 50
0.0000
  0
INSERT
  8
21
  2
RECT
 10
0.6077
 20
2.0879
 30
0.0000
 41
0.3429
 42
0.0038
 43
1.0000
 50
0.0000
  0
INSERT
  8
21
  2
RECT
 10
-0.4782
 20
2.0917
 30
0.0000
 41
0.3963
 42
0.0038
 43
1.0000
 50
0.0000
  0
INSERT
  8
21
  2
RECT
 10
-0.0209
 20
2.0917
 30
0.0000
 41
0.1601
 42
0.0038
 43
1.0000
 50
0.0000
  0
INSERT
  8
21
  2
RECT
 10
0.4934
 20
2.0917
 30
0.0000
 41
0.5868
 42
0.0038
 43
1.0000
 50
0.0000
  0
INSERT
  8
21
  2
RECT
 10
-0.4744
 20
2.0955
 30
0.0000
 41
0.3963
 42
0.0038
 43
1.0000
 50
0.0000
  0
INSERT
  8
21
  2
RECT
 10
-0.0210
 20
2.0955
 30
0.0000
 41
0.1524
 42
0.0038
 43
1.0000
 50
0.0000
  0
INSERT
  8
21
  2
RECT
 10
0.4953
 20
2.0955
 30
0.0000
 41
0.5982
 42
0.0038
 43
1.0000
 50
0.0000
  0
INSERT
  8
21
  2
RECT
 10
-0.4725
 20
2.0993
 30
0.0000
 41
0.3925
 42
0.0038
 43
1.0000
 50
0.0000
  0
INSERT
  8
21
  2
RECT
 10
-0.0191
 20
2.0993
 30
0.0000
 41
0.1485
 42
0.0038
 43
1.0000
 50
0.0000
  0
INSERT
  8
21
  2
RECT
 10
0.4991
 20
2.0993
 30
0.0000
 41
0.6058
 42
0.0038
 43
1.0000
 50
0.0000
  0
INSERT
  8
21
  2
RECT
 10
-0.4686
 20
2.1031
 30
0.0000
 41
0.3924
 42
0.0038
 43
1.0000
 50
0.0000
  0
INSERT
  8
21
  2
RECT
 10
-0.0191
 20
2.1031
 30
0.0000
 41
0.1485
 42
0.0038
 43
1.0000
 50
0.0000
  0
INSERT
  8
21
  2
RECT
 10
0.5029
 20
2.1031
 30
0.0000
 41
0.6210
 42
0.0038
 43
1.0000
 50
0.0000
  0
INSERT
  8
21
  2
RECT
 10
-0.4648
 20
2.1069
 30
0.0000
 41
0.3924
 42
0.0038
 43
1.0000
 50
0.0000
  0
INSERT
  8
21
  2
RECT
 10
-0.0172
 20
2.1069
 30
0.0000
 41
0.1447
 42
0.0038
 43
1.0000
 50
0.0000
  0
INSERT
  8
21
  2
RECT
 10
0.5048
 20
2.1069
 30
0.0000
 41
0.6248
 42
0.0038
 43
1.0000
 50
0.0000
  0
INSERT
  8
21
  2
RECT
 10
-0.4610
 20
2.1107
 30
0.0000
 41
0.3924
 42
0.0038
 43
1.0000
 50
0.0000
  0
INSERT
  8
21
  2
RECT
 10
-0.0153
 20
2.1107
 30
0.0000
 41
0.1409
 42
0.0038
 43
1.0000
 50
0.0000
  0
INSERT
  8
21
  2
RECT
 10
0.5068
 20
2.1107
 30
0.0000
 41
0.6363
 42
0.0038
 43
1.0000
 50
0.0000
  0
INSERT
  8
21
  2
RECT
 10
-0.4572
 20
2.1145
 30
0.0000
 41
0.3924
 42
0.0039
 43
1.0000
 50
0.0000
  0
INSERT
  8
21
  2
RECT
 10
-0.0153
 20
2.1145
 30
0.0000
 41
0.1409
 42
0.0039
 43
1.0000
 50
0.0000
  0
INSERT
  8
21
  2
RECT
 10
0.5087
 20
2.1145
 30
0.0000
 41
0.6477
 42
0.0039
 43
1.0000
 50
0.0000
  0
INSERT
  8
21
  2
RECT
 10
-0.4553
 20
2.1184
 30
0.0000
 41
0.3886
 42
0.0038
 43
1.0000
 50
0.0000
  0
INSERT
  8
21
  2
RECT
 10
-0.0153
 20
2.1184
 30
0.0000
 41
0.1333
 42
0.0038
 43
1.0000
 50
0.0000
  0
INSERT
  8
21
  2
RECT
 10
0.5125
 20
2.1184
 30
0.0000
 41
0.6553
 42
0.0038
 43
1.0000
 50
0.0000
  0
INSERT
  8
21
  2
RECT
 10
-0.4515
 20
2.1222
 30
0.0000
 41
0.3886
 42
0.0038
 43
1.0000
 50
0.0000
  0
INSERT
  8
21
  2
RECT
 10
-0.0153
 20
2.1222
 30
0.0000
 41
0.1333
 42
0.0038
 43
1.0000
 50
0.0000
  0
INSERT
  8
21
  2
RECT
 10
0.5143
 20
2.1222
 30
0.0000
 41
0.6667
 42
0.0038
 43
1.0000
 50
0.0000
  0
INSERT
  8
21
  2
RECT
 10
-0.4477
 20
2.1260
 30
0.0000
 41
0.3886
 42
0.0038
 43
1.0000
 50
0.0000
  0
INSERT
  8
21
  2
RECT
 10
-0.0134
 20
2.1260
 30
0.0000
 41
0.1295
 42
0.0038
 43
1.0000
 50
0.0000
  0
INSERT
  8
21
  2
RECT
 10
0.5143
 20
2.1260
 30
0.0000
 41
0.6743
 42
0.0038
 43
1.0000
 50
0.0000
  0
INSERT
  8
21
  2
RECT
 10
-0.4439
 20
2.1298
 30
0.0000
 41
0.3886
 42
0.0038
 43
1.0000
 50
0.0000
  0
INSERT
  8
21
  2
RECT
 10
-0.0134
 20
2.1298
 30
0.0000
 41
0.1295
 42
0.0038
 43
1.0000
 50
0.0000
  0
INSERT
  8
21
  2
RECT
 10
0.5163
 20
2.1298
 30
0.0000
 41
0.6858
 42
0.0038
 43
1.0000
 50
0.0000
  0
INSERT
  8
21
  2
RECT
 10
-0.4400
 20
2.1336
 30
0.0000
 41
0.3887
 42
0.0038
 43
1.0000
 50
0.0000
  0
INSERT
  8
21
  2
RECT
 10
-0.0115
 20
2.1336
 30
0.0000
 41
0.1257
 42
0.0038
 43
1.0000
 50
0.0000
  0
INSERT
  8
21
  2
RECT
 10
0.5201
 20
2.1336
 30
0.0000
 41
0.6934
 42
0.0038
 43
1.0000
 50
0.0000
  0
INSERT
  8
21
  2
RECT
 10
-0.4363
 20
2.1374
 30
0.0000
 41
0.3887
 42
0.0038
 43
1.0000
 50
0.0000
  0
INSERT
  8
21
  2
RECT
 10
-0.0115
 20
2.1374
 30
0.0000
 41
0.1257
 42
0.0038
 43
1.0000
 50
0.0000
  0
INSERT
  8
21
  2
RECT
 10
0.5201
 20
2.1374
 30
0.0000
 41
0.7011
 42
0.0038
 43
1.0000
 50
0.0000
  0
INSERT
  8
21
  2
RECT
 10
-0.4324
 20
2.1412
 30
0.0000
 41
0.3886
 42
0.0038
 43
1.0000
 50
0.0000
  0
INSERT
  8
21
  2
RECT
 10
-0.0096
 20
2.1412
 30
0.0000
 41
0.1219
 42
0.0038
 43
1.0000
 50
0.0000
  0
INSERT
  8
21
  2
RECT
 10
0.5220
 20
2.1412
 30
0.0000
 41
0.7125
 42
0.0038
 43
1.0000
 50
0.0000
  0
INSERT
  8
21
  2
RECT
 10
-0.4267
 20
2.1450
 30
0.0000
 41
0.3848
 42
0.0038
 43
1.0000
 50
0.0000
  0
INSERT
  8
21
  2
RECT
 10
-0.0096
 20
2.1450
 30
0.0000
 41
0.1219
 42
0.0038
 43
1.0000
 50
0.0000
  0
INSERT
  8
21
  2
RECT
 10
0.5220
 20
2.1450
 30
0.0000
 41
0.7201
 42
0.0038
 43
1.0000
 50
0.0000
  0
INSERT
  8
21
  2
RECT
 10
-0.4229
 20
2.1488
 30
0.0000
 41
0.3848
 42
0.0038
 43
1.0000
 50
0.0000
  0
INSERT
  8
21
  2
RECT
 10
-0.0077
 20
2.1488
 30
0.0000
 41
0.1181
 42
0.0038
 43
1.0000
 50
0.0000
  0
INSERT
  8
21
  2
RECT
 10
0.5220
 20
2.1488
 30
0.0000
 41
0.7277
 42
0.0038
 43
1.0000
 50
0.0000
  0
INSERT
  8
21
  2
RECT
 10
-0.4191
 20
2.1526
 30
0.0000
 41
0.3848
 42
0.0039
 43
1.0000
 50
0.0000
  0
INSERT
  8
21
  2
RECT
 10
-0.0077
 20
2.1526
 30
0.0000
 41
0.1181
 42
0.0039
 43
1.0000
 50
0.0000
  0
INSERT
  8
21
  2
RECT
 10
0.5239
 20
2.1526
 30
0.0000
 41
0.7391
 42
0.0039
 43
1.0000
 50
0.0000
  0
INSERT
  8
21
  2
RECT
 10
-0.4153
 20
2.1565
 30
0.0000
 41
0.3848
 42
0.0038
 43
1.0000
 50
0.0000
  0
INSERT
  8
21
  2
RECT
 10
-0.0057
 20
2.1565
 30
0.0000
 41
0.1143
 42
0.0038
 43
1.0000
 50
0.0000
  0
INSERT
  8
21
  2
RECT
 10
0.5239
 20
2.1565
 30
0.0000
 41
0.7468
 42
0.0038
 43
1.0000
 50
0.0000
  0
INSERT
  8
21
  2
RECT
 10
-0.4096
 20
2.1603
 30
0.0000
 41
0.3810
 42
0.0038
 43
1.0000
 50
0.0000
  0
INSERT
  8
21
  2
RECT
 10
-0.0039
 20
2.1603
 30
0.0000
 41
0.1181
 42
0.0038
 43
1.0000
 50
0.0000
  0
INSERT
  8
21
  2
RECT
 10
0.5239
 20
2.1603
 30
0.0000
 41
0.7544
 42
0.0038
 43
1.0000
 50
0.0000
  0
INSERT
  8
21
  2
RECT
 10
-0.4058
 20
2.1641
 30
0.0000
 41
0.3810
 42
0.0038
 43
1.0000
 50
0.0000
  0
INSERT
  8
21
  2
RECT
 10
-0.0039
 20
2.1641
 30
0.0000
 41
0.1181
 42
0.0038
 43
1.0000
 50
0.0000
  0
INSERT
  8
21
  2
RECT
 10
0.5258
 20
2.1641
 30
0.0000
 41
0.7658
 42
0.0038
 43
1.0000
 50
0.0000
  0
INSERT
  8
21
  2
RECT
 10
-0.3981
 20
2.1679
 30
0.0000
 41
0.3810
 42
0.0038
 43
1.0000
 50
0.0000
  0
INSERT
  8
21
  2
RECT
 10
-0.0039
 20
2.1679
 30
0.0000
 41
0.1181
 42
0.0038
 43
1.0000
 50
0.0000
  0
INSERT
  8
21
  2
RECT
 10
0.5258
 20
2.1679
 30
0.0000
 41
0.7734
 42
0.0038
 43
1.0000
 50
0.0000
  0
INSERT
  8
21
  2
RECT
 10
-0.3943
 20
2.1717
 30
0.0000
 41
0.3810
 42
0.0038
 43
1.0000
 50
0.0000
  0
INSERT
  8
21
  2
RECT
 10
-0.0020
 20
2.1717
 30
0.0000
 41
0.1143
 42
0.0038
 43
1.0000
 50
0.0000
  0
INSERT
  8
21
  2
RECT
 10
0.5277
 20
2.1717
 30
0.0000
 41
0.7848
 42
0.0038
 43
1.0000
 50
0.0000
  0
INSERT
  8
21
  2
RECT
 10
-0.3886
 20
2.1755
 30
0.0000
 41
0.3772
 42
0.0038
 43
1.0000
 50
0.0000
  0
INSERT
  8
21
  2
RECT
 10
0.0000
 20
2.1755
 30
0.0000
 41
0.1182
 42
0.0038
 43
1.0000
 50
0.0000
  0
INSERT
  8
21
  2
RECT
 10
0.5277
 20
2.1755
 30
0.0000
 41
0.7925
 42
0.0038
 43
1.0000
 50
0.0000
  0
INSERT
  8
21
  2
RECT
 10
-0.3829
 20
2.1793
 30
0.0000
 41
0.3734
 42
0.0038
 43
1.0000
 50
0.0000
  0
INSERT
  8
21
  2
RECT
 10
0.0000
 20
2.1793
 30
0.0000
 41
0.1182
 42
0.0038
 43
1.0000
 50
0.0000
  0
INSERT
  8
21
  2
RECT
 10
0.5258
 20
2.1793
 30
0.0000
 41
0.8039
 42
0.0038
 43
1.0000
 50
0.0000
  0
INSERT
  8
21
  2
RECT
 10
-0.3753
 20
2.1831
 30
0.0000
 41
0.3734
 42
0.0038
 43
1.0000
 50
0.0000
  0
INSERT
  8
21
  2
RECT
 10
0.0019
 20
2.1831
 30
0.0000
 41
0.1220
 42
0.0038
 43
1.0000
 50
0.0000
  0
INSERT
  8
21
  2
RECT
 10
0.5277
 20
2.1831
 30
0.0000
 41
0.8154
 42
0.0038
 43
1.0000
 50
0.0000
  0
INSERT
  8
21
  2
RECT
 10
-0.3715
 20
2.1869
 30
0.0000
 41
0.3734
 42
0.0038
 43
1.0000
 50
0.0000
  0
INSERT
  8
21
  2
RECT
 10
0.0038
 20
2.1869
 30
0.0000
 41
0.1258
 42
0.0038
 43
1.0000
 50
0.0000
  0
INSERT
  8
21
  2
RECT
 10
0.5258
 20
2.1869
 30
0.0000
 41
0.8268
 42
0.0038
 43
1.0000
 50
0.0000
  0
INSERT
  8
21
  2
RECT
 10
-0.3619
 20
2.1907
 30
0.0000
 41
0.3695
 42
0.0039
 43
1.0000
 50
0.0000
  0
INSERT
  8
21
  2
RECT
 10
0.0076
 20
2.1907
 30
0.0000
 41
0.1334
 42
0.0039
 43
1.0000
 50
0.0000
  0
INSERT
  8
21
  2
RECT
 10
0.5258
 20
2.1907
 30
0.0000
 41
0.8420
 42
0.0039
 43
1.0000
 50
0.0000
  0
INSERT
  8
21
  2
RECT
 10
-0.3563
 20
2.1946
 30
0.0000
 41
0.3657
 42
0.0038
 43
1.0000
 50
0.0000
  0
INSERT
  8
21
  2
RECT
 10
0.4458
 20
2.1946
 30
0.0000
 41
1.0097
 42
0.0038
 43
1.0000
 50
0.0000
  0
INSERT
  8
21
  2
RECT
 10
-0.3486
 20
2.1984
 30
0.0000
 41
0.3658
 42
0.0038
 43
1.0000
 50
0.0000
  0
INSERT
  8
21
  2
RECT
 10
0.4477
 20
2.1984
 30
0.0000
 41
1.0135
 42
0.0038
 43
1.0000
 50
0.0000
  0
INSERT
  8
21
  2
RECT
 10
-0.3391
 20
2.2022
 30
0.0000
 41
0.3620
 42
0.0038
 43
1.0000
 50
0.0000
  0
INSERT
  8
21
  2
RECT
 10
0.4496
 20
2.2022
 30
0.0000
 41
1.0249
 42
0.0038
 43
1.0000
 50
0.0000
  0
INSERT
  8
21
  2
RECT
 10
-0.3296
 20
2.2060
 30
0.0000
 41
0.3581
 42
0.0038
 43
1.0000
 50
0.0000
  0
INSERT
  8
21
  2
RECT
 10
0.4515
 20
2.2060
 30
0.0000
 41
1.0287
 42
0.0038
 43
1.0000
 50
0.0000
  0
INSERT
  8
21
  2
RECT
 10
-0.3201
 20
2.2098
 30
0.0000
 41
0.3543
 42
0.0038
 43
1.0000
 50
0.0000
  0
INSERT
  8
21
  2
RECT
 10
0.4515
 20
2.2098
 30
0.0000
 41
1.0363
 42
0.0038
 43
1.0000
 50
0.0000
  0
INSERT
  8
21
  2
RECT
 10
-0.3105
 20
2.2136
 30
0.0000
 41
0.3505
 42
0.0038
 43
1.0000
 50
0.0000
  0
INSERT
  8
21
  2
RECT
 10
0.4534
 20
2.2136
 30
0.0000
 41
1.0478
 42
0.0038
 43
1.0000
 50
0.0000
  0
INSERT
  8
21
  2
RECT
 10
-0.2972
 20
2.2174
 30
0.0000
 41
0.3467
 42
0.0038
 43
1.0000
 50
0.0000
  0
INSERT
  8
21
  2
RECT
 10
0.4534
 20
2.2174
 30
0.0000
 41
1.0554
 42
0.0038
 43
1.0000
 50
0.0000
  0
INSERT
  8
21
  2
RECT
 10
-0.2858
 20
2.2212
 30
0.0000
 41
0.3467
 42
0.0038
 43
1.0000
 50
0.0000
  0
INSERT
  8
21
  2
RECT
 10
0.4534
 20
2.2212
 30
0.0000
 41
1.0706
 42
0.0038
 43
1.0000
 50
0.0000
  0
INSERT
  8
21
  2
RECT
 10
-0.5087
 20
2.2250
 30
0.0000
 41
0.0305
 42
0.0038
 43
1.0000
 50
0.0000
  0
INSERT
  8
21
  2
RECT
 10
0.2743
 20
2.2250
 30
0.0000
 41
1.4364
 42
0.0038
 43
1.0000
 50
0.0000
  0
INSERT
  8
21
  2
RECT
 10
0.2152
 20
2.2288
 30
0.0000
 41
1.5621
 42
0.0039
 43
1.0000
 50
0.0000
  0
INSERT
  8
21
  2
RECT
 10
0.2096
 20
2.2327
 30
0.0000
 41
1.5887
 42
0.0038
 43
1.0000
 50
0.0000
  0
INSERT
  8
21
  2
RECT
 10
0.2038
 20
2.2365
 30
0.0000
 41
1.6078
 42
0.0038
 43
1.0000
 50
0.0000
  0
INSERT
  8
21
  2
RECT
 10
0.2020
 20
2.2403
 30
0.0000
 41
1.6269
 42
0.0038
 43
1.0000
 50
0.0000
  0
INSERT
  8
21
  2
RECT
 10
0.1982
 20
2.2441
 30
0.0000
 41
1.6421
 42
0.0038
 43
1.0000
 50
0.0000
  0
INSERT
  8
21
  2
RECT
 10
0.1943
 20
2.2479
 30
0.0000
 41
1.6574
 42
0.0038
 43
1.0000
 50
0.0000
  0
INSERT
  8
21
  2
RECT
 10
0.1924
 20
2.2517
 30
0.0000
 41
1.6764
 42
0.0038
 43
1.0000
 50
0.0000
  0
INSERT
  8
21
  2
RECT
 10
0.1905
 20
2.2555
 30
0.0000
 41
1.6878
 42
0.0038
 43
1.0000
 50
0.0000
  0
INSERT
  8
21
  2
RECT
 10
0.1905
 20
2.2593
 30
0.0000
 41
1.7030
 42
0.0038
 43
1.0000
 50
0.0000
  0
INSERT
  8
21
  2
RECT
 10
0.1885
 20
2.2631
 30
0.0000
 41
1.7145
 42
0.0038
 43
1.0000
 50
0.0000
  0
INSERT
  8
21
  2
RECT
 10
0.1867
 20
2.2670
 30
0.0000
 41
1.7260
 42
0.0039
 43
1.0000
 50
0.0000
  0
INSERT
  8
21
  2
RECT
 10
0.1867
 20
2.2708
 30
0.0000
 41
1.7412
 42
0.0038
 43
1.0000
 50
0.0000
  0
INSERT
  8
21
  2
RECT
 10
-0.2343
 20
2.2746
 30
0.0000
 41
0.9144
 42
0.0038
 43
1.0000
 50
0.0000
  0
INSERT
  8
21
  2
RECT
 10
0.6763
 20
2.2746
 30
0.0000
 41
0.7696
 42
0.0038
 43
1.0000
 50
0.0000
  0
INSERT
  8
21
  2
RECT
 10
-0.2515
 20
2.2784
 30
0.0000
 41
0.8953
 42
0.0038
 43
1.0000
 50
0.0000
  0
INSERT
  8
21
  2
RECT
 10
0.6934
 20
2.2784
 30
0.0000
 41
0.7430
 42
0.0038
 43
1.0000
 50
0.0000
  0
INSERT
  8
21
  2
RECT
 10
-0.2610
 20
2.2822
 30
0.0000
 41
0.8839
 42
0.0038
 43
1.0000
 50
0.0000
  0
INSERT
  8
21
  2
RECT
 10
0.7067
 20
2.2822
 30
0.0000
 41
0.7315
 42
0.0038
 43
1.0000
 50
0.0000
  0
INSERT
  8
21
  2
RECT
 10
-0.2686
 20
2.2860
 30
0.0000
 41
0.8840
 42
0.0038
 43
1.0000
 50
0.0000
  0
INSERT
  8
21
  2
RECT
 10
0.7163
 20
2.2860
 30
0.0000
 41
0.7201
 42
0.0038
 43
1.0000
 50
0.0000
  0
INSERT
  8
21
  2
RECT
 10
-0.2762
 20
2.2898
 30
0.0000
 41
0.8839
 42
0.0038
 43
1.0000
 50
0.0000
  0
INSERT
  8
21
  2
RECT
 10
0.7277
 20
2.2898
 30
0.0000
 41
0.7124
 42
0.0038
 43
1.0000
 50
0.0000
  0
INSERT
  8
21
  2
RECT
 10
-0.2820
 20
2.2936
 30
0.0000
 41
0.8801
 42
0.0038
 43
1.0000
 50
0.0000
  0
INSERT
  8
21
  2
RECT
 10
0.7354
 20
2.2936
 30
0.0000
 41
0.7049
 42
0.0038
 43
1.0000
 50
0.0000
  0
INSERT
  8
21
  2
RECT
 10
-0.2896
 20
2.2974
 30
0.0000
 41
0.8801
 42
0.0038
 43
1.0000
 50
0.0000
  0
INSERT
  8
21
  2
RECT
 10
0.7429
 20
2.2974
 30
0.0000
 41
0.6973
 42
0.0038
 43
1.0000
 50
0.0000
  0
INSERT
  8
21
  2
RECT
 10
-0.2933
 20
2.3012
 30
0.0000
 41
0.8801
 42
0.0038
 43
1.0000
 50
0.0000
  0
INSERT
  8
21
  2
RECT
 10
0.7506
 20
2.3012
 30
0.0000
 41
0.6972
 42
0.0038
 43
1.0000
 50
0.0000
  0
INSERT
  8
21
  2
RECT
 10
-0.2972
 20
2.3051
 30
0.0000
 41
0.8801
 42
0.0039
 43
1.0000
 50
0.0000
  0
INSERT
  8
21
  2
RECT
 10
0.7563
 20
2.3051
 30
0.0000
 41
0.6934
 42
0.0039
 43
1.0000
 50
0.0000
  0
INSERT
  8
21
  2
RECT
 10
-0.3010
 20
2.3089
 30
0.0000
 41
0.8878
 42
0.0038
 43
1.0000
 50
0.0000
  0
INSERT
  8
21
  2
RECT
 10
0.7658
 20
2.3089
 30
0.0000
 41
0.6896
 42
0.0038
 43
1.0000
 50
0.0000
  0
INSERT
  8
21
  2
RECT
 10
-0.3048
 20
2.3127
 30
0.0000
 41
0.8878
 42
0.0038
 43
1.0000
 50
0.0000
  0
INSERT
  8
21
  2
RECT
 10
0.7696
 20
2.3127
 30
0.0000
 41
0.6896
 42
0.0038
 43
1.0000
 50
0.0000
  0
INSERT
  8
21
  2
RECT
 10
-0.3067
 20
2.3165
 30
0.0000
 41
0.8916
 42
0.0038
 43
1.0000
 50
0.0000
  0
INSERT
  8
21
  2
RECT
 10
0.7753
 20
2.3165
 30
0.0000
 41
0.6858
 42
0.0038
 43
1.0000
 50
0.0000
  0
INSERT
  8
21
  2
RECT
 10
-0.3086
 20
2.3203
 30
0.0000
 41
0.8954
 42
0.0038
 43
1.0000
 50
0.0000
  0
INSERT
  8
21
  2
RECT
 10
0.7830
 20
2.3203
 30
0.0000
 41
0.6858
 42
0.0038
 43
1.0000
 50
0.0000
  0
INSERT
  8
21
  2
RECT
 10
-0.3124
 20
2.3241
 30
0.0000
 41
0.9030
 42
0.0038
 43
1.0000
 50
0.0000
  0
INSERT
  8
21
  2
RECT
 10
0.7868
 20
2.3241
 30
0.0000
 41
0.6858
 42
0.0038
 43
1.0000
 50
0.0000
  0
INSERT
  8
21
  2
RECT
 10
-0.3143
 20
2.3279
 30
0.0000
 41
0.9068
 42
0.0038
 43
1.0000
 50
0.0000
  0
INSERT
  8
21
  2
RECT
 10
0.7925
 20
2.3279
 30
0.0000
 41
0.6820
 42
0.0038
 43
1.0000
 50
0.0000
  0
INSERT
  8
21
  2
RECT
 10
-0.3162
 20
2.3317
 30
0.0000
 41
0.9106
 42
0.0038
 43
1.0000
 50
0.0000
  0
INSERT
  8
21
  2
RECT
 10
0.7982
 20
2.3317
 30
0.0000
 41
0.6858
 42
0.0038
 43
1.0000
 50
0.0000
  0
INSERT
  8
21
  2
RECT
 10
-0.4705
 20
2.3355
 30
0.0000
 41
0.6096
 42
0.0038
 43
1.0000
 50
0.0000
  0
INSERT
  8
21
  2
RECT
 10
0.0077
 20
2.3355
 30
0.0000
 41
0.2629
 42
0.0038
 43
1.0000
 50
0.0000
  0
INSERT
  8
21
  2
RECT
 10
0.8020
 20
2.3355
 30
0.0000
 41
0.6858
 42
0.0038
 43
1.0000
 50
0.0000
  0
INSERT
  8
21
  2
RECT
 10
-0.4839
 20
2.3393
 30
0.0000
 41
0.5905
 42
0.0038
 43
1.0000
 50
0.0000
  0
INSERT
  8
21
  2
RECT
 10
0.0172
 20
2.3393
 30
0.0000
 41
0.2515
 42
0.0038
 43
1.0000
 50
0.0000
  0
INSERT
  8
21
  2
RECT
 10
0.8077
 20
2.3393
 30
0.0000
 41
0.6896
 42
0.0038
 43
1.0000
 50
0.0000
  0
INSERT
  8
21
  2
RECT
 10
-0.4934
 20
2.3432
 30
0.0000
 41
0.5792
 42
0.0039
 43
1.0000
 50
0.0000
  0
INSERT
  8
21
  2
RECT
 10
0.0209
 20
2.3432
 30
0.0000
 41
0.2439
 42
0.0039
 43
1.0000
 50
0.0000
  0
INSERT
  8
21
  2
RECT
 10
0.8115
 20
2.3432
 30
0.0000
 41
0.6896
 42
0.0039
 43
1.0000
 50
0.0000
  0
INSERT
  8
21
  2
RECT
 10
-0.5030
 20
2.3470
 30
0.0000
 41
0.5677
 42
0.0038
 43
1.0000
 50
0.0000
  0
INSERT
  8
21
  2
RECT
 10
0.0248
 20
2.3470
 30
0.0000
 41
0.2439
 42
0.0038
 43
1.0000
 50
0.0000
  0
INSERT
  8
21
  2
RECT
 10
0.8134
 20
2.3470
 30
0.0000
 41
0.6934
 42
0.0038
 43
1.0000
 50
0.0000
  0
INSERT
  8
21
  2
RECT
 10
-0.5087
 20
2.3508
 30
0.0000
 41
0.5639
 42
0.0038
 43
1.0000
 50
0.0000
  0
INSERT
  8
21
  2
RECT
 10
0.0286
 20
2.3508
 30
0.0000
 41
0.2438
 42
0.0038
 43
1.0000
 50
0.0000
  0
INSERT
  8
21
  2
RECT
 10
0.8192
 20
2.3508
 30
0.0000
 41
0.6973
 42
0.0038
 43
1.0000
 50
0.0000
  0
INSERT
  8
21
  2
RECT
 10
-0.5181
 20
2.3546
 30
0.0000
 41
0.5601
 42
0.0038
 43
1.0000
 50
0.0000
  0
INSERT
  8
21
  2
RECT
 10
0.0305
 20
2.3546
 30
0.0000
 41
0.2476
 42
0.0038
 43
1.0000
 50
0.0000
  0
INSERT
  8
21
  2
RECT
 10
0.8230
 20
2.3546
 30
0.0000
 41
0.6973
 42
0.0038
 43
1.0000
 50
0.0000
  0
INSERT
  8
21
  2
RECT
 10
-0.5239
 20
2.3584
 30
0.0000
 41
0.5563
 42
0.0038
 43
1.0000
 50
0.0000
  0
INSERT
  8
21
  2
RECT
 10
0.0343
 20
2.3584
 30
0.0000
 41
0.2476
 42
0.0038
 43
1.0000
 50
0.0000
  0
INSERT
  8
21
  2
RECT
 10
0.8267
 20
2.3584
 30
0.0000
 41
0.7049
 42
0.0038
 43
1.0000
 50
0.0000
  0
INSERT
  8
21
  2
RECT
 10
-0.5315
 20
2.3622
 30
0.0000
 41
0.5486
 42
0.0038
 43
1.0000
 50
0.0000
  0
INSERT
  8
21
  2
RECT
 10
0.0362
 20
2.3622
 30
0.0000
 41
0.2514
 42
0.0038
 43
1.0000
 50
0.0000
  0
INSERT
  8
21
  2
RECT
 10
0.8286
 20
2.3622
 30
0.0000
 41
0.7087
 42
0.0038
 43
1.0000
 50
0.0000
  0
INSERT
  8
21
  2
RECT
 10
-0.5353
 20
2.3660
 30
0.0000
 41
0.5410
 42
0.0038
 43
1.0000
 50
0.0000
  0
INSERT
  8
21
  2
RECT
 10
0.0381
 20
2.3660
 30
0.0000
 41
0.2552
 42
0.0038
 43
1.0000
 50
0.0000
  0
INSERT
  8
21
  2
RECT
 10
0.8306
 20
2.3660
 30
0.0000
 41
0.7125
 42
0.0038
 43
1.0000
 50
0.0000
  0
INSERT
  8
21
  2
RECT
 10
-0.5410
 20
2.3698
 30
0.0000
 41
0.5372
 42
0.0038
 43
1.0000
 50
0.0000
  0
INSERT
  8
21
  2
RECT
 10
0.0420
 20
2.3698
 30
0.0000
 41
0.2629
 42
0.0038
 43
1.0000
 50
0.0000
  0
INSERT
  8
21
  2
RECT
 10
0.8344
 20
2.3698
 30
0.0000
 41
0.7201
 42
0.0038
 43
1.0000
 50
0.0000
  0
INSERT
  8
21
  2
RECT
 10
-0.5467
 20
2.3736
 30
0.0000
 41
0.5334
 42
0.0038
 43
1.0000
 50
0.0000
  0
INSERT
  8
21
  2
RECT
 10
0.0439
 20
2.3736
 30
0.0000
 41
0.2667
 42
0.0038
 43
1.0000
 50
0.0000
  0
INSERT
  8
21
  2
RECT
 10
0.8363
 20
2.3736
 30
0.0000
 41
0.7239
 42
0.0038
 43
1.0000
 50
0.0000
  0
INSERT
  8
21
  2
RECT
 10
-0.5524
 20
2.3774
 30
0.0000
 41
0.5295
 42
0.0038
 43
1.0000
 50
0.0000
  0
INSERT
  8
21
  2
RECT
 10
0.0477
 20
2.3774
 30
0.0000
 41
0.2743
 42
0.0038
 43
1.0000
 50
0.0000
  0
INSERT
  8
21
  2
RECT
 10
0.8401
 20
2.3774
 30
0.0000
 41
0.7316
 42
0.0038
 43
1.0000
 50
0.0000
  0
INSERT
  8
21
  2
RECT
 10
-0.5582
 20
2.3813
 30
0.0000
 41
0.5258
 42
0.0039
 43
1.0000
 50
0.0000
  0
INSERT
  8
21
  2
RECT
 10
0.0515
 20
2.3813
 30
0.0000
 41
0.2819
 42
0.0039
 43
1.0000
 50
0.0000
  0
INSERT
  8
21
  2
RECT
 10
0.8420
 20
2.3813
 30
0.0000
 41
0.7354
 42
0.0039
 43
1.0000
 50
0.0000
  0
INSERT
  8
21
  2
RECT
 10
-0.5620
 20
2.3851
 30
0.0000
 41
0.5258
 42
0.0038
 43
1.0000
 50
0.0000
  0
INSERT
  8
21
  2
RECT
 10
0.0553
 20
2.3851
 30
0.0000
 41
0.2895
 42
0.0038
 43
1.0000
 50
0.0000
  0
INSERT
  8
21
  2
RECT
 10
0.8420
 20
2.3851
 30
0.0000
 41
0.7430
 42
0.0038
 43
1.0000
 50
0.0000
  0
INSERT
  8
21
  2
RECT
 10
-0.5677
 20
2.3889
 30
0.0000
 41
0.5220
 42
0.0038
 43
1.0000
 50
0.0000
  0
INSERT
  8
21
  2
RECT
 10
0.0571
 20
2.3889
 30
0.0000
 41
0.3009
 42
0.0038
 43
1.0000
 50
0.0000
  0
INSERT
  8
21
  2
RECT
 10
0.8439
 20
2.3889
 30
0.0000
 41
0.7544
 42
0.0038
 43
1.0000
 50
0.0000
  0
INSERT
  8
21
  2
RECT
 10
-0.5715
 20
2.3927
 30
0.0000
 41
0.5220
 42
0.0038
 43
1.0000
 50
0.0000
  0
INSERT
  8
21
  2
RECT
 10
0.0610
 20
2.3927
 30
0.0000
 41
0.3086
 42
0.0038
 43
1.0000
 50
0.0000
  0
INSERT
  8
21
  2
RECT
 10
0.8439
 20
2.3927
 30
0.0000
 41
0.7620
 42
0.0038
 43
1.0000
 50
0.0000
  0
INSERT
  8
21
  2
RECT
 10
-0.5772
 20
2.3965
 30
0.0000
 41
0.5182
 42
0.0038
 43
1.0000
 50
0.0000
  0
INSERT
  8
21
  2
RECT
 10
0.0648
 20
2.3965
 30
0.0000
 41
0.3239
 42
0.0038
 43
1.0000
 50
0.0000
  0
INSERT
  8
21
  2
RECT
 10
0.8439
 20
2.3965
 30
0.0000
 41
0.7696
 42
0.0038
 43
1.0000
 50
0.0000
  0
INSERT
  8
21
  2
RECT
 10
-0.5810
 20
2.4003
 30
0.0000
 41
0.5182
 42
0.0038
 43
1.0000
 50
0.0000
  0
INSERT
  8
21
  2
RECT
 10
0.0704
 20
2.4003
 30
0.0000
 41
0.3353
 42
0.0038
 43
1.0000
 50
0.0000
  0
INSERT
  8
21
  2
RECT
 10
0.8439
 20
2.4003
 30
0.0000
 41
0.7848
 42
0.0038
 43
1.0000
 50
0.0000
  0
INSERT
  8
21
  2
RECT
 10
-0.5848
 20
2.4041
 30
0.0000
 41
0.5105
 42
0.0038
 43
1.0000
 50
0.0000
  0
INSERT
  8
21
  2
RECT
 10
0.0743
 20
2.4041
 30
0.0000
 41
0.3506
 42
0.0038
 43
1.0000
 50
0.0000
  0
INSERT
  8
21
  2
RECT
 10
0.8421
 20
2.4041
 30
0.0000
 41
0.7963
 42
0.0038
 43
1.0000
 50
0.0000
  0
INSERT
  8
21
  2
RECT
 10
-0.5887
 20
2.4079
 30
0.0000
 41
0.5105
 42
0.0038
 43
1.0000
 50
0.0000
  0
INSERT
  8
21
  2
RECT
 10
0.0800
 20
2.4079
 30
0.0000
 41
0.3696
 42
0.0038
 43
1.0000
 50
0.0000
  0
INSERT
  8
21
  2
RECT
 10
0.8401
 20
2.4079
 30
0.0000
 41
0.8078
 42
0.0038
 43
1.0000
 50
0.0000
  0
INSERT
  8
21
  2
RECT
 10
-0.5944
 20
2.4117
 30
0.0000
 41
0.5067
 42
0.0038
 43
1.0000
 50
0.0000
  0
INSERT
  8
21
  2
RECT
 10
0.0895
 20
2.4117
 30
0.0000
 41
0.3886
 42
0.0038
 43
1.0000
 50
0.0000
  0
INSERT
  8
21
  2
RECT
 10
0.8382
 20
2.4117
 30
0.0000
 41
0.8268
 42
0.0038
 43
1.0000
 50
0.0000
  0
INSERT
  8
21
  2
RECT
 10
-0.5982
 20
2.4155
 30
0.0000
 41
0.5067
 42
0.0038
 43
1.0000
 50
0.0000
  0
INSERT
  8
21
  2
RECT
 10
0.0990
 20
2.4155
 30
0.0000
 41
0.4153
 42
0.0038
 43
1.0000
 50
0.0000
  0
INSERT
  8
21
  2
RECT
 10
0.8306
 20
2.4155
 30
0.0000
 41
0.8496
 42
0.0038
 43
1.0000
 50
0.0000
  0
INSERT
  8
21
  2
RECT
 10
-0.6019
 20
2.4194
 30
0.0000
 41
0.5067
 42
0.0039
 43
1.0000
 50
0.0000
  0
INSERT
  8
21
  2
RECT
 10
0.5734
 20
2.4194
 30
0.0000
 41
1.3716
 42
0.0039
 43
1.0000
 50
0.0000
  0
INSERT
  8
21
  2
RECT
 10
-0.6038
 20
2.4232
 30
0.0000
 41
0.5029
 42
0.0038
 43
1.0000
 50
0.0000
  0
INSERT
  8
21
  2
RECT
 10
-0.0438
 20
2.4232
 30
0.0000
 41
0.1448
 42
0.0038
 43
1.0000
 50
0.0000
  0
INSERT
  8
21
  2
RECT
 10
0.6591
 20
2.4232
 30
0.0000
 41
1.2078
 42
0.0038
 43
1.0000
 50
0.0000
  0
INSERT
  8
21
  2
RECT
 10
-0.6077
 20
2.4270
 30
0.0000
 41
0.5030
 42
0.0038
 43
1.0000
 50
0.0000
  0
INSERT
  8
21
  2
RECT
 10
-0.0495
 20
2.4270
 30
0.0000
 41
0.1410
 42
0.0038
 43
1.0000
 50
0.0000
  0
INSERT
  8
21
  2
RECT
 10
0.6649
 20
2.4270
 30
0.0000
 41
1.2039
 42
0.0038
 43
1.0000
 50
0.0000
  0
INSERT
  8
21
  2
RECT
 10
-0.6115
 20
2.4308
 30
0.0000
 41
0.5030
 42
0.0038
 43
1.0000
 50
0.0000
  0
INSERT
  8
21
  2
RECT
 10
-0.0534
 20
2.4308
 30
0.0000
 41
0.1409
 42
0.0038
 43
1.0000
 50
0.0000
  0
INSERT
  8
21
  2
RECT
 10
0.6687
 20
2.4308
 30
0.0000
 41
1.2039
 42
0.0038
 43
1.0000
 50
0.0000
  0
INSERT
  8
21
  2
RECT
 10
-0.6135
 20
2.4346
 30
0.0000
 41
0.4991
 42
0.0038
 43
1.0000
 50
0.0000
  0
INSERT
  8
21
  2
RECT
 10
-0.0571
 20
2.4346
 30
0.0000
 41
0.1409
 42
0.0038
 43
1.0000
 50
0.0000
  0
INSERT
  8
21
  2
RECT
 10
0.6724
 20
2.4346
 30
0.0000
 41
1.2039
 42
0.0038
 43
1.0000
 50
0.0000
  0
INSERT
  8
21
  2
RECT
 10
-0.6173
 20
2.4384
 30
0.0000
 41
0.4991
 42
0.0038
 43
1.0000
 50
0.0000
  0
INSERT
  8
21
  2
RECT
 10
-0.0591
 20
2.4384
 30
0.0000
 41
0.1447
 42
0.0038
 43
1.0000
 50
0.0000
  0
INSERT
  8
21
  2
RECT
 10
0.6763
 20
2.4384
 30
0.0000
 41
1.2040
 42
0.0038
 43
1.0000
 50
0.0000
  0
INSERT
  8
21
  2
RECT
 10
-0.6210
 20
2.4422
 30
0.0000
 41
0.4991
 42
0.0038
 43
1.0000
 50
0.0000
  0
INSERT
  8
21
  2
RECT
 10
-0.0629
 20
2.4422
 30
0.0000
 41
0.1448
 42
0.0038
 43
1.0000
 50
0.0000
  0
INSERT
  8
21
  2
RECT
 10
0.6782
 20
2.4422
 30
0.0000
 41
1.2002
 42
0.0038
 43
1.0000
 50
0.0000
  0
INSERT
  8
21
  2
RECT
 10
-0.6249
 20
2.4460
 30
0.0000
 41
0.4991
 42
0.0038
 43
1.0000
 50
0.0000
  0
INSERT
  8
21
  2
RECT
 10
-0.0667
 20
2.4460
 30
0.0000
 41
0.1448
 42
0.0038
 43
1.0000
 50
0.0000
  0
INSERT
  8
21
  2
RECT
 10
0.6820
 20
2.4460
 30
0.0000
 41
1.2002
 42
0.0038
 43
1.0000
 50
0.0000
  0
INSERT
  8
21
  2
RECT
 10
-0.6268
 20
2.4498
 30
0.0000
 41
0.4953
 42
0.0038
 43
1.0000
 50
0.0000
  0
INSERT
  8
21
  2
RECT
 10
-0.0686
 20
2.4498
 30
0.0000
 41
0.1486
 42
0.0038
 43
1.0000
 50
0.0000
  0
INSERT
  8
21
  2
RECT
 10
0.6858
 20
2.4498
 30
0.0000
 41
1.2002
 42
0.0038
 43
1.0000
 50
0.0000
  0
INSERT
  8
21
  2
RECT
 10
-0.6306
 20
2.4536
 30
0.0000
 41
0.4953
 42
0.0038
 43
1.0000
 50
0.0000
  0
INSERT
  8
21
  2
RECT
 10
-0.0743
 20
2.4536
 30
0.0000
 41
0.1524
 42
0.0038
 43
1.0000
 50
0.0000
  0
INSERT
  8
21
  2
RECT
 10
0.6858
 20
2.4536
 30
0.0000
 41
1.2002
 42
0.0038
 43
1.0000
 50
0.0000
  0
INSERT
  8
21
  2
RECT
 10
-0.6325
 20
2.4575
 30
0.0000
 41
0.4991
 42
0.0039
 43
1.0000
 50
0.0000
  0
INSERT
  8
21
  2
RECT
 10
-0.0762
 20
2.4575
 30
0.0000
 41
0.1562
 42
0.0039
 43
1.0000
 50
0.0000
  0
INSERT
  8
21
  2
RECT
 10
0.6877
 20
2.4575
 30
0.0000
 41
1.1964
 42
0.0039
 43
1.0000
 50
0.0000
  0
INSERT
  8
21
  2
RECT
 10
-0.6362
 20
2.4613
 30
0.0000
 41
0.4991
 42
0.0038
 43
1.0000
 50
0.0000
  0
INSERT
  8
21
  2
RECT
 10
-0.0781
 20
2.4613
 30
0.0000
 41
0.1600
 42
0.0038
 43
1.0000
 50
0.0000
  0
INSERT
  8
21
  2
RECT
 10
0.6915
 20
2.4613
 30
0.0000
 41
1.1964
 42
0.0038
 43
1.0000
 50
0.0000
  0
INSERT
  8
21
  2
RECT
 10
-0.6381
 20
2.4651
 30
0.0000
 41
0.4953
 42
0.0038
 43
1.0000
 50
0.0000
  0
INSERT
  8
21
  2
RECT
 10
-0.0838
 20
2.4651
 30
0.0000
 41
0.1638
 42
0.0038
 43
1.0000
 50
0.0000
  0
INSERT
  8
21
  2
RECT
 10
0.6915
 20
2.4651
 30
0.0000
 41
1.1964
 42
0.0038
 43
1.0000
 50
0.0000
  0
INSERT
  8
21
  2
RECT
 10
-0.6401
 20
2.4689
 30
0.0000
 41
0.4991
 42
0.0038
 43
1.0000
 50
0.0000
  0
INSERT
  8
21
  2
RECT
 10
-0.0857
 20
2.4689
 30
0.0000
 41
0.1676
 42
0.0038
 43
1.0000
 50
0.0000
  0
INSERT
  8
21
  2
RECT
 10
0.6935
 20
2.4689
 30
0.0000
 41
1.1925
 42
0.0038
 43
1.0000
 50
0.0000
  0
INSERT
  8
21
  2
RECT
 10
-0.6439
 20
2.4727
 30
0.0000
 41
0.4991
 42
0.0038
 43
1.0000
 50
0.0000
  0
INSERT
  8
21
  2
RECT
 10
-0.0896
 20
2.4727
 30
0.0000
 41
0.1753
 42
0.0038
 43
1.0000
 50
0.0000
  0
INSERT
  8
21
  2
RECT
 10
0.6935
 20
2.4727
 30
0.0000
 41
1.1925
 42
0.0038
 43
1.0000
 50
0.0000
  0
INSERT
  8
21
  2
RECT
 10
-0.6458
 20
2.4765
 30
0.0000
 41
0.5030
 42
0.0038
 43
1.0000
 50
0.0000
  0
INSERT
  8
21
  2
RECT
 10
-0.0915
 20
2.4765
 30
0.0000
 41
0.1791
 42
0.0038
 43
1.0000
 50
0.0000
  0
INSERT
  8
21
  2
RECT
 10
0.6973
 20
2.4765
 30
0.0000
 41
1.1925
 42
0.0038
 43
1.0000
 50
0.0000
  0
INSERT
  8
21
  2
RECT
 10
-0.6477
 20
2.4803
 30
0.0000
 41
0.4992
 42
0.0038
 43
1.0000
 50
0.0000
  0
INSERT
  8
21
  2
RECT
 10
-0.0972
 20
2.4803
 30
0.0000
 41
0.1829
 42
0.0038
 43
1.0000
 50
0.0000
  0
INSERT
  8
21
  2
RECT
 10
0.6973
 20
2.4803
 30
0.0000
 41
1.1925
 42
0.0038
 43
1.0000
 50
0.0000
  0
INSERT
  8
21
  2
RECT
 10
-0.6496
 20
2.4841
 30
0.0000
 41
0.5030
 42
0.0038
 43
1.0000
 50
0.0000
  0
INSERT
  8
21
  2
RECT
 10
-0.1009
 20
2.4841
 30
0.0000
 41
0.1905
 42
0.0038
 43
1.0000
 50
0.0000
  0
INSERT
  8
21
  2
RECT
 10
0.6992
 20
2.4841
 30
0.0000
 41
1.1887
 42
0.0038
 43
1.0000
 50
0.0000
  0
INSERT
  8
21
  2
RECT
 10
-0.6515
 20
2.4879
 30
0.0000
 41
0.5068
 42
0.0038
 43
1.0000
 50
0.0000
  0
INSERT
  8
21
  2
RECT
 10
-0.1029
 20
2.4879
 30
0.0000
 41
0.1943
 42
0.0038
 43
1.0000
 50
0.0000
  0
INSERT
  8
21
  2
RECT
 10
0.6992
 20
2.4879
 30
0.0000
 41
1.1887
 42
0.0038
 43
1.0000
 50
0.0000
  0
INSERT
  8
21
  2
RECT
 10
-0.6515
 20
2.4917
 30
0.0000
 41
0.5068
 42
0.0038
 43
1.0000
 50
0.0000
  0
INSERT
  8
21
  2
RECT
 10
-0.1067
 20
2.4917
 30
0.0000
 41
0.2019
 42
0.0038
 43
1.0000
 50
0.0000
  0
INSERT
  8
21
  2
RECT
 10
0.7011
 20
2.4917
 30
0.0000
 41
1.1849
 42
0.0038
 43
1.0000
 50
0.0000
  0
INSERT
  8
21
  2
RECT
 10
-0.6534
 20
2.4956
 30
0.0000
 41
0.5106
 42
0.0039
 43
1.0000
 50
0.0000
  0
INSERT
  8
21
  2
RECT
 10
-0.1105
 20
2.4956
 30
0.0000
 41
0.2096
 42
0.0039
 43
1.0000
 50
0.0000
  0
INSERT
  8
21
  2
RECT
 10
0.6992
 20
2.4956
 30
0.0000
 41
1.1811
 42
0.0039
 43
1.0000
 50
0.0000
  0
INSERT
  8
21
  2
RECT
 10
-0.6553
 20
2.4994
 30
0.0000
 41
0.5144
 42
0.0038
 43
1.0000
 50
0.0000
  0
INSERT
  8
21
  2
RECT
 10
-0.1162
 20
2.4994
 30
0.0000
 41
0.2134
 42
0.0038
 43
1.0000
 50
0.0000
  0
INSERT
  8
21
  2
RECT
 10
0.6992
 20
2.4994
 30
0.0000
 41
1.1811
 42
0.0038
 43
1.0000
 50
0.0000
  0
INSERT
  8
21
  2
RECT
 10
-0.6572
 20
2.5032
 30
0.0000
 41
0.5182
 42
0.0038
 43
1.0000
 50
0.0000
  0
INSERT
  8
21
  2
RECT
 10
-0.1200
 20
2.5032
 30
0.0000
 41
0.2210
 42
0.0038
 43
1.0000
 50
0.0000
  0
INSERT
  8
21
  2
RECT
 10
0.7011
 20
2.5032
 30
0.0000
 41
1.1773
 42
0.0038
 43
1.0000
 50
0.0000
  0
INSERT
  8
21
  2
RECT
 10
-0.6572
 20
2.5070
 30
0.0000
 41
0.5182
 42
0.0038
 43
1.0000
 50
0.0000
  0
INSERT
  8
21
  2
RECT
 10
-0.1257
 20
2.5070
 30
0.0000
 41
0.2324
 42
0.0038
 43
1.0000
 50
0.0000
  0
INSERT
  8
21
  2
RECT
 10
0.7011
 20
2.5070
 30
0.0000
 41
1.1773
 42
0.0038
 43
1.0000
 50
0.0000
  0
INSERT
  8
21
  2
RECT
 10
-0.6572
 20
2.5108
 30
0.0000
 41
0.5258
 42
0.0038
 43
1.0000
 50
0.0000
  0
INSERT
  8
21
  2
RECT
 10
-0.1295
 20
2.5108
 30
0.0000
 41
0.2401
 42
0.0038
 43
1.0000
 50
0.0000
  0
INSERT
  8
21
  2
RECT
 10
0.7030
 20
2.5108
 30
0.0000
 41
1.1735
 42
0.0038
 43
1.0000
 50
0.0000
  0
INSERT
  8
21
  2
RECT
 10
-0.6591
 20
2.5146
 30
0.0000
 41
0.5296
 42
0.0038
 43
1.0000
 50
0.0000
  0
INSERT
  8
21
  2
RECT
 10
-0.1353
 20
2.5146
 30
0.0000
 41
0.2515
 42
0.0038
 43
1.0000
 50
0.0000
  0
INSERT
  8
21
  2
RECT
 10
0.7030
 20
2.5146
 30
0.0000
 41
1.1735
 42
0.0038
 43
1.0000
 50
0.0000
  0
INSERT
  8
21
  2
RECT
 10
-0.6591
 20
2.5184
 30
0.0000
 41
0.5372
 42
0.0038
 43
1.0000
 50
0.0000
  0
INSERT
  8
21
  2
RECT
 10
-0.1410
 20
2.5184
 30
0.0000
 41
0.2629
 42
0.0038
 43
1.0000
 50
0.0000
  0
INSERT
  8
21
  2
RECT
 10
0.7011
 20
2.5184
 30
0.0000
 41
1.1697
 42
0.0038
 43
1.0000
 50
0.0000
  0
INSERT
  8
21
  2
RECT
 10
-0.6572
 20
2.5222
 30
0.0000
 41
0.5410
 42
0.0038
 43
1.0000
 50
0.0000
  0
INSERT
  8
21
  2
RECT
 10
-0.1467
 20
2.5222
 30
0.0000
 41
0.2743
 42
0.0038
 43
1.0000
 50
0.0000
  0
INSERT
  8
21
  2
RECT
 10
0.7030
 20
2.5222
 30
0.0000
 41
1.1659
 42
0.0038
 43
1.0000
 50
0.0000
  0
INSERT
  8
21
  2
RECT
 10
-0.6553
 20
2.5260
 30
0.0000
 41
0.5524
 42
0.0038
 43
1.0000
 50
0.0000
  0
INSERT
  8
21
  2
RECT
 10
-0.1543
 20
2.5260
 30
0.0000
 41
0.2896
 42
0.0038
 43
1.0000
 50
0.0000
  0
INSERT
  8
21
  2
RECT
 10
0.7030
 20
2.5260
 30
0.0000
 41
1.1659
 42
0.0038
 43
1.0000
 50
0.0000
  0
INSERT
  8
21
  2
RECT
 10
-0.6497
 20
2.5298
 30
0.0000
 41
0.5715
 42
0.0038
 43
1.0000
 50
0.0000
  0
INSERT
  8
21
  2
RECT
 10
-0.1657
 20
2.5298
 30
0.0000
 41
0.3124
 42
0.0038
 43
1.0000
 50
0.0000
  0
INSERT
  8
21
  2
RECT
 10
0.7011
 20
2.5298
 30
0.0000
 41
1.1621
 42
0.0038
 43
1.0000
 50
0.0000
  0
INSERT
  8
21
  2
RECT
 10
-0.4744
 20
2.5337
 30
0.0000
 41
0.9297
 42
0.0039
 43
1.0000
 50
0.0000
  0
INSERT
  8
21
  2
RECT
 10
0.7011
 20
2.5337
 30
0.0000
 41
1.1621
 42
0.0039
 43
1.0000
 50
0.0000
  0
INSERT
  8
21
  2
RECT
 10
-0.4744
 20
2.5375
 30
0.0000
 41
0.9297
 42
0.0038
 43
1.0000
 50
0.0000
  0
INSERT
  8
21
  2
RECT
 10
0.7011
 20
2.5375
 30
0.0000
 41
1.1545
 42
0.0038
 43
1.0000
 50
0.0000
  0
INSERT
  8
21
  2
RECT
 10
-0.4763
 20
2.5413
 30
0.0000
 41
0.9335
 42
0.0038
 43
1.0000
 50
0.0000
  0
INSERT
  8
21
  2
RECT
 10
0.6991
 20
2.5413
 30
0.0000
 41
1.1506
 42
0.0038
 43
1.0000
 50
0.0000
  0
INSERT
  8
21
  2
RECT
 10
-0.4782
 20
2.5451
 30
0.0000
 41
0.9373
 42
0.0038
 43
1.0000
 50
0.0000
  0
INSERT
  8
21
  2
RECT
 10
0.6991
 20
2.5451
 30
0.0000
 41
1.1506
 42
0.0038
 43
1.0000
 50
0.0000
  0
INSERT
  8
21
  2
RECT
 10
-0.4782
 20
2.5489
 30
0.0000
 41
0.9373
 42
0.0038
 43
1.0000
 50
0.0000
  0
INSERT
  8
21
  2
RECT
 10
0.6972
 20
2.5489
 30
0.0000
 41
1.1468
 42
0.0038
 43
1.0000
 50
0.0000
  0
INSERT
  8
21
  2
RECT
 10
-0.4801
 20
2.5527
 30
0.0000
 41
0.9411
 42
0.0038
 43
1.0000
 50
0.0000
  0
INSERT
  8
21
  2
RECT
 10
0.6972
 20
2.5527
 30
0.0000
 41
1.1392
 42
0.0038
 43
1.0000
 50
0.0000
  0
INSERT
  8
21
  2
RECT
 10
-0.4820
 20
2.5565
 30
0.0000
 41
0.9449
 42
0.0038
 43
1.0000
 50
0.0000
  0
INSERT
  8
21
  2
RECT
 10
0.6953
 20
2.5565
 30
0.0000
 41
1.1354
 42
0.0038
 43
1.0000
 50
0.0000
  0
INSERT
  8
21
  2
RECT
 10
-0.4839
 20
2.5603
 30
0.0000
 41
0.9487
 42
0.0038
 43
1.0000
 50
0.0000
  0
INSERT
  8
21
  2
RECT
 10
0.6915
 20
2.5603
 30
0.0000
 41
1.1278
 42
0.0038
 43
1.0000
 50
0.0000
  0
INSERT
  8
21
  2
RECT
 10
-0.4839
 20
2.5641
 30
0.0000
 41
0.9487
 42
0.0038
 43
1.0000
 50
0.0000
  0
INSERT
  8
21
  2
RECT
 10
0.6896
 20
2.5641
 30
0.0000
 41
1.1240
 42
0.0038
 43
1.0000
 50
0.0000
  0
INSERT
  8
21
  2
RECT
 10
-0.4858
 20
2.5679
 30
0.0000
 41
0.9525
 42
0.0038
 43
1.0000
 50
0.0000
  0
INSERT
  8
21
  2
RECT
 10
0.6858
 20
2.5679
 30
0.0000
 41
1.1164
 42
0.0038
 43
1.0000
 50
0.0000
  0
INSERT
  8
21
  2
RECT
 10
-0.4877
 20
2.5718
 30
0.0000
 41
0.9563
 42
0.0039
 43
1.0000
 50
0.0000
  0
INSERT
  8
21
  2
RECT
 10
0.6839
 20
2.5718
 30
0.0000
 41
1.1049
 42
0.0039
 43
1.0000
 50
0.0000
  0
INSERT
  8
21
  2
RECT
 10
-0.4896
 20
2.5756
 30
0.0000
 41
0.9601
 42
0.0038
 43
1.0000
 50
0.0000
  0
INSERT
  8
21
  2
RECT
 10
0.6782
 20
2.5756
 30
0.0000
 41
1.0935
 42
0.0038
 43
1.0000
 50
0.0000
  0
INSERT
  8
21
  2
RECT
 10
-0.4896
 20
2.5794
 30
0.0000
 41
0.9601
 42
0.0038
 43
1.0000
 50
0.0000
  0
INSERT
  8
21
  2
RECT
 10
0.6744
 20
2.5794
 30
0.0000
 41
1.0859
 42
0.0038
 43
1.0000
 50
0.0000
  0
INSERT
  8
21
  2
RECT
 10
-0.4896
 20
2.5832
 30
0.0000
 41
0.9678
 42
0.0038
 43
1.0000
 50
0.0000
  0
INSERT
  8
21
  2
RECT
 10
0.6687
 20
2.5832
 30
0.0000
 41
1.0745
 42
0.0038
 43
1.0000
 50
0.0000
  0
INSERT
  8
21
  2
RECT
 10
-0.4915
 20
2.5870
 30
0.0000
 41
0.9716
 42
0.0038
 43
1.0000
 50
0.0000
  0
INSERT
  8
21
  2
RECT
 10
0.6629
 20
2.5870
 30
0.0000
 41
1.0630
 42
0.0038
 43
1.0000
 50
0.0000
  0
INSERT
  8
21
  2
RECT
 10
-0.4934
 20
2.5908
 30
0.0000
 41
0.9754
 42
0.0038
 43
1.0000
 50
0.0000
  0
INSERT
  8
21
  2
RECT
 10
0.6553
 20
2.5908
 30
0.0000
 41
1.0478
 42
0.0038
 43
1.0000
 50
0.0000
  0
INSERT
  8
21
  2
RECT
 10
-0.4934
 20
2.5946
 30
0.0000
 41
0.9754
 42
0.0038
 43
1.0000
 50
0.0000
  0
INSERT
  8
21
  2
RECT
 10
0.6496
 20
2.5946
 30
0.0000
 41
1.0364
 42
0.0038
 43
1.0000
 50
0.0000
  0
INSERT
  8
21
  2
RECT
 10
-0.4953
 20
2.5984
 30
0.0000
 41
0.9792
 42
0.0038
 43
1.0000
 50
0.0000
  0
INSERT
  8
21
  2
RECT
 10
0.6458
 20
2.5984
 30
0.0000
 41
1.0210
 42
0.0038
 43
1.0000
 50
0.0000
  0
INSERT
  8
21
  2
RECT
 10
-0.4972
 20
2.6022
 30
0.0000
 41
0.9830
 42
0.0038
 43
1.0000
 50
0.0000
  0
INSERT
  8
21
  2
RECT
 10
0.6401
 20
2.6022
 30
0.0000
 41
1.0096
 42
0.0038
 43
1.0000
 50
0.0000
  0
INSERT
  8
21
  2
RECT
 10
-0.4991
 20
2.6060
 30
0.0000
 41
0.9868
 42
0.0038
 43
1.0000
 50
0.0000
  0
INSERT
  8
21
  2
RECT
 10
0.6344
 20
2.6060
 30
0.0000
 41
0.9982
 42
0.0038
 43
1.0000
 50
0.0000
  0
INSERT
  8
21
  2
RECT
 10
-0.4972
 20
2.6099
 30
0.0000
 41
0.9906
 42
0.0039
 43
1.0000
 50
0.0000
  0
INSERT
  8
21
  2
RECT
 10
0.6287
 20
2.6099
 30
0.0000
 41
0.9867
 42
0.0039
 43
1.0000
 50
0.0000
  0
INSERT
  8
21
  2
RECT
 10
-0.4991
 20
2.6137
 30
0.0000
 41
0.9944
 42
0.0038
 43
1.0000
 50
0.0000
  0
INSERT
  8
21
  2
RECT
 10
0.6230
 20
2.6137
 30
0.0000
 41
0.9753
 42
0.0038
 43
1.0000
 50
0.0000
  0
INSERT
  8
21
  2
RECT
 10
-0.5010
 20
2.6175
 30
0.0000
 41
0.9982
 42
0.0038
 43
1.0000
 50
0.0000
  0
INSERT
  8
21
  2
RECT
 10
0.6173
 20
2.6175
 30
0.0000
 41
0.9639
 42
0.0038
 43
1.0000
 50
0.0000
  0
INSERT
  8
21
  2
RECT
 10
-0.5010
 20
2.6213
 30
0.0000
 41
0.9982
 42
0.0038
 43
1.0000
 50
0.0000
  0
INSERT
  8
21
  2
RECT
 10
0.6096
 20
2.6213
 30
0.0000
 41
0.9486
 42
0.0038
 43
1.0000
 50
0.0000
  0
INSERT
  8
21
  2
RECT
 10
-0.5029
 20
2.6251
 30
0.0000
 41
1.0020
 42
0.0038
 43
1.0000
 50
0.0000
  0
INSERT
  8
21
  2
RECT
 10
0.6039
 20
2.6251
 30
0.0000
 41
0.9372
 42
0.0038
 43
1.0000
 50
0.0000
  0
INSERT
  8
21
  2
RECT
 10
-0.5029
 20
2.6289
 30
0.0000
 41
1.0096
 42
0.0038
 43
1.0000
 50
0.0000
  0
INSERT
  8
21
  2
RECT
 10
0.2401
 20
2.6289
 30
0.0000
 41
0.2095
 42
0.0038
 43
1.0000
 50
0.0000
  0
INSERT
  8
21
  2
RECT
 10
0.7049
 20
2.6289
 30
0.0000
 41
0.7125
 42
0.0038
 43
1.0000
 50
0.0000
  0
INSERT
  8
21
  2
RECT
 10
-0.5049
 20
2.6327
 30
0.0000
 41
1.0135
 42
0.0038
 43
1.0000
 50
0.0000
  0
INSERT
  8
21
  2
RECT
 10
0.2419
 20
2.6327
 30
0.0000
 41
0.2133
 42
0.0038
 43
1.0000
 50
0.0000
  0
INSERT
  8
21
  2
RECT
 10
0.7011
 20
2.6327
 30
0.0000
 41
0.6973
 42
0.0038
 43
1.0000
 50
0.0000
  0
INSERT
  8
21
  2
RECT
 10
-0.5049
 20
2.6365
 30
0.0000
 41
1.0135
 42
0.0038
 43
1.0000
 50
0.0000
  0
INSERT
  8
21
  2
RECT
 10
0.2439
 20
2.6365
 30
0.0000
 41
0.2171
 42
0.0038
 43
1.0000
 50
0.0000
  0
INSERT
  8
21
  2
RECT
 10
0.6972
 20
2.6365
 30
0.0000
 41
0.6820
 42
0.0038
 43
1.0000
 50
0.0000
  0
INSERT
  8
21
  2
RECT
 10
-0.5068
 20
2.6403
 30
0.0000
 41
1.0173
 42
0.0038
 43
1.0000
 50
0.0000
  0
INSERT
  8
21
  2
RECT
 10
0.2439
 20
2.6403
 30
0.0000
 41
0.2171
 42
0.0038
 43
1.0000
 50
0.0000
  0
INSERT
  8
21
  2
RECT
 10
0.6934
 20
2.6403
 30
0.0000
 41
0.6668
 42
0.0038
 43
1.0000
 50
0.0000
  0
INSERT
  8
21
  2
RECT
 10
-0.5068
 20
2.6441
 30
0.0000
 41
1.0249
 42
0.0038
 43
1.0000
 50
0.0000
  0
INSERT
  8
21
  2
RECT
 10
0.2458
 20
2.6441
 30
0.0000
 41
0.2209
 42
0.0038
 43
1.0000
 50
0.0000
  0
INSERT
  8
21
  2
RECT
 10
0.6915
 20
2.6441
 30
0.0000
 41
0.6477
 42
0.0038
 43
1.0000
 50
0.0000
  0
INSERT
  8
21
  2
RECT
 10
-0.5087
 20
2.6480
 30
0.0000
 41
1.0287
 42
0.0039
 43
1.0000
 50
0.0000
  0
INSERT
  8
21
  2
RECT
 10
0.2477
 20
2.6480
 30
0.0000
 41
0.2247
 42
0.0039
 43
1.0000
 50
0.0000
  0
INSERT
  8
21
  2
RECT
 10
0.6858
 20
2.6480
 30
0.0000
 41
0.6286
 42
0.0039
 43
1.0000
 50
0.0000
  0
INSERT
  8
21
  2
RECT
 10
-0.5087
 20
2.6518
 30
0.0000
 41
1.0287
 42
0.0038
 43
1.0000
 50
0.0000
  0
INSERT
  8
21
  2
RECT
 10
0.2496
 20
2.6518
 30
0.0000
 41
0.2286
 42
0.0038
 43
1.0000
 50
0.0000
  0
INSERT
  8
21
  2
RECT
 10
0.6820
 20
2.6518
 30
0.0000
 41
0.6134
 42
0.0038
 43
1.0000
 50
0.0000
  0
INSERT
  8
21
  2
RECT
 10
-0.5106
 20
2.6556
 30
0.0000
 41
1.0325
 42
0.0038
 43
1.0000
 50
0.0000
  0
INSERT
  8
21
  2
RECT
 10
0.2515
 20
2.6556
 30
0.0000
 41
0.2324
 42
0.0038
 43
1.0000
 50
0.0000
  0
INSERT
  8
21
  2
RECT
 10
0.6782
 20
2.6556
 30
0.0000
 41
0.5982
 42
0.0038
 43
1.0000
 50
0.0000
  0
INSERT
  8
21
  2
RECT
 10
-0.5106
 20
2.6594
 30
0.0000
 41
1.0401
 42
0.0038
 43
1.0000
 50
0.0000
  0
INSERT
  8
21
  2
RECT
 10
0.2515
 20
2.6594
 30
0.0000
 41
0.2324
 42
0.0038
 43
1.0000
 50
0.0000
  0
INSERT
  8
21
  2
RECT
 10
0.6763
 20
2.6594
 30
0.0000
 41
0.5791
 42
0.0038
 43
1.0000
 50
0.0000
  0
INSERT
  8
21
  2
RECT
 10
-0.5125
 20
2.6632
 30
0.0000
 41
1.0439
 42
0.0038
 43
1.0000
 50
0.0000
  0
INSERT
  8
21
  2
RECT
 10
0.2534
 20
2.6632
 30
0.0000
 41
0.2362
 42
0.0038
 43
1.0000
 50
0.0000
  0
INSERT
  8
21
  2
RECT
 10
0.6724
 20
2.6632
 30
0.0000
 41
0.5639
 42
0.0038
 43
1.0000
 50
0.0000
  0
INSERT
  8
21
  2
RECT
 10
-0.5125
 20
2.6670
 30
0.0000
 41
1.0439
 42
0.0038
 43
1.0000
 50
0.0000
  0
INSERT
  8
21
  2
RECT
 10
0.2553
 20
2.6670
 30
0.0000
 41
0.2400
 42
0.0038
 43
1.0000
 50
0.0000
  0
INSERT
  8
21
  2
RECT
 10
0.6687
 20
2.6670
 30
0.0000
 41
0.5487
 42
0.0038
 43
1.0000
 50
0.0000
  0
INSERT
  8
21
  2
RECT
 10
-0.5125
 20
2.6708
 30
0.0000
 41
1.0515
 42
0.0038
 43
1.0000
 50
0.0000
  0
INSERT
  8
21
  2
RECT
 10
0.2572
 20
2.6708
 30
0.0000
 41
0.2438
 42
0.0038
 43
1.0000
 50
0.0000
  0
INSERT
  8
21
  2
RECT
 10
0.6668
 20
2.6708
 30
0.0000
 41
0.5295
 42
0.0038
 43
1.0000
 50
0.0000
  0
INSERT
  8
21
  2
RECT
 10
-0.5143
 20
2.6746
 30
0.0000
 41
1.0553
 42
0.0038
 43
1.0000
 50
0.0000
  0
INSERT
  8
21
  2
RECT
 10
0.2572
 20
2.6746
 30
0.0000
 41
0.2438
 42
0.0038
 43
1.0000
 50
0.0000
  0
INSERT
  8
21
  2
RECT
 10
0.6611
 20
2.6746
 30
0.0000
 41
0.5105
 42
0.0038
 43
1.0000
 50
0.0000
  0
INSERT
  8
21
  2
RECT
 10
-0.5125
 20
2.6784
 30
0.0000
 41
1.0591
 42
0.0038
 43
1.0000
 50
0.0000
  0
INSERT
  8
21
  2
RECT
 10
0.2591
 20
2.6784
 30
0.0000
 41
0.2476
 42
0.0038
 43
1.0000
 50
0.0000
  0
INSERT
  8
21
  2
RECT
 10
0.6592
 20
2.6784
 30
0.0000
 41
0.4915
 42
0.0038
 43
1.0000
 50
0.0000
  0
INSERT
  8
21
  2
RECT
 10
-0.5143
 20
2.6822
 30
0.0000
 41
1.0629
 42
0.0038
 43
1.0000
 50
0.0000
  0
INSERT
  8
21
  2
RECT
 10
0.2591
 20
2.6822
 30
0.0000
 41
0.2553
 42
0.0038
 43
1.0000
 50
0.0000
  0
INSERT
  8
21
  2
RECT
 10
0.6553
 20
2.6822
 30
0.0000
 41
0.4762
 42
0.0038
 43
1.0000
 50
0.0000
  0
INSERT
  8
21
  2
RECT
 10
-0.5163
 20
2.6861
 30
0.0000
 41
1.0668
 42
0.0039
 43
1.0000
 50
0.0000
  0
INSERT
  8
21
  2
RECT
 10
0.2610
 20
2.6861
 30
0.0000
 41
0.2591
 42
0.0039
 43
1.0000
 50
0.0000
  0
INSERT
  8
21
  2
RECT
 10
0.6534
 20
2.6861
 30
0.0000
 41
0.4572
 42
0.0039
 43
1.0000
 50
0.0000
  0
INSERT
  8
21
  2
RECT
 10
-0.5162
 20
2.6899
 30
0.0000
 41
1.0745
 42
0.0038
 43
1.0000
 50
0.0000
  0
INSERT
  8
21
  2
RECT
 10
0.2610
 20
2.6899
 30
0.0000
 41
0.2591
 42
0.0038
 43
1.0000
 50
0.0000
  0
INSERT
  8
21
  2
RECT
 10
0.6496
 20
2.6899
 30
0.0000
 41
0.4420
 42
0.0038
 43
1.0000
 50
0.0000
  0
INSERT
  8
21
  2
RECT
 10
-0.5162
 20
2.6937
 30
0.0000
 41
1.0745
 42
0.0038
 43
1.0000
 50
0.0000
  0
INSERT
  8
21
  2
RECT
 10
0.2629
 20
2.6937
 30
0.0000
 41
0.2629
 42
0.0038
 43
1.0000
 50
0.0000
  0
INSERT
  8
21
  2
RECT
 10
0.6477
 20
2.6937
 30
0.0000
 41
0.4230
 42
0.0038
 43
1.0000
 50
0.0000
  0
INSERT
  8
21
  2
RECT
 10
-0.5162
 20
2.6975
 30
0.0000
 41
1.0821
 42
0.0038
 43
1.0000
 50
0.0000
  0
INSERT
  8
21
  2
RECT
 10
0.2647
 20
2.6975
 30
0.0000
 41
0.2667
 42
0.0038
 43
1.0000
 50
0.0000
  0
INSERT
  8
21
  2
RECT
 10
0.6458
 20
2.6975
 30
0.0000
 41
0.4038
 42
0.0038
 43
1.0000
 50
0.0000
  0
INSERT
  8
21
  2
RECT
 10
-0.5181
 20
2.7013
 30
0.0000
 41
1.0859
 42
0.0038
 43
1.0000
 50
0.0000
  0
INSERT
  8
21
  2
RECT
 10
0.2647
 20
2.7013
 30
0.0000
 41
0.2667
 42
0.0038
 43
1.0000
 50
0.0000
  0
INSERT
  8
21
  2
RECT
 10
0.6439
 20
2.7013
 30
0.0000
 41
0.3848
 42
0.0038
 43
1.0000
 50
0.0000
  0
INSERT
  8
21
  2
RECT
 10
-0.5181
 20
2.7051
 30
0.0000
 41
1.0935
 42
0.0038
 43
1.0000
 50
0.0000
  0
INSERT
  8
21
  2
RECT
 10
0.2648
 20
2.7051
 30
0.0000
 41
0.2744
 42
0.0038
 43
1.0000
 50
0.0000
  0
INSERT
  8
21
  2
RECT
 10
0.6401
 20
2.7051
 30
0.0000
 41
0.3620
 42
0.0038
 43
1.0000
 50
0.0000
  0
INSERT
  8
21
  2
RECT
 10
-0.5181
 20
2.7089
 30
0.0000
 41
1.0935
 42
0.0038
 43
1.0000
 50
0.0000
  0
INSERT
  8
21
  2
RECT
 10
0.2667
 20
2.7089
 30
0.0000
 41
0.2782
 42
0.0038
 43
1.0000
 50
0.0000
  0
INSERT
  8
21
  2
RECT
 10
0.6381
 20
2.7089
 30
0.0000
 41
0.3429
 42
0.0038
 43
1.0000
 50
0.0000
  0
INSERT
  8
21
  2
RECT
 10
-0.5181
 20
2.7127
 30
0.0000
 41
1.1011
 42
0.0038
 43
1.0000
 50
0.0000
  0
INSERT
  8
21
  2
RECT
 10
0.2667
 20
2.7127
 30
0.0000
 41
0.2782
 42
0.0038
 43
1.0000
 50
0.0000
  0
INSERT
  8
21
  2
RECT
 10
0.6382
 20
2.7127
 30
0.0000
 41
0.3200
 42
0.0038
 43
1.0000
 50
0.0000
  0
INSERT
  8
21
  2
RECT
 10
-0.6344
 20
2.7165
 30
0.0000
 41
0.8763
 42
0.0038
 43
1.0000
 50
0.0000
  0
INSERT
  8
21
  2
RECT
 10
-0.0800
 20
2.7165
 30
0.0000
 41
0.2248
 42
0.0038
 43
1.0000
 50
0.0000
  0
INSERT
  8
21
  2
RECT
 10
0.2667
 20
2.7165
 30
0.0000
 41
0.2858
 42
0.0038
 43
1.0000
 50
0.0000
  0
INSERT
  8
21
  2
RECT
 10
0.6363
 20
2.7165
 30
0.0000
 41
0.3010
 42
0.0038
 43
1.0000
 50
0.0000
  0
INSERT
  8
21
  2
RECT
 10
-0.6381
 20
2.7203
 30
0.0000
 41
0.8763
 42
0.0038
 43
1.0000
 50
0.0000
  0
INSERT
  8
21
  2
RECT
 10
-0.0800
 20
2.7203
 30
0.0000
 41
0.2324
 42
0.0038
 43
1.0000
 50
0.0000
  0
INSERT
  8
21
  2
RECT
 10
0.2667
 20
2.7203
 30
0.0000
 41
0.2858
 42
0.0038
 43
1.0000
 50
0.0000
  0
INSERT
  8
21
  2
RECT
 10
0.6362
 20
2.7203
 30
0.0000
 41
0.2781
 42
0.0038
 43
1.0000
 50
0.0000
  0
INSERT
  8
21
  2
RECT
 10
-0.6381
 20
2.7242
 30
0.0000
 41
0.8763
 42
0.0039
 43
1.0000
 50
0.0000
  0
INSERT
  8
21
  2
RECT
 10
-0.0781
 20
2.7242
 30
0.0000
 41
0.2362
 42
0.0039
 43
1.0000
 50
0.0000
  0
INSERT
  8
21
  2
RECT
 10
0.2686
 20
2.7242
 30
0.0000
 41
0.2896
 42
0.0039
 43
1.0000
 50
0.0000
  0
INSERT
  8
21
  2
RECT
 10
0.6362
 20
2.7242
 30
0.0000
 41
0.2477
 42
0.0039
 43
1.0000
 50
0.0000
  0
INSERT
  8
21
  2
RECT
 10
-0.6420
 20
2.7280
 30
0.0000
 41
0.8763
 42
0.0038
 43
1.0000
 50
0.0000
  0
INSERT
  8
21
  2
RECT
 10
-0.0800
 20
2.7280
 30
0.0000
 41
0.2400
 42
0.0038
 43
1.0000
 50
0.0000
  0
INSERT
  8
21
  2
RECT
 10
0.2667
 20
2.7280
 30
0.0000
 41
0.2934
 42
0.0038
 43
1.0000
 50
0.0000
  0
INSERT
  8
21
  2
RECT
 10
0.6325
 20
2.7280
 30
0.0000
 41
0.2171
 42
0.0038
 43
1.0000
 50
0.0000
  0
INSERT
  8
21
  2
RECT
 10
-0.6458
 20
2.7318
 30
0.0000
 41
0.8763
 42
0.0038
 43
1.0000
 50
0.0000
  0
INSERT
  8
21
  2
RECT
 10
-0.0781
 20
2.7318
 30
0.0000
 41
0.2438
 42
0.0038
 43
1.0000
 50
0.0000
  0
INSERT
  8
21
  2
RECT
 10
0.2686
 20
2.7318
 30
0.0000
 41
0.2972
 42
0.0038
 43
1.0000
 50
0.0000
  0
INSERT
  8
21
  2
RECT
 10
0.6325
 20
2.7318
 30
0.0000
 41
0.1791
 42
0.0038
 43
1.0000
 50
0.0000
  0
INSERT
  8
21
  2
RECT
 10
-0.6458
 20
2.7356
 30
0.0000
 41
0.8763
 42
0.0038
 43
1.0000
 50
0.0000
  0
INSERT
  8
21
  2
RECT
 10
-0.0762
 20
2.7356
 30
0.0000
 41
0.2476
 42
0.0038
 43
1.0000
 50
0.0000
  0
INSERT
  8
21
  2
RECT
 10
0.2667
 20
2.7356
 30
0.0000
 41
0.3010
 42
0.0038
 43
1.0000
 50
0.0000
  0
INSERT
  8
21
  2
RECT
 10
0.6306
 20
2.7356
 30
0.0000
 41
0.1295
 42
0.0038
 43
1.0000
 50
0.0000
  0
INSERT
  8
21
  2
RECT
 10
-0.6497
 20
2.7394
 30
0.0000
 41
0.8763
 42
0.0038
 43
1.0000
 50
0.0000
  0
INSERT
  8
21
  2
RECT
 10
-0.0762
 20
2.7394
 30
0.0000
 41
0.2552
 42
0.0038
 43
1.0000
 50
0.0000
  0
INSERT
  8
21
  2
RECT
 10
0.2686
 20
2.7394
 30
0.0000
 41
0.3048
 42
0.0038
 43
1.0000
 50
0.0000
  0
INSERT
  8
21
  2
RECT
 10
0.6287
 20
2.7394
 30
0.0000
 41
0.0495
 42
0.0038
 43
1.0000
 50
0.0000
  0
INSERT
  8
21
  2
RECT
 10
-0.6535
 20
2.7432
 30
0.0000
 41
0.8763
 42
0.0038
 43
1.0000
 50
0.0000
  0
INSERT
  8
21
  2
RECT
 10
-0.0743
 20
2.7432
 30
0.0000
 41
0.2590
 42
0.0038
 43
1.0000
 50
0.0000
  0
INSERT
  8
21
  2
RECT
 10
0.2667
 20
2.7432
 30
0.0000
 41
0.3086
 42
0.0038
 43
1.0000
 50
0.0000
  0
INSERT
  8
21
  2
RECT
 10
-0.6553
 20
2.7470
 30
0.0000
 41
0.8801
 42
0.0038
 43
1.0000
 50
0.0000
  0
INSERT
  8
21
  2
RECT
 10
-0.0723
 20
2.7470
 30
0.0000
 41
0.2629
 42
0.0038
 43
1.0000
 50
0.0000
  0
INSERT
  8
21
  2
RECT
 10
0.2667
 20
2.7470
 30
0.0000
 41
0.3162
 42
0.0038
 43
1.0000
 50
0.0000
  0
INSERT
  8
21
  2
RECT
 10
-0.6573
 20
2.7508
 30
0.0000
 41
0.8763
 42
0.0038
 43
1.0000
 50
0.0000
  0
INSERT
  8
21
  2
RECT
 10
-0.0723
 20
2.7508
 30
0.0000
 41
0.2705
 42
0.0038
 43
1.0000
 50
0.0000
  0
INSERT
  8
21
  2
RECT
 10
0.2648
 20
2.7508
 30
0.0000
 41
0.3200
 42
0.0038
 43
1.0000
 50
0.0000
  0
INSERT
  8
21
  2
RECT
 10
-0.6611
 20
2.7546
 30
0.0000
 41
0.8763
 42
0.0038
 43
1.0000
 50
0.0000
  0
INSERT
  8
21
  2
RECT
 10
-0.0685
 20
2.7546
 30
0.0000
 41
0.2781
 42
0.0038
 43
1.0000
 50
0.0000
  0
INSERT
  8
21
  2
RECT
 10
0.2648
 20
2.7546
 30
0.0000
 41
0.3276
 42
0.0038
 43
1.0000
 50
0.0000
  0
INSERT
  8
21
  2
RECT
 10
-0.6630
 20
2.7584
 30
0.0000
 41
0.8801
 42
0.0038
 43
1.0000
 50
0.0000
  0
INSERT
  8
21
  2
RECT
 10
0.1086
 20
2.7584
 30
0.0000
 41
0.6401
 42
0.0038
 43
1.0000
 50
0.0000
  0
INSERT
  8
21
  2
RECT
 10
-0.6668
 20
2.7623
 30
0.0000
 41
0.8801
 42
0.0039
 43
1.0000
 50
0.0000
  0
INSERT
  8
21
  2
RECT
 10
0.1086
 20
2.7623
 30
0.0000
 41
0.6401
 42
0.0039
 43
1.0000
 50
0.0000
  0
INSERT
  8
21
  2
RECT
 10
-0.6687
 20
2.7661
 30
0.0000
 41
0.8763
 42
0.0038
 43
1.0000
 50
0.0000
  0
INSERT
  8
21
  2
RECT
 10
0.1105
 20
2.7661
 30
0.0000
 41
0.6439
 42
0.0038
 43
1.0000
 50
0.0000
  0
INSERT
  8
21
  2
RECT
 10
-0.6724
 20
2.7699
 30
0.0000
 41
0.8763
 42
0.0038
 43
1.0000
 50
0.0000
  0
INSERT
  8
21
  2
RECT
 10
0.1086
 20
2.7699
 30
0.0000
 41
0.6477
 42
0.0038
 43
1.0000
 50
0.0000
  0
INSERT
  8
21
  2
RECT
 10
-0.6744
 20
2.7737
 30
0.0000
 41
0.8801
 42
0.0038
 43
1.0000
 50
0.0000
  0
INSERT
  8
21
  2
RECT
 10
0.1105
 20
2.7737
 30
0.0000
 41
0.6515
 42
0.0038
 43
1.0000
 50
0.0000
  0
INSERT
  8
21
  2
RECT
 10
-0.6763
 20
2.7775
 30
0.0000
 41
0.8763
 42
0.0038
 43
1.0000
 50
0.0000
  0
INSERT
  8
21
  2
RECT
 10
0.1105
 20
2.7775
 30
0.0000
 41
0.6515
 42
0.0038
 43
1.0000
 50
0.0000
  0
INSERT
  8
21
  2
RECT
 10
-0.6801
 20
2.7813
 30
0.0000
 41
0.8763
 42
0.0038
 43
1.0000
 50
0.0000
  0
INSERT
  8
21
  2
RECT
 10
0.1086
 20
2.7813
 30
0.0000
 41
0.6553
 42
0.0038
 43
1.0000
 50
0.0000
  0
INSERT
  8
21
  2
RECT
 10
-0.6839
 20
2.7851
 30
0.0000
 41
0.8763
 42
0.0038
 43
1.0000
 50
0.0000
  0
INSERT
  8
21
  2
RECT
 10
0.1105
 20
2.7851
 30
0.0000
 41
0.6592
 42
0.0038
 43
1.0000
 50
0.0000
  0
INSERT
  8
21
  2
RECT
 10
-0.6839
 20
2.7889
 30
0.0000
 41
0.8763
 42
0.0038
 43
1.0000
 50
0.0000
  0
INSERT
  8
21
  2
RECT
 10
0.1105
 20
2.7889
 30
0.0000
 41
0.6592
 42
0.0038
 43
1.0000
 50
0.0000
  0
INSERT
  8
21
  2
RECT
 10
-0.6878
 20
2.7927
 30
0.0000
 41
0.8763
 42
0.0038
 43
1.0000
 50
0.0000
  0
INSERT
  8
21
  2
RECT
 10
0.1105
 20
2.7927
 30
0.0000
 41
0.6592
 42
0.0038
 43
1.0000
 50
0.0000
  0
INSERT
  8
21
  2
RECT
 10
-0.6915
 20
2.7965
 30
0.0000
 41
0.8763
 42
0.0038
 43
1.0000
 50
0.0000
  0
INSERT
  8
21
  2
RECT
 10
0.1086
 20
2.7965
 30
0.0000
 41
0.6630
 42
0.0038
 43
1.0000
 50
0.0000
  0
INSERT
  8
21
  2
RECT
 10
-0.6935
 20
2.8004
 30
0.0000
 41
0.8725
 42
0.0039
 43
1.0000
 50
0.0000
  0
INSERT
  8
21
  2
RECT
 10
0.1105
 20
2.8004
 30
0.0000
 41
0.6668
 42
0.0039
 43
1.0000
 50
0.0000
  0
INSERT
  8
21
  2
RECT
 10
-0.6973
 20
2.8042
 30
0.0000
 41
0.8725
 42
0.0038
 43
1.0000
 50
0.0000
  0
INSERT
  8
21
  2
RECT
 10
0.1105
 20
2.8042
 30
0.0000
 41
0.6668
 42
0.0038
 43
1.0000
 50
0.0000
  0
INSERT
  8
21
  2
RECT
 10
-0.6992
 20
2.8080
 30
0.0000
 41
0.8687
 42
0.0038
 43
1.0000
 50
0.0000
  0
INSERT
  8
21
  2
RECT
 10
0.1086
 20
2.8080
 30
0.0000
 41
0.6706
 42
0.0038
 43
1.0000
 50
0.0000
  0
INSERT
  8
21
  2
RECT
 10
-0.7030
 20
2.8118
 30
0.0000
 41
0.8687
 42
0.0038
 43
1.0000
 50
0.0000
  0
INSERT
  8
21
  2
RECT
 10
0.1086
 20
2.8118
 30
0.0000
 41
0.6706
 42
0.0038
 43
1.0000
 50
0.0000
  0
INSERT
  8
21
  2
RECT
 10
-0.7049
 20
2.8156
 30
0.0000
 41
0.8649
 42
0.0038
 43
1.0000
 50
0.0000
  0
INSERT
  8
21
  2
RECT
 10
0.1105
 20
2.8156
 30
0.0000
 41
0.6744
 42
0.0038
 43
1.0000
 50
0.0000
  0
INSERT
  8
21
  2
RECT
 10
-0.7067
 20
2.8194
 30
0.0000
 41
0.8611
 42
0.0038
 43
1.0000
 50
0.0000
  0
INSERT
  8
21
  2
RECT
 10
0.1105
 20
2.8194
 30
0.0000
 41
0.6744
 42
0.0038
 43
1.0000
 50
0.0000
  0
INSERT
  8
21
  2
RECT
 10
-0.7106
 20
2.8232
 30
0.0000
 41
0.8611
 42
0.0038
 43
1.0000
 50
0.0000
  0
INSERT
  8
21
  2
RECT
 10
0.1105
 20
2.8232
 30
0.0000
 41
0.6744
 42
0.0038
 43
1.0000
 50
0.0000
  0
INSERT
  8
21
  2
RECT
 10
-0.7125
 20
2.8270
 30
0.0000
 41
0.8573
 42
0.0038
 43
1.0000
 50
0.0000
  0
INSERT
  8
21
  2
RECT
 10
0.1086
 20
2.8270
 30
0.0000
 41
0.6782
 42
0.0038
 43
1.0000
 50
0.0000
  0
INSERT
  8
21
  2
RECT
 10
-0.7144
 20
2.8308
 30
0.0000
 41
0.8534
 42
0.0038
 43
1.0000
 50
0.0000
  0
INSERT
  8
21
  2
RECT
 10
0.1086
 20
2.8308
 30
0.0000
 41
0.6782
 42
0.0038
 43
1.0000
 50
0.0000
  0
INSERT
  8
21
  2
RECT
 10
-0.7182
 20
2.8346
 30
0.0000
 41
0.8458
 42
0.0038
 43
1.0000
 50
0.0000
  0
INSERT
  8
21
  2
RECT
 10
0.1105
 20
2.8346
 30
0.0000
 41
0.6820
 42
0.0038
 43
1.0000
 50
0.0000
  0
INSERT
  8
21
  2
RECT
 10
-0.7201
 20
2.8384
 30
0.0000
 41
0.8420
 42
0.0039
 43
1.0000
 50
0.0000
  0
INSERT
  8
21
  2
RECT
 10
0.1105
 20
2.8384
 30
0.0000
 41
0.6820
 42
0.0039
 43
1.0000
 50
0.0000
  0
INSERT
  8
21
  2
RECT
 10
-0.7239
 20
2.8423
 30
0.0000
 41
0.8420
 42
0.0038
 43
1.0000
 50
0.0000
  0
INSERT
  8
21
  2
RECT
 10
0.1105
 20
2.8423
 30
0.0000
 41
0.6820
 42
0.0038
 43
1.0000
 50
0.0000
  0
INSERT
  8
21
  2
RECT
 10
-0.7239
 20
2.8461
 30
0.0000
 41
0.8344
 42
0.0038
 43
1.0000
 50
0.0000
  0
INSERT
  8
21
  2
RECT
 10
0.1105
 20
2.8461
 30
0.0000
 41
0.6820
 42
0.0038
 43
1.0000
 50
0.0000
  0
INSERT
  8
21
  2
RECT
 10
-0.7277
 20
2.8499
 30
0.0000
 41
0.8268
 42
0.0038
 43
1.0000
 50
0.0000
  0
INSERT
  8
21
  2
RECT
 10
0.1105
 20
2.8499
 30
0.0000
 41
0.6820
 42
0.0038
 43
1.0000
 50
0.0000
  0
INSERT
  8
21
  2
RECT
 10
-0.7296
 20
2.8537
 30
0.0000
 41
0.8230
 42
0.0038
 43
1.0000
 50
0.0000
  0
INSERT
  8
21
  2
RECT
 10
0.1086
 20
2.8537
 30
0.0000
 41
0.6858
 42
0.0038
 43
1.0000
 50
0.0000
  0
INSERT
  8
21
  2
RECT
 10
-0.7335
 20
2.8575
 30
0.0000
 41
0.8153
 42
0.0038
 43
1.0000
 50
0.0000
  0
INSERT
  8
21
  2
RECT
 10
0.1105
 20
2.8575
 30
0.0000
 41
0.6896
 42
0.0038
 43
1.0000
 50
0.0000
  0
INSERT
  8
21
  2
RECT
 10
-0.7354
 20
2.8613
 30
0.0000
 41
0.8115
 42
0.0038
 43
1.0000
 50
0.0000
  0
INSERT
  8
21
  2
RECT
 10
0.1105
 20
2.8613
 30
0.0000
 41
0.6896
 42
0.0038
 43
1.0000
 50
0.0000
  0
INSERT
  8
21
  2
RECT
 10
-0.7392
 20
2.8651
 30
0.0000
 41
0.8039
 42
0.0038
 43
1.0000
 50
0.0000
  0
INSERT
  8
21
  2
RECT
 10
0.1105
 20
2.8651
 30
0.0000
 41
0.6896
 42
0.0038
 43
1.0000
 50
0.0000
  0
INSERT
  8
21
  2
RECT
 10
-0.7410
 20
2.8689
 30
0.0000
 41
0.7925
 42
0.0038
 43
1.0000
 50
0.0000
  0
INSERT
  8
21
  2
RECT
 10
0.1105
 20
2.8689
 30
0.0000
 41
0.6896
 42
0.0038
 43
1.0000
 50
0.0000
  0
INSERT
  8
21
  2
RECT
 10
-0.7429
 20
2.8727
 30
0.0000
 41
0.7887
 42
0.0038
 43
1.0000
 50
0.0000
  0
INSERT
  8
21
  2
RECT
 10
0.1105
 20
2.8727
 30
0.0000
 41
0.6896
 42
0.0038
 43
1.0000
 50
0.0000
  0
INSERT
  8
21
  2
RECT
 10
-0.7449
 20
2.8765
 30
0.0000
 41
0.7773
 42
0.0039
 43
1.0000
 50
0.0000
  0
INSERT
  8
21
  2
RECT
 10
0.1105
 20
2.8765
 30
0.0000
 41
0.6896
 42
0.0039
 43
1.0000
 50
0.0000
  0
INSERT
  8
21
  2
RECT
 10
-0.7487
 20
2.8804
 30
0.0000
 41
0.7696
 42
0.0038
 43
1.0000
 50
0.0000
  0
INSERT
  8
21
  2
RECT
 10
0.1105
 20
2.8804
 30
0.0000
 41
0.6896
 42
0.0038
 43
1.0000
 50
0.0000
  0
INSERT
  8
21
  2
RECT
 10
-0.7525
 20
2.8842
 30
0.0000
 41
0.7620
 42
0.0038
 43
1.0000
 50
0.0000
  0
INSERT
  8
21
  2
RECT
 10
0.1105
 20
2.8842
 30
0.0000
 41
0.6896
 42
0.0038
 43
1.0000
 50
0.0000
  0
INSERT
  8
21
  2
RECT
 10
-0.7544
 20
2.8880
 30
0.0000
 41
0.7506
 42
0.0038
 43
1.0000
 50
0.0000
  0
INSERT
  8
21
  2
RECT
 10
0.1105
 20
2.8880
 30
0.0000
 41
0.6896
 42
0.0038
 43
1.0000
 50
0.0000
  0
INSERT
  8
21
  2
RECT
 10
-0.7582
 20
2.8918
 30
0.0000
 41
0.7354
 42
0.0038
 43
1.0000
 50
0.0000
  0
INSERT
  8
21
  2
RECT
 10
0.1105
 20
2.8918
 30
0.0000
 41
0.6896
 42
0.0038
 43
1.0000
 50
0.0000
  0
INSERT
  8
21
  2
RECT
 10
-0.7620
 20
2.8956
 30
0.0000
 41
0.7278
 42
0.0038
 43
1.0000
 50
0.0000
  0
INSERT
  8
21
  2
RECT
 10
0.1105
 20
2.8956
 30
0.0000
 41
0.6896
 42
0.0038
 43
1.0000
 50
0.0000
  0
INSERT
  8
21
  2
RECT
 10
-0.7658
 20
2.8994
 30
0.0000
 41
0.7124
 42
0.0038
 43
1.0000
 50
0.0000
  0
INSERT
  8
21
  2
RECT
 10
0.1105
 20
2.8994
 30
0.0000
 41
0.6896
 42
0.0038
 43
1.0000
 50
0.0000
  0
INSERT
  8
21
  2
RECT
 10
-0.7696
 20
2.9032
 30
0.0000
 41
0.6972
 42
0.0038
 43
1.0000
 50
0.0000
  0
INSERT
  8
21
  2
RECT
 10
0.1105
 20
2.9032
 30
0.0000
 41
0.6896
 42
0.0038
 43
1.0000
 50
0.0000
  0
INSERT
  8
21
  2
RECT
 10
-0.7753
 20
2.9070
 30
0.0000
 41
0.6858
 42
0.0038
 43
1.0000
 50
0.0000
  0
INSERT
  8
21
  2
RECT
 10
0.1105
 20
2.9070
 30
0.0000
 41
0.6896
 42
0.0038
 43
1.0000
 50
0.0000
  0
INSERT
  8
21
  2
RECT
 10
-0.7792
 20
2.9108
 30
0.0000
 41
0.6705
 42
0.0038
 43
1.0000
 50
0.0000
  0
INSERT
  8
21
  2
RECT
 10
0.1105
 20
2.9108
 30
0.0000
 41
0.6896
 42
0.0038
 43
1.0000
 50
0.0000
  0
INSERT
  8
21
  2
RECT
 10
-0.7830
 20
2.9146
 30
0.0000
 41
0.6477
 42
0.0039
 43
1.0000
 50
0.0000
  0
INSERT
  8
21
  2
RECT
 10
0.1105
 20
2.9146
 30
0.0000
 41
0.6896
 42
0.0039
 43
1.0000
 50
0.0000
  0
INSERT
  8
21
  2
RECT
 10
-0.7887
 20
2.9185
 30
0.0000
 41
0.6287
 42
0.0038
 43
1.0000
 50
0.0000
  0
INSERT
  8
21
  2
RECT
 10
0.1105
 20
2.9185
 30
0.0000
 41
0.6896
 42
0.0038
 43
1.0000
 50
0.0000
  0
INSERT
  8
21
  2
RECT
 10
-0.7925
 20
2.9223
 30
0.0000
 41
0.6058
 42
0.0038
 43
1.0000
 50
0.0000
  0
INSERT
  8
21
  2
RECT
 10
0.1105
 20
2.9223
 30
0.0000
 41
0.6896
 42
0.0038
 43
1.0000
 50
0.0000
  0
INSERT
  8
21
  2
RECT
 10
-0.8001
 20
2.9261
 30
0.0000
 41
0.5754
 42
0.0038
 43
1.0000
 50
0.0000
  0
INSERT
  8
21
  2
RECT
 10
0.1124
 20
2.9261
 30
0.0000
 41
0.6858
 42
0.0038
 43
1.0000
 50
0.0000
  0
INSERT
  8
21
  2
RECT
 10
-0.8077
 20
2.9299
 30
0.0000
 41
0.5372
 42
0.0038
 43
1.0000
 50
0.0000
  0
INSERT
  8
21
  2
RECT
 10
0.1124
 20
2.9299
 30
0.0000
 41
0.6858
 42
0.0038
 43
1.0000
 50
0.0000
  0
INSERT
  8
21
  2
RECT
 10
-0.8954
 20
2.9337
 30
0.0000
 41
0.3009
 42
0.0038
 43
1.0000
 50
0.0000
  0
INSERT
  8
21
  2
RECT
 10
0.1124
 20
2.9337
 30
0.0000
 41
0.6858
 42
0.0038
 43
1.0000
 50
0.0000
  0
INSERT
  8
21
  2
RECT
 10
0.1124
 20
2.9375
 30
0.0000
 41
0.6858
 42
0.0038
 43
1.0000
 50
0.0000
  0
INSERT
  8
21
  2
RECT
 10
0.1124
 20
2.9413
 30
0.0000
 41
0.6858
 42
0.0038
 43
1.0000
 50
0.0000
  0
INSERT
  8
21
  2
RECT
 10
0.1124
 20
2.9451
 30
0.0000
 41
0.6858
 42
0.0038
 43
1.0000
 50
0.0000
  0
INSERT
  8
21
  2
RECT
 10
0.1124
 20
2.9489
 30
0.0000
 41
0.6858
 42
0.0038
 43
1.0000
 50
0.0000
  0
INSERT
  8
21
  2
RECT
 10
0.1143
 20
2.9527
 30
0.0000
 41
0.6820
 42
0.0039
 43
1.0000
 50
0.0000
  0
INSERT
  8
21
  2
RECT
 10
0.1143
 20
2.9566
 30
0.0000
 41
0.6820
 42
0.0038
 43
1.0000
 50
0.0000
  0
INSERT
  8
21
  2
RECT
 10
0.1143
 20
2.9604
 30
0.0000
 41
0.6820
 42
0.0038
 43
1.0000
 50
0.0000
  0
INSERT
  8
21
  2
RECT
 10
0.1143
 20
2.9642
 30
0.0000
 41
0.6820
 42
0.0038
 43
1.0000
 50
0.0000
  0
INSERT
  8
21
  2
RECT
 10
0.1124
 20
2.9680
 30
0.0000
 41
0.6782
 42
0.0038
 43
1.0000
 50
0.0000
  0
INSERT
  8
21
  2
RECT
 10
0.1143
 20
2.9718
 30
0.0000
 41
0.6744
 42
0.0038
 43
1.0000
 50
0.0000
  0
INSERT
  8
21
  2
RECT
 10
0.1143
 20
2.9756
 30
0.0000
 41
0.6744
 42
0.0038
 43
1.0000
 50
0.0000
  0
INSERT
  8
21
  2
RECT
 10
0.1143
 20
2.9794
 30
0.0000
 41
0.6744
 42
0.0038
 43
1.0000
 50
0.0000
  0
INSERT
  8
21
  2
RECT
 10
0.1143
 20
2.9832
 30
0.0000
 41
0.6744
 42
0.0038
 43
1.0000
 50
0.0000
  0
INSERT
  8
21
  2
RECT
 10
0.1162
 20
2.9870
 30
0.0000
 41
0.6706
 42
0.0038
 43
1.0000
 50
0.0000
  0
INSERT
  8
21
  2
RECT
 10
0.1162
 20
2.9909
 30
0.0000
 41
0.6706
 42
0.0039
 43
1.0000
 50
0.0000
  0
INSERT
  8
21
  2
RECT
 10
0.1162
 20
2.9947
 30
0.0000
 41
0.6706
 42
0.0038
 43
1.0000
 50
0.0000
  0
INSERT
  8
21
  2
RECT
 10
0.1143
 20
2.9985
 30
0.0000
 41
0.6668
 42
0.0038
 43
1.0000
 50
0.0000
  0
INSERT
  8
21
  2
RECT
 10
0.1162
 20
3.0023
 30
0.0000
 41
0.6630
 42
0.0038
 43
1.0000
 50
0.0000
  0
INSERT
  8
21
  2
RECT
 10
0.1162
 20
3.0061
 30
0.0000
 41
0.6630
 42
0.0038
 43
1.0000
 50
0.0000
  0
INSERT
  8
21
  2
RECT
 10
0.1162
 20
3.0099
 30
0.0000
 41
0.6630
 42
0.0038
 43
1.0000
 50
0.0000
  0
INSERT
  8
21
  2
RECT
 10
0.1181
 20
3.0137
 30
0.0000
 41
0.6592
 42
0.0038
 43
1.0000
 50
0.0000
  0
INSERT
  8
21
  2
RECT
 10
0.1162
 20
3.0175
 30
0.0000
 41
0.6554
 42
0.0038
 43
1.0000
 50
0.0000
  0
INSERT
  8
21
  2
RECT
 10
0.1162
 20
3.0213
 30
0.0000
 41
0.6554
 42
0.0038
 43
1.0000
 50
0.0000
  0
INSERT
  8
21
  2
RECT
 10
0.1182
 20
3.0251
 30
0.0000
 41
0.6515
 42
0.0038
 43
1.0000
 50
0.0000
  0
INSERT
  8
21
  2
RECT
 10
0.1182
 20
3.0290
 30
0.0000
 41
0.6515
 42
0.0039
 43
1.0000
 50
0.0000
  0
INSERT
  8
21
  2
RECT
 10
0.1182
 20
3.0328
 30
0.0000
 41
0.6515
 42
0.0038
 43
1.0000
 50
0.0000
  0
INSERT
  8
21
  2
RECT
 10
0.1182
 20
3.0366
 30
0.0000
 41
0.6439
 42
0.0038
 43
1.0000
 50
0.0000
  0
INSERT
  8
21
  2
RECT
 10
0.1182
 20
3.0404
 30
0.0000
 41
0.6439
 42
0.0038
 43
1.0000
 50
0.0000
  0
INSERT
  8
21
  2
RECT
 10
0.1182
 20
3.0442
 30
0.0000
 41
0.6439
 42
0.0038
 43
1.0000
 50
0.0000
  0
INSERT
  8
21
  2
RECT
 10
0.1201
 20
3.0480
 30
0.0000
 41
0.6401
 42
0.0038
 43
1.0000
 50
0.0000
  0
INSERT
  8
21
  2
RECT
 10
0.1181
 20
3.0518
 30
0.0000
 41
0.6362
 42
0.0038
 43
1.0000
 50
0.0000
  0
INSERT
  8
21
  2
RECT
 10
0.1200
 20
3.0556
 30
0.0000
 41
0.6324
 42
0.0038
 43
1.0000
 50
0.0000
  0
INSERT
  8
21
  2
RECT
 10
0.1200
 20
3.0594
 30
0.0000
 41
0.6324
 42
0.0038
 43
1.0000
 50
0.0000
  0
INSERT
  8
21
  2
RECT
 10
0.1200
 20
3.0632
 30
0.0000
 41
0.6324
 42
0.0038
 43
1.0000
 50
0.0000
  0
INSERT
  8
21
  2
RECT
 10
0.1200
 20
3.0671
 30
0.0000
 41
0.6248
 42
0.0039
 43
1.0000
 50
0.0000
  0
INSERT
  8
21
  2
RECT
 10
0.1200
 20
3.0709
 30
0.0000
 41
0.6248
 42
0.0038
 43
1.0000
 50
0.0000
  0
INSERT
  8
21
  2
RECT
 10
0.1219
 20
3.0747
 30
0.0000
 41
0.6210
 42
0.0038
 43
1.0000
 50
0.0000
  0
INSERT
  8
21
  2
RECT
 10
0.1200
 20
3.0785
 30
0.0000
 41
0.6172
 42
0.0038
 43
1.0000
 50
0.0000
  0
INSERT
  8
21
  2
RECT
 10
0.1219
 20
3.0823
 30
0.0000
 41
0.6134
 42
0.0038
 43
1.0000
 50
0.0000
  0
INSERT
  8
21
  2
RECT
 10
0.1219
 20
3.0861
 30
0.0000
 41
0.6134
 42
0.0038
 43
1.0000
 50
0.0000
  0
INSERT
  8
21
  2
RECT
 10
0.1219
 20
3.0899
 30
0.0000
 41
0.6058
 42
0.0038
 43
1.0000
 50
0.0000
  0
INSERT
  8
21
  2
RECT
 10
0.1219
 20
3.0937
 30
0.0000
 41
0.6058
 42
0.0038
 43
1.0000
 50
0.0000
  0
INSERT
  8
21
  2
RECT
 10
0.1238
 20
3.0975
 30
0.0000
 41
0.6020
 42
0.0038
 43
1.0000
 50
0.0000
  0
INSERT
  8
21
  2
RECT
 10
0.1219
 20
3.1013
 30
0.0000
 41
0.5982
 42
0.0038
 43
1.0000
 50
0.0000
  0
INSERT
  8
21
  2
RECT
 10
0.1238
 20
3.1052
 30
0.0000
 41
0.5944
 42
0.0039
 43
1.0000
 50
0.0000
  0
INSERT
  8
21
  2
RECT
 10
0.1238
 20
3.1090
 30
0.0000
 41
0.5944
 42
0.0038
 43
1.0000
 50
0.0000
  0
INSERT
  8
21
  2
RECT
 10
0.1239
 20
3.1128
 30
0.0000
 41
0.5867
 42
0.0038
 43
1.0000
 50
0.0000
  0
INSERT
  8
21
  2
RECT
 10
0.1239
 20
3.1166
 30
0.0000
 41
0.5867
 42
0.0038
 43
1.0000
 50
0.0000
  0
INSERT
  8
21
  2
RECT
 10
0.1258
 20
3.1204
 30
0.0000
 41
0.5829
 42
0.0038
 43
1.0000
 50
0.0000
  0
INSERT
  8
21
  2
RECT
 10
0.1258
 20
3.1242
 30
0.0000
 41
0.5829
 42
0.0038
 43
1.0000
 50
0.0000
  0
INSERT
  8
21
  2
RECT
 10
0.1258
 20
3.1280
 30
0.0000
 41
0.5753
 42
0.0038
 43
1.0000
 50
0.0000
  0
INSERT
  8
21
  2
RECT
 10
0.1277
 20
3.1318
 30
0.0000
 41
0.5715
 42
0.0038
 43
1.0000
 50
0.0000
  0
INSERT
  8
21
  2
RECT
 10
0.1277
 20
3.1356
 30
0.0000
 41
0.5715
 42
0.0038
 43
1.0000
 50
0.0000
  0
INSERT
  8
21
  2
RECT
 10
0.1277
 20
3.1394
 30
0.0000
 41
0.5639
 42
0.0038
 43
1.0000
 50
0.0000
  0
INSERT
  8
21
  2
RECT
 10
0.1277
 20
3.1433
 30
0.0000
 41
0.5639
 42
0.0039
 43
1.0000
 50
0.0000
  0
INSERT
  8
21
  2
RECT
 10
0.1295
 20
3.1471
 30
0.0000
 41
0.5601
 42
0.0038
 43
1.0000
 50
0.0000
  0
INSERT
  8
21
  2
RECT
 10
0.1295
 20
3.1509
 30
0.0000
 41
0.5525
 42
0.0038
 43
1.0000
 50
0.0000
  0
INSERT
  8
21
  2
RECT
 10
0.1295
 20
3.1547
 30
0.0000
 41
0.5525
 42
0.0038
 43
1.0000
 50
0.0000
  0
INSERT
  8
21
  2
RECT
 10
0.1315
 20
3.1585
 30
0.0000
 41
0.5487
 42
0.0038
 43
1.0000
 50
0.0000
  0
INSERT
  8
21
  2
RECT
 10
0.1315
 20
3.1623
 30
0.0000
 41
0.5411
 42
0.0038
 43
1.0000
 50
0.0000
  0
INSERT
  8
21
  2
RECT
 10
0.1315
 20
3.1661
 30
0.0000
 41
0.5411
 42
0.0038
 43
1.0000
 50
0.0000
  0
INSERT
  8
21
  2
RECT
 10
0.1333
 20
3.1699
 30
0.0000
 41
0.5373
 42
0.0038
 43
1.0000
 50
0.0000
  0
INSERT
  8
21
  2
RECT
 10
0.1333
 20
3.1737
 30
0.0000
 41
0.5295
 42
0.0038
 43
1.0000
 50
0.0000
  0
INSERT
  8
21
  2
RECT
 10
0.1353
 20
3.1775
 30
0.0000
 41
0.5257
 42
0.0038
 43
1.0000
 50
0.0000
  0
INSERT
  8
21
  2
RECT
 10
0.1353
 20
3.1814
 30
0.0000
 41
0.5257
 42
0.0039
 43
1.0000
 50
0.0000
  0
INSERT
  8
21
  2
RECT
 10
0.1353
 20
3.1852
 30
0.0000
 41
0.5181
 42
0.0038
 43
1.0000
 50
0.0000
  0
INSERT
  8
21
  2
RECT
 10
0.1371
 20
3.1890
 30
0.0000
 41
0.5143
 42
0.0038
 43
1.0000
 50
0.0000
  0
INSERT
  8
21
  2
RECT
 10
0.1391
 20
3.1928
 30
0.0000
 41
0.5105
 42
0.0038
 43
1.0000
 50
0.0000
  0
INSERT
  8
21
  2
RECT
 10
0.1371
 20
3.1966
 30
0.0000
 41
0.5067
 42
0.0038
 43
1.0000
 50
0.0000
  0
INSERT
  8
21
  2
RECT
 10
0.1391
 20
3.2004
 30
0.0000
 41
0.5029
 42
0.0038
 43
1.0000
 50
0.0000
  0
INSERT
  8
21
  2
RECT
 10
0.1410
 20
3.2042
 30
0.0000
 41
0.4991
 42
0.0038
 43
1.0000
 50
0.0000
  0
INSERT
  8
21
  2
RECT
 10
0.1391
 20
3.2080
 30
0.0000
 41
0.4953
 42
0.0038
 43
1.0000
 50
0.0000
  0
INSERT
  8
21
  2
RECT
 10
0.1410
 20
3.2118
 30
0.0000
 41
0.4915
 42
0.0038
 43
1.0000
 50
0.0000
  0
INSERT
  8
21
  2
RECT
 10
0.1429
 20
3.2156
 30
0.0000
 41
0.4877
 42
0.0038
 43
1.0000
 50
0.0000
  0
INSERT
  8
21
  2
RECT
 10
0.1429
 20
3.2195
 30
0.0000
 41
0.4801
 42
0.0039
 43
1.0000
 50
0.0000
  0
INSERT
  8
21
  2
RECT
 10
0.1429
 20
3.2233
 30
0.0000
 41
0.4801
 42
0.0038
 43
1.0000
 50
0.0000
  0
INSERT
  8
21
  2
RECT
 10
0.1448
 20
3.2271
 30
0.0000
 41
0.4762
 42
0.0038
 43
1.0000
 50
0.0000
  0
INSERT
  8
21
  2
RECT
 10
0.1467
 20
3.2309
 30
0.0000
 41
0.4724
 42
0.0038
 43
1.0000
 50
0.0000
  0
INSERT
  8
21
  2
RECT
 10
0.1448
 20
3.2347
 30
0.0000
 41
0.4686
 42
0.0038
 43
1.0000
 50
0.0000
  0
INSERT
  8
21
  2
RECT
 10
0.1467
 20
3.2385
 30
0.0000
 41
0.4648
 42
0.0038
 43
1.0000
 50
0.0000
  0
INSERT
  8
21
  2
RECT
 10
0.1486
 20
3.2423
 30
0.0000
 41
0.4610
 42
0.0038
 43
1.0000
 50
0.0000
  0
INSERT
  8
21
  2
RECT
 10
0.1486
 20
3.2461
 30
0.0000
 41
0.4534
 42
0.0038
 43
1.0000
 50
0.0000
  0
INSERT
  8
21
  2
RECT
 10
0.1486
 20
3.2499
 30
0.0000
 41
0.4534
 42
0.0038
 43
1.0000
 50
0.0000
  0
INSERT
  8
21
  2
RECT
 10
0.1505
 20
3.2537
 30
0.0000
 41
0.4496
 42
0.0038
 43
1.0000
 50
0.0000
  0
INSERT
  8
21
  2
RECT
 10
0.1505
 20
3.2576
 30
0.0000
 41
0.4420
 42
0.0039
 43
1.0000
 50
0.0000
  0
INSERT
  8
21
  2
RECT
 10
0.1505
 20
3.2614
 30
0.0000
 41
0.4420
 42
0.0038
 43
1.0000
 50
0.0000
  0
INSERT
  8
21
  2
RECT
 10
0.1524
 20
3.2652
 30
0.0000
 41
0.4382
 42
0.0038
 43
1.0000
 50
0.0000
  0
INSERT
  8
21
  2
RECT
 10
0.1524
 20
3.2690
 30
0.0000
 41
0.4306
 42
0.0038
 43
1.0000
 50
0.0000
  0
INSERT
  8
21
  2
RECT
 10
0.1543
 20
3.2728
 30
0.0000
 41
0.4268
 42
0.0038
 43
1.0000
 50
0.0000
  0
INSERT
  8
21
  2
RECT
 10
0.1543
 20
3.2766
 30
0.0000
 41
0.4268
 42
0.0038
 43
1.0000
 50
0.0000
  0
INSERT
  8
21
  2
RECT
 10
0.1544
 20
3.2804
 30
0.0000
 41
0.4191
 42
0.0038
 43
1.0000
 50
0.0000
  0
INSERT
  8
21
  2
RECT
 10
0.1562
 20
3.2842
 30
0.0000
 41
0.4153
 42
0.0038
 43
1.0000
 50
0.0000
  0
INSERT
  8
21
  2
RECT
 10
0.1562
 20
3.2880
 30
0.0000
 41
0.4153
 42
0.0038
 43
1.0000
 50
0.0000
  0
INSERT
  8
21
  2
RECT
 10
0.1562
 20
3.2918
 30
0.0000
 41
0.4076
 42
0.0038
 43
1.0000
 50
0.0000
  0
INSERT
  8
21
  2
RECT
 10
0.1581
 20
3.2957
 30
0.0000
 41
0.4038
 42
0.0039
 43
1.0000
 50
0.0000
  0
INSERT
  8
21
  2
RECT
 10
0.1600
 20
3.2995
 30
0.0000
 41
0.4000
 42
0.0038
 43
1.0000
 50
0.0000
  0
INSERT
  8
21
  2
RECT
 10
0.1581
 20
3.3033
 30
0.0000
 41
0.3962
 42
0.0038
 43
1.0000
 50
0.0000
  0
INSERT
  8
21
  2
RECT
 10
0.1600
 20
3.3071
 30
0.0000
 41
0.3924
 42
0.0038
 43
1.0000
 50
0.0000
  0
INSERT
  8
21
  2
RECT
 10
0.1619
 20
3.3109
 30
0.0000
 41
0.3886
 42
0.0038
 43
1.0000
 50
0.0000
  0
INSERT
  8
21
  2
RECT
 10
0.1619
 20
3.3147
 30
0.0000
 41
0.3810
 42
0.0038
 43
1.0000
 50
0.0000
  0
INSERT
  8
21
  2
RECT
 10
0.1619
 20
3.3185
 30
0.0000
 41
0.3810
 42
0.0038
 43
1.0000
 50
0.0000
  0
INSERT
  8
21
  2
RECT
 10
0.1638
 20
3.3223
 30
0.0000
 41
0.3772
 42
0.0038
 43
1.0000
 50
0.0000
  0
INSERT
  8
21
  2
RECT
 10
0.1657
 20
3.3261
 30
0.0000
 41
0.3734
 42
0.0038
 43
1.0000
 50
0.0000
  0
INSERT
  8
21
  2
RECT
 10
0.1638
 20
3.3299
 30
0.0000
 41
0.3696
 42
0.0038
 43
1.0000
 50
0.0000
  0
INSERT
  8
21
  2
RECT
 10
0.1658
 20
3.3338
 30
0.0000
 41
0.3657
 42
0.0039
 43
1.0000
 50
0.0000
  0
INSERT
  8
21
  2
RECT
 10
0.1677
 20
3.3376
 30
0.0000
 41
0.3619
 42
0.0038
 43
1.0000
 50
0.0000
  0
INSERT
  8
21
  2
RECT
 10
0.1677
 20
3.3414
 30
0.0000
 41
0.3543
 42
0.0038
 43
1.0000
 50
0.0000
  0
INSERT
  8
21
  2
RECT
 10
0.1677
 20
3.3452
 30
0.0000
 41
0.3543
 42
0.0038
 43
1.0000
 50
0.0000
  0
INSERT
  8
21
  2
RECT
 10
0.1696
 20
3.3490
 30
0.0000
 41
0.3505
 42
0.0038
 43
1.0000
 50
0.0000
  0
INSERT
  8
21
  2
RECT
 10
0.1696
 20
3.3528
 30
0.0000
 41
0.3429
 42
0.0038
 43
1.0000
 50
0.0000
  0
INSERT
  8
21
  2
RECT
 10
0.1696
 20
3.3566
 30
0.0000
 41
0.3429
 42
0.0038
 43
1.0000
 50
0.0000
  0
INSERT
  8
21
  2
RECT
 10
0.1715
 20
3.3604
 30
0.0000
 41
0.3391
 42
0.0038
 43
1.0000
 50
0.0000
  0
INSERT
  8
21
  2
RECT
 10
0.1715
 20
3.3642
 30
0.0000
 41
0.3315
 42
0.0038
 43
1.0000
 50
0.0000
  0
INSERT
  8
21
  2
RECT
 10
0.1734
 20
3.3680
 30
0.0000
 41
0.3277
 42
0.0038
 43
1.0000
 50
0.0000
  0
INSERT
  8
21
  2
RECT
 10
0.1734
 20
3.3719
 30
0.0000
 41
0.3277
 42
0.0039
 43
1.0000
 50
0.0000
  0
INSERT
  8
21
  2
RECT
 10
0.1734
 20
3.3757
 30
0.0000
 41
0.3201
 42
0.0038
 43
1.0000
 50
0.0000
  0
INSERT
  8
21
  2
RECT
 10
0.1753
 20
3.3795
 30
0.0000
 41
0.3163
 42
0.0038
 43
1.0000
 50
0.0000
  0
INSERT
  8
21
  2
RECT
 10
0.1753
 20
3.3833
 30
0.0000
 41
0.3163
 42
0.0038
 43
1.0000
 50
0.0000
  0
INSERT
  8
21
  2
RECT
 10
0.1753
 20
3.3871
 30
0.0000
 41
0.3086
 42
0.0038
 43
1.0000
 50
0.0000
  0
INSERT
  8
21
  2
RECT
 10
0.1772
 20
3.3909
 30
0.0000
 41
0.3048
 42
0.0038
 43
1.0000
 50
0.0000
  0
INSERT
  8
21
  2
RECT
 10
0.1791
 20
3.3947
 30
0.0000
 41
0.3010
 42
0.0038
 43
1.0000
 50
0.0000
  0
INSERT
  8
21
  2
RECT
 10
0.1772
 20
3.3985
 30
0.0000
 41
0.2972
 42
0.0038
 43
1.0000
 50
0.0000
  0
INSERT
  8
21
  2
RECT
 10
0.1791
 20
3.4023
 30
0.0000
 41
0.2934
 42
0.0038
 43
1.0000
 50
0.0000
  0
INSERT
  8
21
  2
RECT
 10
0.1810
 20
3.4061
 30
0.0000
 41
0.2896
 42
0.0038
 43
1.0000
 50
0.0000
  0
INSERT
  8
21
  2
RECT
 10
0.1791
 20
3.4100
 30
0.0000
 41
0.2857
 42
0.0039
 43
1.0000
 50
0.0000
  0
INSERT
  8
21
  2
RECT
 10
0.1809
 20
3.4138
 30
0.0000
 41
0.2819
 42
0.0038
 43
1.0000
 50
0.0000
  0
INSERT
  8
21
  2
RECT
 10
0.1829
 20
3.4176
 30
0.0000
 41
0.2781
 42
0.0038
 43
1.0000
 50
0.0000
  0
INSERT
  8
21
  2
RECT
 10
0.1829
 20
3.4214
 30
0.0000
 41
0.2705
 42
0.0038
 43
1.0000
 50
0.0000
  0
INSERT
  8
21
  2
RECT
 10
0.1829
 20
3.4252
 30
0.0000
 41
0.2705
 42
0.0038
 43
1.0000
 50
0.0000
  0
INSERT
  8
21
  2
RECT
 10
0.1847
 20
3.4290
 30
0.0000
 41
0.2667
 42
0.0038
 43
1.0000
 50
0.0000
  0
INSERT
  8
21
  2
RECT
 10
0.1867
 20
3.4328
 30
0.0000
 41
0.2629
 42
0.0038
 43
1.0000
 50
0.0000
  0
INSERT
  8
21
  2
RECT
 10
0.1847
 20
3.4366
 30
0.0000
 41
0.2591
 42
0.0038
 43
1.0000
 50
0.0000
  0
INSERT
  8
21
  2
RECT
 10
0.1867
 20
3.4404
 30
0.0000
 41
0.2552
 42
0.0038
 43
1.0000
 50
0.0000
  0
INSERT
  8
21
  2
RECT
 10
0.1886
 20
3.4442
 30
0.0000
 41
0.2514
 42
0.0038
 43
1.0000
 50
0.0000
  0
INSERT
  8
21
  2
RECT
 10
0.1886
 20
3.4481
 30
0.0000
 41
0.2438
 42
0.0039
 43
1.0000
 50
0.0000
  0
INSERT
  8
21
  2
RECT
 10
0.1886
 20
3.4519
 30
0.0000
 41
0.2438
 42
0.0038
 43
1.0000
 50
0.0000
  0
INSERT
  8
21
  2
RECT
 10
0.1905
 20
3.4557
 30
0.0000
 41
0.2400
 42
0.0038
 43
1.0000
 50
0.0000
  0
INSERT
  8
21
  2
RECT
 10
0.1905
 20
3.4595
 30
0.0000
 41
0.2324
 42
0.0038
 43
1.0000
 50
0.0000
  0
INSERT
  8
21
  2
RECT
 10
0.1924
 20
3.4633
 30
0.0000
 41
0.2286
 42
0.0038
 43
1.0000
 50
0.0000
  0
INSERT
  8
21
  2
RECT
 10
0.1924
 20
3.4671
 30
0.0000
 41
0.2286
 42
0.0038
 43
1.0000
 50
0.0000
  0
INSERT
  8
21
  2
RECT
 10
0.1924
 20
3.4709
 30
0.0000
 41
0.2210
 42
0.0038
 43
1.0000
 50
0.0000
  0
INSERT
  8
21
  2
RECT
 10
0.1943
 20
3.4747
 30
0.0000
 41
0.2172
 42
0.0038
 43
1.0000
 50
0.0000
  0
INSERT
  8
21
  2
RECT
 10
0.1943
 20
3.4785
 30
0.0000
 41
0.2172
 42
0.0038
 43
1.0000
 50
0.0000
  0
INSERT
  8
21
  2
RECT
 10
0.1943
 20
3.4823
 30
0.0000
 41
0.2096
 42
0.0038
 43
1.0000
 50
0.0000
  0
INSERT
  8
21
  2
RECT
 10
0.1962
 20
3.4862
 30
0.0000
 41
0.2058
 42
0.0039
 43
1.0000
 50
0.0000
  0
INSERT
  8
21
  2
RECT
 10
0.1982
 20
3.4900
 30
0.0000
 41
0.2019
 42
0.0038
 43
1.0000
 50
0.0000
  0
INSERT
  8
21
  2
RECT
 10
0.1963
 20
3.4938
 30
0.0000
 41
0.1981
 42
0.0038
 43
1.0000
 50
0.0000
  0
INSERT
  8
21
  2
RECT
 10
0.1982
 20
3.4976
 30
0.0000
 41
0.1943
 42
0.0038
 43
1.0000
 50
0.0000
  0
INSERT
  8
21
  2
RECT
 10
0.2001
 20
3.5014
 30
0.0000
 41
0.1905
 42
0.0038
 43
1.0000
 50
0.0000
  0
INSERT
  8
21
  2
RECT
 10
0.1982
 20
3.5052
 30
0.0000
 41
0.1867
 42
0.0038
 43
1.0000
 50
0.0000
  0
INSERT
  8
21
  2
RECT
 10
0.2001
 20
3.5090
 30
0.0000
 41
0.1829
 42
0.0038
 43
1.0000
 50
0.0000
  0
INSERT
  8
21
  2
RECT
 10
0.2001
 20
3.5128
 30
0.0000
 41
0.1753
 42
0.0038
 43
1.0000
 50
0.0000
  0
INSERT
  8
21
  2
RECT
 10
0.2020
 20
3.5166
 30
0.0000
 41
0.1715
 42
0.0038
 43
1.0000
 50
0.0000
  0
INSERT
  8
21
  2
RECT
 10
0.2020
 20
3.5204
 30
0.0000
 41
0.1715
 42
0.0038
 43
1.0000
 50
0.0000
  0
INSERT
  8
21
  2
RECT
 10
0.2019
 20
3.5243
 30
0.0000
 41
0.1638
 42
0.0039
 43
1.0000
 50
0.0000
  0
INSERT
  8
21
  2
RECT
 10
0.2038
 20
3.5281
 30
0.0000
 41
0.1600
 42
0.0038
 43
1.0000
 50
0.0000
  0
INSERT
  8
21
  2
RECT
 10
0.2038
 20
3.5319
 30
0.0000
 41
0.1524
 42
0.0038
 43
1.0000
 50
0.0000
  0
INSERT
  8
21
  2
RECT
 10
0.2038
 20
3.5357
 30
0.0000
 41
0.1448
 42
0.0038
 43
1.0000
 50
0.0000
  0
INSERT
  8
21
  2
RECT
 10
0.2038
 20
3.5395
 30
0.0000
 41
0.1448
 42
0.0038
 43
1.0000
 50
0.0000
  0
INSERT
  8
21
  2
RECT
 10
0.2039
 20
3.5433
 30
0.0000
 41
0.1371
 42
0.0038
 43
1.0000
 50
0.0000
  0
INSERT
  8
21
  2
RECT
 10
0.2039
 20
3.5471
 30
0.0000
 41
0.1295
 42
0.0038
 43
1.0000
 50
0.0000
  0
INSERT
  8
21
  2
RECT
 10
0.2039
 20
3.5509
 30
0.0000
 41
0.1219
 42
0.0038
 43
1.0000
 50
0.0000
  0
INSERT
  8
21
  2
RECT
 10
0.2039
 20
3.5547
 30
0.0000
 41
0.1143
 42
0.0038
 43
1.0000
 50
0.0000
  0
INSERT
  8
21
  2
RECT
 10
0.2058
 20
3.5585
 30
0.0000
 41
0.1029
 42
0.0038
 43
1.0000
 50
0.0000
  0
INSERT
  8
21
  2
RECT
 10
0.2039
 20
3.5624
 30
0.0000
 41
0.0915
 42
0.0039
 43
1.0000
 50
0.0000
  0
INSERT
  8
21
  2
RECT
 10
0.2038
 20
3.5662
 30
0.0000
 41
0.0762
 42
0.0038
 43
1.0000
 50
0.0000
  0
INSERT
  8
21
  2
RECT
 10
0.2039
 20
3.5700
 30
0.0000
 41
0.0609
 42
0.0038
 43
1.0000
 50
0.0000
  0
INSERT
  8
21
  2
RECT
 10
0.2001
 20
3.5738
 30
0.0000
 41
0.0305
 42
0.0038
 43
1.0000
 50
0.0000
  0
LINE
  8
1
 10
-1.3000
 20
-0.5080
 30
0.0000
 11
-3.3020
 21
-0.5080
 31
0.0000
  0
LINE
  8
1
 10
-3.3020
 20
-0.5080
 30
0.0000
 11
-3.6830
 21
-0.1270
 31
0.0000
  0
LINE
  8
1
 10
-3.6830
 20
-0.1270
 30
0.0000
 11
-3.8100
 21
0.0000
 31
0.0000
  0
LINE
  8
16
 10
-1.1000
 20
0.9550
 30
0.0000
 11
-2.8550
 21
0.9550
 31
0.0000
  0
LINE
  8
16
 10
-2.8550
 20
0.9550
 30
0.0000
 11
-3.8100
 21
0.0000
 31
0.0000
  0
LINE
  8
1
 10
-1.3000
 20
-1.4580
 30
0.0000
 11
-2.3820
 21
-2.5400
 31
0.0000
  0
LINE
  8
1
 10
-2.3820
 20
-2.5400
 30
0.0000
 11
-3.8100
 21
-2.5400
 31
0.0000
  0
LINE
  8
16
 10
-1.1000
 20
-1.9050
 30
0.0000
 11
-3.1750
 21
-1.9050
 31
0.0000
  0
LINE
  8
16
 10
-3.1750
 20
-1.9050
 30
0.0000
 11
-3.8100
 21
-2.5400
 31
0.0000
  0
LINE
  8
1
 10
1.3000
 20
-0.5080
 30
0.0000
 11
3.3020
 21
-0.5080
 31
0.0000
  0
LINE
  8
1
 10
3.3020
 20
-0.5080
 30
0.0000
 11
3.8100
 21
0.0000
 31
0.0000
  0
LINE
  8
16
 10
1.1000
 20
-0.9550
 30
0.0000
 11
2.8550
 21
-0.9550
 31
0.0000
  0
LINE
  8
16
 10
2.8550
 20
-0.9550
 30
0.0000
 11
3.8100
 21
0.0000
 31
0.0000
  0
LINE
  8
1
 10
1.3000
 20
-1.4580
 30
0.0000
 11
2.3820
 21
-2.5400
 31
0.0000
  0
LINE
  8
1
 10
2.3820
 20
-2.5400
 30
0.0000
 11
3.8100
 21
-2.5400
 31
0.0000
  0
LINE
  8
16
 10
1.1000
 20
-2.8550
 30
0.0000
 11
3.4950
 21
-2.8550
 31
0.0000
  0
LINE
  8
16
 10
3.4950
 20
-2.8550
 30
0.0000
 11
3.8100
 21
-2.5400
 31
0.0000
  0
LINE
  8
1
 10
-1.3000
 20
0.4420
 30
0.0000
 11
-1.3000
 21
1.1730
 31
0.0000
  0
LINE
  8
1
 10
-1.3000
 20
1.1730
 30
0.0000
 11
-2.6670
 21
2.5400
 31
0.0000
  0
LINE
  8
1
 10
-2.6670
 20
2.5400
 30
0.0000
 11
-3.8100
 21
2.5400
 31
0.0000
  0
LINE
  8
16
 10
-1.1000
 20
2.8550
 30
0.0000
 11
-3.4950
 21
2.8550
 31
0.0000
  0
LINE
  8
16
 10
-3.4950
 20
2.8550
 30
0.0000
 11
-3.8100
 21
2.5400
 31
0.0000
  0
LINE
  8
1
 10
1.3000
 20
0.4420
 30
0.0000
 11
1.2700
 21
0.6350
 31
0.0000
  0
LINE
  8
1
 10
1.2700
 20
0.6350
 30
0.0000
 11
1.2700
 21
0.9200
 31
0.0000
  0
LINE
  8
1
 10
1.2700
 20
0.9200
 30
0.0000
 11
2.8900
 21
2.5400
 31
0.0000
  0
LINE
  8
1
 10
2.8900
 20
2.5400
 30
0.0000
 11
3.8100
 21
2.5400
 31
0.0000
  0
LINE
  8
16
 10
1.1000
 20
1.9050
 30
0.0000
 11
3.1750
 21
1.9050
 31
0.0000
  0
LINE
  8
16
 10
3.1750
 20
1.9050
 30
0.0000
 11
3.8100
 21
2.5400
 31
0.0000
  0
ENDSEC
  0
EOF
