  0
SECTION
  2
HEADER
  9
$ACADVER
  1
AC1009
  9
$FILLMODE
 70
0
  9
$EXTMIN
 10
-15.0400
 20
-15.0400
 30
0.0000
  9
$EXTMAX
 10
55.6800
 20
45.5200
 30
0.0000
  0
ENDSEC
  0
SECTION
  2
TABLES
  0
TABLE
  2
LTYPE
 70
1
  0
LTYPE
  2
CONTINUOUS
 70
64
  3
Solid line
 72
65
 73
0
 40
0
  0
ENDTAB
  0
TABLE
  2
LAYER
 70
255
  0
LAYER
  2
1
 70
64
 62
22
  6
CONTINUOUS
  0
LAYER
  2
16
 70
64
 62
175
  6
CONTINUOUS
  0
LAYER
  2
17
 70
64
 62
82
  6
CONTINUOUS
  0
LAYER
  2
18
 70
64
 62
82
  6
CONTINUOUS
  0
LAYER
  2
19
 70
64
 62
53
  6
CONTINUOUS
  0
LAYER
  2
20
 70
64
 62
7
  6
CONTINUOUS
  0
LAYER
  2
23
 70
64
 62
7
  6
CONTINUOUS
  0
LAYER
  2
27
 70
64
 62
253
  6
CONTINUOUS
  0
LAYER
  2
48
 70
64
 62
253
  6
CONTINUOUS
  0
LAYER
  2
49
 70
64
 62
253
  6
CONTINUOUS
  0
LAYER
  2
52
 70
64
 62
253
  6
CONTINUOUS
  0
LAYER
  2
56
 70
64
 62
253
  6
CONTINUOUS
  0
LAYER
  2
101
 70
64
 62
1
  6
CONTINUOUS
  0
LAYER
  2
102
 70
64
 62
253
  6
CONTINUOUS
  0
LAYER
  2
104
 70
64
 62
253
  6
CONTINUOUS
  0
LAYER
  2
105
 70
64
 62
5
  6
CONTINUOUS
  0
LAYER
  2
106
 70
64
 62
22
  6
CONTINUOUS
  0
LAYER
  2
107
 70
64
 62
213
  6
CONTINUOUS
  0
LAYER
  2
116
 70
64
 62
5
  6
CONTINUOUS
  0
LAYER
  2
121
 70
64
 62
253
  6
CONTINUOUS
  0
LAYER
  2
122
 70
64
 62
253
  6
CONTINUOUS
  0
LAYER
  2
125
 70
64
 62
253
  6
CONTINUOUS
  0
LAYER
  2
144
 70
64
 62
253
  6
CONTINUOUS
  0
LAYER
  2
151
 70
64
 62
253
  6
CONTINUOUS
  0
LAYER
  2
199
 70
64
 62
253
  6
CONTINUOUS
  0
LAYER
  2
203
 70
64
 62
22
  6
CONTINUOUS
  0
LAYER
  2
204
 70
64
 62
213
  6
CONTINUOUS
  0
LAYER
  2
205
 70
64
 62
53
  6
CONTINUOUS
  0
LAYER
  2
206
 70
64
 62
253
  6
CONTINUOUS
  0
LAYER
  2
207
 70
64
 62
251
  6
CONTINUOUS
  0
LAYER
  2
208
 70
64
 62
5
  6
CONTINUOUS
  0
LAYER
  2
211
 70
64
 62
253
  6
CONTINUOUS
  0
LAYER
  2
212
 70
64
 62
253
  6
CONTINUOUS
  0
LAYER
  2
213
 70
64
 62
253
  6
CONTINUOUS
  0
LAYER
  2
214
 70
64
 62
253
  6
CONTINUOUS
  0
LAYER
  2
215
 70
64
 62
253
  6
CONTINUOUS
  0
LAYER
  2
216
 70
64
 62
253
  6
CONTINUOUS
  0
LAYER
  2
254
 70
64
 62
253
  6
CONTINUOUS
  0
ENDTAB
  0
ENDSEC
  0
SECTION
  2
BLOCKS
  0
BLOCK
  8
0
  2
RECT
 70
64
 10
0.0000
 20
0.0000
 30
0.0000
  3
RECT
  0
SOLID
  8
0
 10
-0.5000
 20
-0.5000
 30
0.0000
 11
0.5000
 21
-0.5000
 31
0.0000
 12
-0.5000
 22
0.5000
 32
0.0000
 13
0.5000
 23
0.5000
 33
0.0000
  0
ENDBLK
  8
0
  0
BLOCK
  8
0
  2
PIE
 70
64
 10
0.0000
 20
0.0000
 30
0.0000
  3
PIE
  0
CIRCLE
  8
0
 10
0.0000
 20
0.0000
 30
0.0000
 40
0.5000
  0
ENDBLK
  8
0
  0
BLOCK
  8
0
  2
OCTAGONP
 70
64
 10
0.0000
 20
0.0000
 30
0.0000
  3
OCTAGONP
  0
POLYLINE
  8
0
 66
1
 10
0.0000
 20
0.0000
 30
0.0000
 40
0.0000
 41
0.0000
 70
1
  0
VERTEX
  8
0
 10
-0.5000
 20
-0.2071
 30
0.0000
  0
VERTEX
  8
0
 10
-0.5000
 20
0.2071
 30
0.0000
  0
VERTEX
  8
0
 10
-0.2071
 20
0.5000
 30
0.0000
  0
VERTEX
  8
0
 10
0.2071
 20
0.5000
 30
0.0000
  0
VERTEX
  8
0
 10
0.5000
 20
0.2071
 30
0.0000
  0
VERTEX
  8
0
 10
0.5000
 20
-0.2071
 30
0.0000
  0
VERTEX
  8
0
 10
0.2071
 20
-0.5000
 30
0.0000
  0
VERTEX
  8
0
 10
-0.2071
 20
-0.5000
 30
0.0000
  0
SEQEND
  8
0
  0
ENDBLK
  8
0
  0
BLOCK
  8
0
  2
SQUAREP
 70
64
 10
0.0000
 20
0.0000
 30
0.0000
  3
SQUAREP
  0
SOLID
  8
0
 10
-0.5000
 20
-0.5000
 30
0.0000
 11
0.5000
 21
-0.5000
 31
0.0000
 12
-0.5000
 22
0.5000
 32
0.0000
 13
0.5000
 23
0.5000
 33
0.0000
  0
ENDBLK
  8
0
  0
BLOCK
  8
0
  2
ROUNDP
 70
64
 10
0.0000
 20
0.0000
 30
0.0000
  3
ROUNDP
  0
CIRCLE
  8
0
 10
0.0000
 20
0.0000
 30
0.0000
 40
0.5000
  0
ENDBLK
  8
0
  0
BLOCK
  8
0
  2
ANNULUSP
 70
64
 10
0.0000
 20
0.0000
 30
0.0000
  3
ANNULUSP
  0
CIRCLE
  8
0
 10
0.0000
 20
0.0000
 30
0.0000
 40
0.5000
  0
ENDBLK
  8
0
  0
BLOCK
  8
0
  2
THERMALP
 70
64
 10
0.0000
 20
0.0000
 30
0.0000
  3
THERMALP
  0
LINE
  8
0
 10
-0.2379
 20
0.4500
 30
0.0000
 11
0.2379
 21
0.4500
 31
0.0000
  0
LINE
  8
0
 10
0.4500
 20
0.2379
 30
0.0000
 11
0.4500
 21
-0.2379
 31
0.0000
  0
LINE
  8
0
 10
0.2379
 20
-0.4500
 30
0.0000
 11
-0.2379
 21
-0.4500
 31
0.0000
  0
LINE
  8
0
 10
-0.4500
 20
-0.2379
 30
0.0000
 11
-0.4500
 21
0.2379
 31
0.0000
  0
ENDBLK
  8
0
  0
BLOCK
  8
0
  2
OCTAGONV
 70
64
 10
0.0000
 20
0.0000
 30
0.0000
  3
OCTAGONV
  0
POLYLINE
  8
0
 66
1
 10
0.0000
 20
0.0000
 30
0.0000
 40
0.0000
 41
0.0000
 70
1
  0
VERTEX
  8
0
 10
-0.5000
 20
-0.2071
 30
0.0000
  0
VERTEX
  8
0
 10
-0.5000
 20
0.2071
 30
0.0000
  0
VERTEX
  8
0
 10
-0.2071
 20
0.5000
 30
0.0000
  0
VERTEX
  8
0
 10
0.2071
 20
0.5000
 30
0.0000
  0
VERTEX
  8
0
 10
0.5000
 20
0.2071
 30
0.0000
  0
VERTEX
  8
0
 10
0.5000
 20
-0.2071
 30
0.0000
  0
VERTEX
  8
0
 10
0.2071
 20
-0.5000
 30
0.0000
  0
VERTEX
  8
0
 10
-0.2071
 20
-0.5000
 30
0.0000
  0
SEQEND
  8
0
  0
ENDBLK
  8
0
  0
BLOCK
  8
0
  2
SQUAREV
 70
64
 10
0.0000
 20
0.0000
 30
0.0000
  3
SQUAREV
  0
SOLID
  8
0
 10
-0.5000
 20
-0.5000
 30
0.0000
 11
0.5000
 21
-0.5000
 31
0.0000
 12
-0.5000
 22
0.5000
 32
0.0000
 13
0.5000
 23
0.5000
 33
0.0000
  0
ENDBLK
  8
0
  0
BLOCK
  8
0
  2
ROUNDV
 70
64
 10
0.0000
 20
0.0000
 30
0.0000
  3
ROUNDV
  0
CIRCLE
  8
0
 10
0.0000
 20
0.0000
 30
0.0000
 40
0.5000
  0
ENDBLK
  8
0
  0
BLOCK
  8
0
  2
ANNULUSV
 70
64
 10
0.0000
 20
0.0000
 30
0.0000
  3
ANNULUSV
  0
CIRCLE
  8
0
 10
0.0000
 20
0.0000
 30
0.0000
 40
0.5000
  0
ENDBLK
  8
0
  0
BLOCK
  8
0
  2
THERMALV
 70
64
 10
0.0000
 20
0.0000
 30
0.0000
  3
THERMALV
  0
LINE
  8
0
 10
-0.2379
 20
0.4500
 30
0.0000
 11
0.2379
 21
0.4500
 31
0.0000
  0
LINE
  8
0
 10
0.4500
 20
0.2379
 30
0.0000
 11
0.4500
 21
-0.2379
 31
0.0000
  0
LINE
  8
0
 10
0.2379
 20
-0.4500
 30
0.0000
 11
-0.2379
 21
-0.4500
 31
0.0000
  0
LINE
  8
0
 10
-0.4500
 20
-0.2379
 30
0.0000
 11
-0.4500
 21
0.2379
 31
0.0000
  0
ENDBLK
  8
0
  0
BLOCK
  8
0
  2
LONGP100
 70
64
 10
0.0000
 20
0.0000
 30
0.0000
  3
LONGP100
  0
POLYLINE
  8
0
 66
1
 10
0.0000
 20
0.0000
 30
0.0000
 40
0.0000
 41
0.0000
 70
1
  0
VERTEX
  8
0
 10
-0.5000
 20
-0.5000
 30
0.0000
  0
VERTEX
  8
0
 10
0.5000
 20
-0.5000
 30
0.0000
 42
1.0000
  0
VERTEX
  8
0
 10
0.5000
 20
0.5000
 30
0.0000
  0
VERTEX
  8
0
 10
-0.5000
 20
0.5000
 30
0.0000
 42
1.0000
  0
SEQEND
  8
0
  0
ENDBLK
  8
0
  0
BLOCK
  8
0
  2
RECT160000X160000R100
 70
64
 10
0.0000
 20
0.0000
 30
0.0000
  3
RECT160000X160000R100
  0
POLYLINE
  8
0
 66
1
 10
0.0000
 20
0.0000
 30
0.0000
 40
0.0000
 41
0.0000
 70
1
  0
VERTEX
  8
0
 10
0.5000
 20
0.0000
 30
0.0000
  0
VERTEX
  8
0
 10
0.5000
 20
0.0000
 30
0.0000
 42
0.4142
  0
VERTEX
  8
0
 10
0.0000
 20
0.5000
 30
0.0000
  0
VERTEX
  8
0
 10
0.0000
 20
0.5000
 30
0.0000
 42
0.4142
  0
VERTEX
  8
0
 10
-0.5000
 20
0.0000
 30
0.0000
  0
VERTEX
  8
0
 10
-0.5000
 20
0.0000
 30
0.0000
 42
0.4142
  0
VERTEX
  8
0
 10
0.0000
 20
-0.5000
 30
0.0000
  0
VERTEX
  8
0
 10
0.0000
 20
-0.5000
 30
0.0000
 42
0.4142
  0
SEQEND
  8
0
  0
ENDBLK
  8
0
  0
ENDSEC
  0
SECTION
  2
ENTITIES
  0
LINE
  8
20
 10
0.0000
 20
3.0000
 30
0.0000
 11
0.0000
 21
30.0470
 31
0.0000
  0
ARC
  8
20
 10
3.0000
 20
30.0470
 30
0.0000
 40
3.0000
 50
90.0000
 51
180.0000
  0
LINE
  8
20
 10
3.0000
 20
33.0470
 30
0.0000
 11
37.6820
 21
33.0470
 31
0.0000
  0
ARC
  8
20
 10
37.6820
 20
30.0470
 30
0.0000
 40
3.0000
 50
0.0000
 51
90.0000
  0
LINE
  8
20
 10
40.6820
 20
30.0470
 30
0.0000
 11
40.6820
 21
3.0000
 31
0.0000
  0
ARC
  8
20
 10
37.6820
 20
3.0000
 30
0.0000
 40
3.0000
 50
270.0000
 51
0.0000
  0
LINE
  8
20
 10
37.6820
 20
0.0000
 30
0.0000
 11
3.0000
 21
0.0000
 31
0.0000
  0
ARC
  8
20
 10
3.0000
 20
3.0000
 30
0.0000
 40
3.0000
 50
180.0000
 51
270.0000
  0
POINT
  8
23
 10
10.1600
 20
3.5560
 30
0.0000
  0
INSERT
  8
1
  2
RECT
 10
9.1600
 20
7.2560
 30
0.0000
 41
1.0000
 42
4.6000
 43
1.0000
 50
180.0000
  0
INSERT
  8
1
  2
RECT
 10
11.1600
 20
7.2560
 30
0.0000
 41
1.0000
 42
4.6000
 43
1.0000
 50
180.0000
  0
INSERT
  8
1
  2
RECT
 10
13.5600
 20
2.0560
 30
0.0000
 41
3.4000
 42
1.6000
 43
1.0000
 50
270.0000
  0
INSERT
  8
1
  2
RECT
 10
6.7600
 20
2.0560
 30
0.0000
 41
3.4000
 42
1.6000
 43
1.0000
 50
270.0000
  0
POINT
  8
23
 10
29.2100
 20
11.1760
 30
0.0000
  0
INSERT
  8
1
  2
RECT
 10
28.2100
 20
11.1760
 30
0.0000
 41
1.1000
 42
1.4000
 43
1.0000
 50
0.0000
  0
INSERT
  8
1
  2
RECT
 10
30.2100
 20
11.1760
 30
0.0000
 41
1.1000
 42
1.4000
 43
1.0000
 50
0.0000
  0
LINE
  8
27
 10
27.4861
 20
12.9892
 30
0.0000
 11
27.7996
 21
13.3027
 31
0.0000
  0
LINE
  8
27
 10
27.7996
 20
13.3027
 30
0.0000
 11
27.7996
 21
12.3621
 31
0.0000
  0
LINE
  8
27
 10
27.4861
 20
12.3621
 30
0.0000
 11
28.1132
 21
12.3621
 31
0.0000
  0
LINE
  8
27
 10
28.4216
 20
12.5189
 30
0.0000
 11
28.4216
 21
13.1459
 31
0.0000
  0
LINE
  8
27
 10
28.4216
 20
13.1459
 30
0.0000
 11
28.5784
 21
13.3027
 31
0.0000
  0
LINE
  8
27
 10
28.5784
 20
13.3027
 30
0.0000
 11
28.8919
 21
13.3027
 31
0.0000
  0
LINE
  8
27
 10
28.8919
 20
13.3027
 30
0.0000
 11
29.0487
 21
13.1459
 31
0.0000
  0
LINE
  8
27
 10
29.0487
 20
13.1459
 30
0.0000
 11
29.0487
 21
12.5189
 31
0.0000
  0
LINE
  8
27
 10
29.0487
 20
12.5189
 30
0.0000
 11
28.8919
 21
12.3621
 31
0.0000
  0
LINE
  8
27
 10
28.8919
 20
12.3621
 30
0.0000
 11
28.5784
 21
12.3621
 31
0.0000
  0
LINE
  8
27
 10
28.5784
 20
12.3621
 30
0.0000
 11
28.4216
 21
12.5189
 31
0.0000
  0
LINE
  8
27
 10
28.4216
 20
12.5189
 30
0.0000
 11
29.0487
 21
13.1459
 31
0.0000
  0
LINE
  8
27
 10
29.3571
 20
12.9892
 30
0.0000
 11
29.3571
 21
12.5189
 31
0.0000
  0
LINE
  8
27
 10
29.3571
 20
12.5189
 30
0.0000
 11
29.5139
 21
12.3621
 31
0.0000
  0
LINE
  8
27
 10
29.5139
 20
12.3621
 30
0.0000
 11
29.9842
 21
12.3621
 31
0.0000
  0
LINE
  8
27
 10
29.9842
 20
12.3621
 30
0.0000
 11
29.9842
 21
12.9892
 31
0.0000
  0
LINE
  8
27
 10
30.2927
 20
12.3621
 30
0.0000
 11
30.2927
 21
13.3027
 31
0.0000
  0
LINE
  8
27
 10
30.2927
 20
13.3027
 30
0.0000
 11
30.9197
 21
13.3027
 31
0.0000
  0
LINE
  8
27
 10
30.2927
 20
12.8324
 30
0.0000
 11
30.6062
 21
12.8324
 31
0.0000
  0
POINT
  8
23
 10
10.2870
 20
11.1760
 30
0.0000
  0
INSERT
  8
1
  2
RECT
 10
9.2870
 20
11.1760
 30
0.0000
 41
1.1000
 42
1.4000
 43
1.0000
 50
0.0000
  0
INSERT
  8
1
  2
RECT
 10
11.2870
 20
11.1760
 30
0.0000
 41
1.1000
 42
1.4000
 43
1.0000
 50
0.0000
  0
LINE
  8
27
 10
8.5631
 20
9.1792
 30
0.0000
 11
8.8766
 21
9.4927
 31
0.0000
  0
LINE
  8
27
 10
8.8766
 20
9.4927
 30
0.0000
 11
8.8766
 21
8.5521
 31
0.0000
  0
LINE
  8
27
 10
8.5631
 20
8.5521
 30
0.0000
 11
9.1902
 21
8.5521
 31
0.0000
  0
LINE
  8
27
 10
9.4986
 20
8.7089
 30
0.0000
 11
9.4986
 21
9.3359
 31
0.0000
  0
LINE
  8
27
 10
9.4986
 20
9.3359
 30
0.0000
 11
9.6554
 21
9.4927
 31
0.0000
  0
LINE
  8
27
 10
9.6554
 20
9.4927
 30
0.0000
 11
9.9689
 21
9.4927
 31
0.0000
  0
LINE
  8
27
 10
9.9689
 20
9.4927
 30
0.0000
 11
10.1257
 21
9.3359
 31
0.0000
  0
LINE
  8
27
 10
10.1257
 20
9.3359
 30
0.0000
 11
10.1257
 21
8.7089
 31
0.0000
  0
LINE
  8
27
 10
10.1257
 20
8.7089
 30
0.0000
 11
9.9689
 21
8.5521
 31
0.0000
  0
LINE
  8
27
 10
9.9689
 20
8.5521
 30
0.0000
 11
9.6554
 21
8.5521
 31
0.0000
  0
LINE
  8
27
 10
9.6554
 20
8.5521
 30
0.0000
 11
9.4986
 21
8.7089
 31
0.0000
  0
LINE
  8
27
 10
9.4986
 20
8.7089
 30
0.0000
 11
10.1257
 21
9.3359
 31
0.0000
  0
LINE
  8
27
 10
10.4341
 20
9.1792
 30
0.0000
 11
10.4341
 21
8.7089
 31
0.0000
  0
LINE
  8
27
 10
10.4341
 20
8.7089
 30
0.0000
 11
10.5909
 21
8.5521
 31
0.0000
  0
LINE
  8
27
 10
10.5909
 20
8.5521
 30
0.0000
 11
11.0612
 21
8.5521
 31
0.0000
  0
LINE
  8
27
 10
11.0612
 20
8.5521
 30
0.0000
 11
11.0612
 21
9.1792
 31
0.0000
  0
LINE
  8
27
 10
11.3697
 20
8.5521
 30
0.0000
 11
11.3697
 21
9.4927
 31
0.0000
  0
LINE
  8
27
 10
11.3697
 20
9.4927
 30
0.0000
 11
11.9967
 21
9.4927
 31
0.0000
  0
LINE
  8
27
 10
11.3697
 20
9.0224
 30
0.0000
 11
11.6832
 21
9.0224
 31
0.0000
  0
POINT
  8
23
 10
12.4460
 20
16.4140
 30
0.0000
  0
INSERT
  8
1
  2
RECT
 10
12.4460
 20
17.4140
 30
0.0000
 41
1.1000
 42
1.4000
 43
1.0000
 50
270.0000
  0
INSERT
  8
1
  2
RECT
 10
12.4460
 20
15.4140
 30
0.0000
 41
1.1000
 42
1.4000
 43
1.0000
 50
270.0000
  0
LINE
  8
27
 10
13.9448
 20
14.7260
 30
0.0000
 11
13.6313
 21
15.0396
 31
0.0000
  0
LINE
  8
27
 10
13.6313
 20
15.0396
 30
0.0000
 11
14.5719
 21
15.0396
 31
0.0000
  0
LINE
  8
27
 10
14.5719
 20
14.7260
 30
0.0000
 11
14.5719
 21
15.3531
 31
0.0000
  0
LINE
  8
27
 10
14.4151
 20
15.6615
 30
0.0000
 11
13.7881
 21
15.6615
 31
0.0000
  0
LINE
  8
27
 10
13.7881
 20
15.6615
 30
0.0000
 11
13.6313
 21
15.8183
 31
0.0000
  0
LINE
  8
27
 10
13.6313
 20
15.8183
 30
0.0000
 11
13.6313
 21
16.1318
 31
0.0000
  0
LINE
  8
27
 10
13.6313
 20
16.1318
 30
0.0000
 11
13.7881
 21
16.2886
 31
0.0000
  0
LINE
  8
27
 10
13.7881
 20
16.2886
 30
0.0000
 11
14.4151
 21
16.2886
 31
0.0000
  0
LINE
  8
27
 10
14.4151
 20
16.2886
 30
0.0000
 11
14.5719
 21
16.1318
 31
0.0000
  0
LINE
  8
27
 10
14.5719
 20
16.1318
 30
0.0000
 11
14.5719
 21
15.8183
 31
0.0000
  0
LINE
  8
27
 10
14.5719
 20
15.8183
 30
0.0000
 11
14.4151
 21
15.6615
 31
0.0000
  0
LINE
  8
27
 10
14.4151
 20
15.6615
 30
0.0000
 11
13.7881
 21
16.2886
 31
0.0000
  0
LINE
  8
27
 10
13.9448
 20
16.5971
 30
0.0000
 11
14.4151
 21
16.5971
 31
0.0000
  0
LINE
  8
27
 10
14.4151
 20
16.5971
 30
0.0000
 11
14.5719
 21
16.7538
 31
0.0000
  0
LINE
  8
27
 10
14.5719
 20
16.7538
 30
0.0000
 11
14.5719
 21
17.2241
 31
0.0000
  0
LINE
  8
27
 10
14.5719
 20
17.2241
 30
0.0000
 11
13.9448
 21
17.2241
 31
0.0000
  0
LINE
  8
27
 10
14.5719
 20
17.5326
 30
0.0000
 11
13.6313
 21
17.5326
 31
0.0000
  0
LINE
  8
27
 10
13.6313
 20
17.5326
 30
0.0000
 11
13.6313
 21
18.1596
 31
0.0000
  0
LINE
  8
27
 10
14.1016
 20
17.5326
 30
0.0000
 11
14.1016
 21
17.8461
 31
0.0000
  0
POINT
  8
23
 10
32.7660
 20
15.1130
 30
0.0000
  0
INSERT
  8
17
  2
ROUNDP
 10
32.7660
 20
17.6530
 30
0.0000
 41
2.5400
 42
2.5400
 43
1.0000
 50
270.0000
  0
INSERT
  8
17
  2
ROUNDP
 10
32.7660
 20
17.6530
 30
0.0000
 41
2.5400
 42
2.5400
 43
1.0000
 50
270.0000
  0
INSERT
  8
17
  2
OCTAGONP
 10
32.7660
 20
12.5730
 30
0.0000
 41
2.5400
 42
2.5400
 43
1.0000
 50
270.0000
  0
INSERT
  8
17
  2
OCTAGONP
 10
32.7660
 20
12.5730
 30
0.0000
 41
2.5400
 42
2.5400
 43
1.0000
 50
270.0000
  0
LINE
  8
27
 10
44.4881
 20
6.4891
 30
0.0000
 11
42.8865
 21
6.4891
 31
0.0000
  0
LINE
  8
27
 10
42.8865
 20
6.4891
 30
0.0000
 11
43.6873
 21
5.6883
 31
0.0000
  0
LINE
  8
27
 10
43.6873
 20
5.6883
 30
0.0000
 11
43.6873
 21
6.7560
 31
0.0000
  0
LINE
  8
27
 10
42.8865
 20
7.3255
 30
0.0000
 11
42.8865
 21
8.3932
 31
0.0000
  0
LINE
  8
27
 10
42.8865
 20
8.3932
 30
0.0000
 11
43.1535
 21
8.3932
 31
0.0000
  0
LINE
  8
27
 10
43.1535
 20
8.3932
 30
0.0000
 11
44.2212
 21
7.3255
 31
0.0000
  0
LINE
  8
27
 10
44.2212
 20
7.3255
 30
0.0000
 11
44.4881
 21
7.3255
 31
0.0000
  0
LINE
  8
27
 10
44.2212
 20
8.9626
 30
0.0000
 11
43.1535
 21
8.9626
 31
0.0000
  0
LINE
  8
27
 10
43.1535
 20
8.9626
 30
0.0000
 11
42.8865
 21
9.2295
 31
0.0000
  0
LINE
  8
27
 10
42.8865
 20
9.2295
 30
0.0000
 11
42.8865
 21
9.7634
 31
0.0000
  0
LINE
  8
27
 10
42.8865
 20
9.7634
 30
0.0000
 11
43.1535
 21
10.0303
 31
0.0000
  0
LINE
  8
27
 10
43.1535
 20
10.0303
 30
0.0000
 11
44.2212
 21
10.0303
 31
0.0000
  0
LINE
  8
27
 10
44.2212
 20
10.0303
 30
0.0000
 11
44.4881
 21
9.7634
 31
0.0000
  0
LINE
  8
27
 10
44.4881
 20
9.7634
 30
0.0000
 11
44.4881
 21
9.2295
 31
0.0000
  0
LINE
  8
27
 10
44.4881
 20
9.2295
 30
0.0000
 11
44.2212
 21
8.9626
 31
0.0000
  0
LINE
  8
27
 10
44.2212
 20
8.9626
 30
0.0000
 11
43.1535
 21
10.0303
 31
0.0000
  0
LINE
  8
27
 10
44.2212
 20
10.5998
 30
0.0000
 11
43.1535
 21
10.5998
 31
0.0000
  0
LINE
  8
27
 10
43.1535
 20
10.5998
 30
0.0000
 11
42.8865
 21
10.8667
 31
0.0000
  0
LINE
  8
27
 10
42.8865
 20
10.8667
 30
0.0000
 11
42.8865
 21
11.4006
 31
0.0000
  0
LINE
  8
27
 10
42.8865
 20
11.4006
 30
0.0000
 11
43.1535
 21
11.6675
 31
0.0000
  0
LINE
  8
27
 10
43.1535
 20
11.6675
 30
0.0000
 11
44.2212
 21
11.6675
 31
0.0000
  0
LINE
  8
27
 10
44.2212
 20
11.6675
 30
0.0000
 11
44.4881
 21
11.4006
 31
0.0000
  0
LINE
  8
27
 10
44.4881
 20
11.4006
 30
0.0000
 11
44.4881
 21
10.8667
 31
0.0000
  0
LINE
  8
27
 10
44.4881
 20
10.8667
 30
0.0000
 11
44.2212
 21
10.5998
 31
0.0000
  0
LINE
  8
27
 10
44.2212
 20
10.5998
 30
0.0000
 11
43.1535
 21
11.6675
 31
0.0000
  0
LINE
  8
27
 10
43.4204
 20
12.2369
 30
0.0000
 11
44.2212
 21
12.2369
 31
0.0000
  0
LINE
  8
27
 10
44.2212
 20
12.2369
 30
0.0000
 11
44.4881
 21
12.5039
 31
0.0000
  0
LINE
  8
27
 10
44.4881
 20
12.5039
 30
0.0000
 11
44.4881
 21
13.3046
 31
0.0000
  0
LINE
  8
27
 10
44.4881
 20
13.3046
 30
0.0000
 11
43.4204
 21
13.3046
 31
0.0000
  0
LINE
  8
27
 10
44.4881
 20
13.8741
 30
0.0000
 11
42.8865
 21
13.8741
 31
0.0000
  0
LINE
  8
27
 10
42.8865
 20
13.8741
 30
0.0000
 11
42.8865
 21
14.9418
 31
0.0000
  0
LINE
  8
27
 10
43.6873
 20
13.8741
 30
0.0000
 11
43.6873
 21
14.4079
 31
0.0000
  0
LINE
  8
27
 10
44.4881
 20
15.5112
 30
0.0000
 11
42.8865
 21
16.5790
 31
0.0000
  0
LINE
  8
27
 10
43.4204
 20
17.1484
 30
0.0000
 11
42.8865
 21
17.6823
 31
0.0000
  0
LINE
  8
27
 10
42.8865
 20
17.6823
 30
0.0000
 11
44.4881
 21
17.6823
 31
0.0000
  0
LINE
  8
27
 10
44.4881
 20
17.1484
 30
0.0000
 11
44.4881
 21
18.2161
 31
0.0000
  0
LINE
  8
27
 10
44.2212
 20
18.7856
 30
0.0000
 11
43.1535
 21
18.7856
 31
0.0000
  0
LINE
  8
27
 10
43.1535
 20
18.7856
 30
0.0000
 11
42.8865
 21
19.0525
 31
0.0000
  0
LINE
  8
27
 10
42.8865
 20
19.0525
 30
0.0000
 11
42.8865
 21
19.5863
 31
0.0000
  0
LINE
  8
27
 10
42.8865
 20
19.5863
 30
0.0000
 11
43.1535
 21
19.8533
 31
0.0000
  0
LINE
  8
27
 10
43.1535
 20
19.8533
 30
0.0000
 11
44.2212
 21
19.8533
 31
0.0000
  0
LINE
  8
27
 10
44.2212
 20
19.8533
 30
0.0000
 11
44.4881
 21
19.5863
 31
0.0000
  0
LINE
  8
27
 10
44.4881
 20
19.5863
 30
0.0000
 11
44.4881
 21
19.0525
 31
0.0000
  0
LINE
  8
27
 10
44.4881
 20
19.0525
 30
0.0000
 11
44.2212
 21
18.7856
 31
0.0000
  0
LINE
  8
27
 10
44.2212
 20
18.7856
 30
0.0000
 11
43.1535
 21
19.8533
 31
0.0000
  0
LINE
  8
27
 10
42.8865
 20
20.4227
 30
0.0000
 11
43.9542
 21
20.4227
 31
0.0000
  0
LINE
  8
27
 10
43.9542
 20
20.4227
 30
0.0000
 11
44.4881
 21
20.9566
 31
0.0000
  0
LINE
  8
27
 10
44.4881
 20
20.9566
 30
0.0000
 11
43.9542
 21
21.4904
 31
0.0000
  0
LINE
  8
27
 10
43.9542
 20
21.4904
 30
0.0000
 11
42.8865
 21
21.4904
 31
0.0000
  0
POINT
  8
23
 10
16.6370
 20
6.9850
 30
0.0000
  0
INSERT
  8
1
  2
RECT
 10
16.6370
 20
8.0350
 30
0.0000
 41
1.2000
 42
1.2000
 43
1.0000
 50
180.0000
  0
INSERT
  8
1
  2
RECT
 10
16.6370
 20
5.9350
 30
0.0000
 41
1.2000
 42
1.2000
 43
1.0000
 50
180.0000
  0
LINE
  8
27
 10
15.6708
 20
-7.7779
 30
0.0000
 11
15.6708
 21
-8.1677
 31
0.0000
  0
LINE
  8
27
 10
15.6708
 20
-8.1677
 30
0.0000
 11
15.8657
 21
-8.3626
 31
0.0000
  0
LINE
  8
27
 10
15.8657
 20
-8.3626
 30
0.0000
 11
16.6453
 21
-8.3626
 31
0.0000
  0
LINE
  8
27
 10
16.6453
 20
-8.3626
 30
0.0000
 11
16.8402
 21
-8.1677
 31
0.0000
  0
LINE
  8
27
 10
16.8402
 20
-8.1677
 30
0.0000
 11
16.8402
 21
-7.7779
 31
0.0000
  0
LINE
  8
27
 10
16.8402
 20
-7.7779
 30
0.0000
 11
16.6453
 21
-7.5830
 31
0.0000
  0
LINE
  8
27
 10
16.6453
 20
-7.5830
 30
0.0000
 11
15.8657
 21
-7.5830
 31
0.0000
  0
LINE
  8
27
 10
15.8657
 20
-7.5830
 30
0.0000
 11
15.6708
 21
-7.7779
 31
0.0000
  0
LINE
  8
27
 10
16.8402
 20
-7.1932
 30
0.0000
 11
15.6708
 21
-7.1932
 31
0.0000
  0
LINE
  8
27
 10
15.6708
 20
-7.1932
 30
0.0000
 11
15.6708
 21
-6.6085
 31
0.0000
  0
LINE
  8
27
 10
15.6708
 20
-6.6085
 30
0.0000
 11
15.8657
 21
-6.4136
 31
0.0000
  0
LINE
  8
27
 10
15.8657
 20
-6.4136
 30
0.0000
 11
16.2555
 21
-6.4136
 31
0.0000
  0
LINE
  8
27
 10
16.2555
 20
-6.4136
 30
0.0000
 11
16.4504
 21
-6.6085
 31
0.0000
  0
LINE
  8
27
 10
16.4504
 20
-6.6085
 30
0.0000
 11
16.4504
 21
-7.1932
 31
0.0000
  0
LINE
  8
27
 10
16.4504
 20
-6.8034
 30
0.0000
 11
16.8402
 21
-6.4136
 31
0.0000
  0
LINE
  8
27
 10
16.8402
 20
-6.0238
 30
0.0000
 11
16.0606
 21
-6.0238
 31
0.0000
  0
LINE
  8
27
 10
16.0606
 20
-6.0238
 30
0.0000
 11
15.6708
 21
-5.6340
 31
0.0000
  0
LINE
  8
27
 10
15.6708
 20
-5.6340
 30
0.0000
 11
16.0606
 21
-5.2442
 31
0.0000
  0
LINE
  8
27
 10
16.0606
 20
-5.2442
 30
0.0000
 11
16.8402
 21
-5.2442
 31
0.0000
  0
LINE
  8
27
 10
16.2555
 20
-6.0238
 30
0.0000
 11
16.2555
 21
-5.2442
 31
0.0000
  0
LINE
  8
27
 10
16.8402
 20
-4.8544
 30
0.0000
 11
15.6708
 21
-4.8544
 31
0.0000
  0
LINE
  8
27
 10
15.6708
 20
-4.8544
 30
0.0000
 11
16.8402
 21
-4.0748
 31
0.0000
  0
LINE
  8
27
 10
16.8402
 20
-4.0748
 30
0.0000
 11
15.6708
 21
-4.0748
 31
0.0000
  0
LINE
  8
27
 10
15.8657
 20
-2.9054
 30
0.0000
 11
15.6708
 21
-3.1003
 31
0.0000
  0
LINE
  8
27
 10
15.6708
 20
-3.1003
 30
0.0000
 11
15.6708
 21
-3.4901
 31
0.0000
  0
LINE
  8
27
 10
15.6708
 20
-3.4901
 30
0.0000
 11
15.8657
 21
-3.6850
 31
0.0000
  0
LINE
  8
27
 10
15.8657
 20
-3.6850
 30
0.0000
 11
16.6453
 21
-3.6850
 31
0.0000
  0
LINE
  8
27
 10
16.6453
 20
-3.6850
 30
0.0000
 11
16.8402
 21
-3.4901
 31
0.0000
  0
LINE
  8
27
 10
16.8402
 20
-3.4901
 30
0.0000
 11
16.8402
 21
-3.1003
 31
0.0000
  0
LINE
  8
27
 10
16.8402
 20
-3.1003
 30
0.0000
 11
16.6453
 21
-2.9054
 31
0.0000
  0
LINE
  8
27
 10
16.6453
 20
-2.9054
 30
0.0000
 11
16.2555
 21
-2.9054
 31
0.0000
  0
LINE
  8
27
 10
16.2555
 20
-2.9054
 30
0.0000
 11
16.2555
 21
-3.2952
 31
0.0000
  0
LINE
  8
27
 10
15.6708
 20
-1.7360
 30
0.0000
 11
15.6708
 21
-2.5156
 31
0.0000
  0
LINE
  8
27
 10
15.6708
 20
-2.5156
 30
0.0000
 11
16.8402
 21
-2.5156
 31
0.0000
  0
LINE
  8
27
 10
16.8402
 20
-2.5156
 30
0.0000
 11
16.8402
 21
-1.7360
 31
0.0000
  0
LINE
  8
27
 10
16.2555
 20
-2.5156
 30
0.0000
 11
16.2555
 21
-2.1258
 31
0.0000
  0
POINT
  8
23
 10
29.8180
 20
30.9210
 30
0.0000
  0
LINE
  8
27
 10
25.5251
 20
18.9063
 30
0.0000
 11
25.8810
 21
18.9063
 31
0.0000
  0
LINE
  8
27
 10
25.8810
 20
18.9063
 30
0.0000
 11
25.8810
 21
19.0843
 31
0.0000
  0
LINE
  8
27
 10
25.8810
 20
19.0843
 30
0.0000
 11
25.8217
 21
19.1436
 31
0.0000
  0
LINE
  8
27
 10
25.8217
 20
19.1436
 30
0.0000
 11
25.5844
 21
19.1436
 31
0.0000
  0
LINE
  8
27
 10
25.5844
 20
19.1436
 30
0.0000
 11
25.5251
 21
19.0843
 31
0.0000
  0
LINE
  8
27
 10
25.5251
 20
19.0843
 30
0.0000
 11
25.5251
 21
18.9063
 31
0.0000
  0
LINE
  8
27
 10
25.5844
 20
19.5178
 30
0.0000
 11
25.5251
 21
19.4585
 31
0.0000
  0
LINE
  8
27
 10
25.5251
 20
19.4585
 30
0.0000
 11
25.5251
 21
19.3398
 31
0.0000
  0
LINE
  8
27
 10
25.5251
 20
19.3398
 30
0.0000
 11
25.5844
 21
19.2805
 31
0.0000
  0
LINE
  8
27
 10
25.5844
 20
19.2805
 30
0.0000
 11
25.8217
 21
19.2805
 31
0.0000
  0
LINE
  8
27
 10
25.8217
 20
19.2805
 30
0.0000
 11
25.8810
 21
19.3398
 31
0.0000
  0
LINE
  8
27
 10
25.8810
 20
19.3398
 30
0.0000
 11
25.8810
 21
19.4585
 31
0.0000
  0
LINE
  8
27
 10
25.8810
 20
19.4585
 30
0.0000
 11
25.8217
 21
19.5178
 31
0.0000
  0
LINE
  8
27
 10
25.8810
 20
19.6547
 30
0.0000
 11
25.8810
 21
19.7734
 31
0.0000
  0
LINE
  8
27
 10
25.8810
 20
19.7140
 30
0.0000
 11
25.5251
 21
19.7140
 31
0.0000
  0
LINE
  8
27
 10
25.5251
 20
19.6547
 30
0.0000
 11
25.5251
 21
19.7734
 31
0.0000
  0
LINE
  8
27
 10
25.8810
 20
19.9042
 30
0.0000
 11
25.5251
 21
19.9042
 31
0.0000
  0
LINE
  8
27
 10
25.5251
 20
19.9042
 30
0.0000
 11
25.8810
 21
20.1415
 31
0.0000
  0
LINE
  8
27
 10
25.8810
 20
20.1415
 30
0.0000
 11
25.5251
 21
20.1415
 31
0.0000
  0
LINE
  8
27
 10
26.3208
 20
18.5246
 30
0.0000
 11
26.2106
 21
18.4144
 31
0.0000
  0
LINE
  8
27
 10
26.2106
 20
18.4144
 30
0.0000
 11
26.2106
 21
18.1941
 31
0.0000
  0
LINE
  8
27
 10
26.2106
 20
18.1941
 30
0.0000
 11
26.3208
 21
18.0840
 31
0.0000
  0
LINE
  8
27
 10
26.3208
 20
18.0840
 30
0.0000
 11
26.7614
 21
18.0840
 31
0.0000
  0
LINE
  8
27
 10
26.7614
 20
18.0840
 30
0.0000
 11
26.8716
 21
18.1941
 31
0.0000
  0
LINE
  8
27
 10
26.8716
 20
18.1941
 30
0.0000
 11
26.8716
 21
18.4144
 31
0.0000
  0
LINE
  8
27
 10
26.8716
 20
18.4144
 30
0.0000
 11
26.7614
 21
18.5246
 31
0.0000
  0
LINE
  8
27
 10
26.8716
 20
18.8324
 30
0.0000
 11
26.2106
 21
18.8324
 31
0.0000
  0
LINE
  8
27
 10
26.2106
 20
18.8324
 30
0.0000
 11
26.8716
 21
19.2730
 31
0.0000
  0
LINE
  8
27
 10
26.8716
 20
19.2730
 30
0.0000
 11
26.2106
 21
19.2730
 31
0.0000
  0
LINE
  8
27
 10
26.4310
 20
19.5808
 30
0.0000
 11
26.2106
 21
19.8011
 31
0.0000
  0
LINE
  8
27
 10
26.2106
 20
19.8011
 30
0.0000
 11
26.8716
 21
19.8011
 31
0.0000
  0
LINE
  8
27
 10
26.8716
 20
19.5808
 30
0.0000
 11
26.8716
 21
20.0214
 31
0.0000
  0
CIRCLE
  8
20
 10
29.8180
 20
30.9210
 30
0.0000
 40
0.8000
  0
CIRCLE
  8
20
 10
29.8180
 20
26.4210
 30
0.0000
 40
0.9000
  0
INSERT
  8
1
  2
RECT
 10
24.3180
 20
30.9210
 30
0.0000
 41
2.4000
 42
2.0000
 43
1.0000
 50
270.0000
  0
INSERT
  8
1
  2
RECT
 10
24.3180
 20
24.7210
 30
0.0000
 41
2.4000
 42
2.0000
 43
1.0000
 50
270.0000
  0
INSERT
  8
1
  2
RECT
 10
35.3180
 20
30.9210
 30
0.0000
 41
2.4000
 42
2.0000
 43
1.0000
 50
270.0000
  0
INSERT
  8
1
  2
RECT
 10
35.3180
 20
24.7210
 30
0.0000
 41
2.4000
 42
2.0000
 43
1.0000
 50
270.0000
  0
POINT
  8
23
 10
17.1450
 20
28.9560
 30
0.0000
  0
CIRCLE
  8
20
 10
19.3450
 20
27.9560
 30
0.0000
 40
0.5000
  0
CIRCLE
  8
20
 10
14.9450
 20
27.9560
 30
0.0000
 40
0.5000
  0
INSERT
  8
1
  2
RECT
 10
17.1450
 20
24.8920
 30
0.0000
 41
0.5000
 42
2.3080
 43
1.0000
 50
0.0000
  0
INSERT
  8
1
  2
RECT
 10
17.9450
 20
24.8920
 30
0.0000
 41
0.5000
 42
2.3080
 43
1.0000
 50
0.0000
  0
INSERT
  8
1
  2
RECT
 10
15.5450
 20
24.8920
 30
0.0000
 41
0.5000
 42
2.3080
 43
1.0000
 50
0.0000
  0
INSERT
  8
1
  2
RECT
 10
21.5450
 20
30.9560
 30
0.0000
 41
2.5400
 42
3.8100
 43
1.0000
 50
180.0000
  0
INSERT
  8
1
  2
RECT
 10
21.5450
 20
25.4560
 30
0.0000
 41
2.0000
 42
2.4000
 43
1.0000
 50
180.0000
  0
INSERT
  8
1
  2
RECT
 10
12.7450
 20
25.4560
 30
0.0000
 41
2.0000
 42
2.4000
 43
1.0000
 50
180.0000
  0
INSERT
  8
1
  2
RECT
 10
12.7450
 20
30.9560
 30
0.0000
 41
2.5400
 42
3.8100
 43
1.0000
 50
180.0000
  0
INSERT
  8
1
  2
RECT
 10
16.3450
 20
24.8920
 30
0.0000
 41
0.5000
 42
2.3080
 43
1.0000
 50
0.0000
  0
INSERT
  8
1
  2
RECT
 10
18.7450
 20
24.8920
 30
0.0000
 41
0.5000
 42
2.3080
 43
1.0000
 50
0.0000
  0
POINT
  8
23
 10
24.3840
 20
20.4470
 30
0.0000
  0
INSERT
  8
1
  2
RECT
 10
24.3840
 20
22.2970
 30
0.0000
 41
1.4000
 42
1.4000
 43
1.0000
 50
180.0000
  0
INSERT
  8
1
  2
RECT
 10
24.3840
 20
18.5970
 30
0.0000
 41
1.4000
 42
1.4000
 43
1.0000
 50
180.0000
  0
POINT
  8
23
 10
24.0030
 20
6.9850
 30
0.0000
  0
INSERT
  8
1
  2
RECT
 10
24.0030
 20
8.0350
 30
0.0000
 41
1.2000
 42
1.2000
 43
1.0000
 50
180.0000
  0
INSERT
  8
1
  2
RECT
 10
24.0030
 20
5.9350
 30
0.0000
 41
1.2000
 42
1.2000
 43
1.0000
 50
180.0000
  0
LINE
  8
27
 10
23.7397
 20
-7.4296
 30
0.0000
 11
23.5448
 21
-7.6245
 31
0.0000
  0
LINE
  8
27
 10
23.5448
 20
-7.6245
 30
0.0000
 11
23.5448
 21
-8.0143
 31
0.0000
  0
LINE
  8
27
 10
23.5448
 20
-8.0143
 30
0.0000
 11
23.7397
 21
-8.2092
 31
0.0000
  0
LINE
  8
27
 10
23.7397
 20
-8.2092
 30
0.0000
 11
24.5193
 21
-8.2092
 31
0.0000
  0
LINE
  8
27
 10
24.5193
 20
-8.2092
 30
0.0000
 11
24.7142
 21
-8.0143
 31
0.0000
  0
LINE
  8
27
 10
24.7142
 20
-8.0143
 30
0.0000
 11
24.7142
 21
-7.6245
 31
0.0000
  0
LINE
  8
27
 10
24.7142
 20
-7.6245
 30
0.0000
 11
24.5193
 21
-7.4296
 31
0.0000
  0
LINE
  8
27
 10
24.5193
 20
-7.4296
 30
0.0000
 11
24.1295
 21
-7.4296
 31
0.0000
  0
LINE
  8
27
 10
24.1295
 20
-7.4296
 30
0.0000
 11
24.1295
 21
-7.8194
 31
0.0000
  0
LINE
  8
27
 10
24.7142
 20
-7.0398
 30
0.0000
 11
23.5448
 21
-7.0398
 31
0.0000
  0
LINE
  8
27
 10
23.5448
 20
-7.0398
 30
0.0000
 11
23.5448
 21
-6.4551
 31
0.0000
  0
LINE
  8
27
 10
23.5448
 20
-6.4551
 30
0.0000
 11
23.7397
 21
-6.2602
 31
0.0000
  0
LINE
  8
27
 10
23.7397
 20
-6.2602
 30
0.0000
 11
24.1295
 21
-6.2602
 31
0.0000
  0
LINE
  8
27
 10
24.1295
 20
-6.2602
 30
0.0000
 11
24.3244
 21
-6.4551
 31
0.0000
  0
LINE
  8
27
 10
24.3244
 20
-6.4551
 30
0.0000
 11
24.3244
 21
-7.0398
 31
0.0000
  0
LINE
  8
27
 10
24.3244
 20
-6.6500
 30
0.0000
 11
24.7142
 21
-6.2602
 31
0.0000
  0
LINE
  8
27
 10
23.5448
 20
-5.0908
 30
0.0000
 11
23.5448
 21
-5.8704
 31
0.0000
  0
LINE
  8
27
 10
23.5448
 20
-5.8704
 30
0.0000
 11
24.7142
 21
-5.8704
 31
0.0000
  0
LINE
  8
27
 10
24.7142
 20
-5.8704
 30
0.0000
 11
24.7142
 21
-5.0908
 31
0.0000
  0
LINE
  8
27
 10
24.1295
 20
-5.8704
 30
0.0000
 11
24.1295
 21
-5.4806
 31
0.0000
  0
LINE
  8
27
 10
23.5448
 20
-3.9214
 30
0.0000
 11
23.5448
 21
-4.7010
 31
0.0000
  0
LINE
  8
27
 10
23.5448
 20
-4.7010
 30
0.0000
 11
24.7142
 21
-4.7010
 31
0.0000
  0
LINE
  8
27
 10
24.7142
 20
-4.7010
 30
0.0000
 11
24.7142
 21
-3.9214
 31
0.0000
  0
LINE
  8
27
 10
24.1295
 20
-4.7010
 30
0.0000
 11
24.1295
 21
-4.3112
 31
0.0000
  0
LINE
  8
27
 10
24.7142
 20
-3.5316
 30
0.0000
 11
23.5448
 21
-3.5316
 31
0.0000
  0
LINE
  8
27
 10
23.5448
 20
-3.5316
 30
0.0000
 11
24.7142
 21
-2.7520
 31
0.0000
  0
LINE
  8
27
 10
24.7142
 20
-2.7520
 30
0.0000
 11
23.5448
 21
-2.7520
 31
0.0000
  0
POINT
  8
23
 10
18.1610
 20
18.0340
 30
0.0000
  0
INSERT
  8
1
  2
RECT
 10
16.1960
 20
19.0340
 30
0.0000
 41
0.2800
 42
0.7300
 43
1.0000
 50
90.0000
  0
INSERT
  8
1
  2
RECT
 10
16.1960
 20
18.5340
 30
0.0000
 41
0.2800
 42
0.7300
 43
1.0000
 50
90.0000
  0
INSERT
  8
1
  2
RECT
 10
16.1960
 20
18.0340
 30
0.0000
 41
0.2800
 42
0.7300
 43
1.0000
 50
90.0000
  0
INSERT
  8
1
  2
RECT
 10
16.1960
 20
17.5340
 30
0.0000
 41
0.2800
 42
0.7300
 43
1.0000
 50
90.0000
  0
INSERT
  8
1
  2
RECT
 10
16.1960
 20
17.0340
 30
0.0000
 41
0.2800
 42
0.7300
 43
1.0000
 50
90.0000
  0
INSERT
  8
1
  2
RECT
 10
17.1610
 20
16.0690
 30
0.0000
 41
0.2800
 42
0.7300
 43
1.0000
 50
180.0000
  0
INSERT
  8
1
  2
RECT
 10
17.6610
 20
16.0690
 30
0.0000
 41
0.2800
 42
0.7300
 43
1.0000
 50
180.0000
  0
INSERT
  8
1
  2
RECT
 10
18.1610
 20
16.0690
 30
0.0000
 41
0.2800
 42
0.7300
 43
1.0000
 50
180.0000
  0
INSERT
  8
1
  2
RECT
 10
18.6610
 20
16.0690
 30
0.0000
 41
0.2800
 42
0.7300
 43
1.0000
 50
180.0000
  0
INSERT
  8
1
  2
RECT
 10
19.1610
 20
16.0690
 30
0.0000
 41
0.2800
 42
0.7300
 43
1.0000
 50
180.0000
  0
INSERT
  8
1
  2
RECT
 10
20.1260
 20
17.0340
 30
0.0000
 41
0.2800
 42
0.7300
 43
1.0000
 50
270.0000
  0
INSERT
  8
1
  2
RECT
 10
20.1260
 20
17.5340
 30
0.0000
 41
0.2800
 42
0.7300
 43
1.0000
 50
270.0000
  0
INSERT
  8
1
  2
RECT
 10
20.1260
 20
18.0340
 30
0.0000
 41
0.2800
 42
0.7300
 43
1.0000
 50
270.0000
  0
INSERT
  8
1
  2
RECT
 10
20.1260
 20
18.5340
 30
0.0000
 41
0.2800
 42
0.7300
 43
1.0000
 50
270.0000
  0
INSERT
  8
1
  2
RECT
 10
20.1260
 20
19.0340
 30
0.0000
 41
0.2800
 42
0.7300
 43
1.0000
 50
270.0000
  0
INSERT
  8
1
  2
RECT
 10
19.1610
 20
19.9990
 30
0.0000
 41
0.2800
 42
0.7300
 43
1.0000
 50
0.0000
  0
INSERT
  8
1
  2
RECT
 10
18.6610
 20
19.9990
 30
0.0000
 41
0.2800
 42
0.7300
 43
1.0000
 50
0.0000
  0
INSERT
  8
1
  2
RECT
 10
18.1610
 20
19.9990
 30
0.0000
 41
0.2800
 42
0.7300
 43
1.0000
 50
0.0000
  0
INSERT
  8
1
  2
RECT
 10
17.6610
 20
19.9990
 30
0.0000
 41
0.2800
 42
0.7300
 43
1.0000
 50
0.0000
  0
INSERT
  8
1
  2
RECT
 10
17.1610
 20
19.9990
 30
0.0000
 41
0.2800
 42
0.7300
 43
1.0000
 50
0.0000
  0
INSERT
  8
1
  2
RECT
 10
18.1610
 20
18.0340
 30
0.0000
 41
2.5000
 42
2.5000
 43
1.0000
 50
0.0000
  0
LINE
  8
27
 10
16.2687
 20
14.9987
 30
0.0000
 11
16.2687
 21
15.3800
 31
0.0000
  0
LINE
  8
27
 10
16.2687
 20
15.3800
 30
0.0000
 11
16.3958
 21
15.2529
 31
0.0000
  0
LINE
  8
27
 10
16.3958
 20
15.2529
 30
0.0000
 11
16.5229
 21
15.3800
 31
0.0000
  0
LINE
  8
27
 10
16.5229
 20
15.3800
 30
0.0000
 11
16.5229
 21
14.9987
 31
0.0000
  0
LINE
  8
27
 10
16.8971
 20
15.3165
 30
0.0000
 11
16.8336
 21
15.3800
 31
0.0000
  0
LINE
  8
27
 10
16.8336
 20
15.3800
 30
0.0000
 11
16.7065
 21
15.3800
 31
0.0000
  0
LINE
  8
27
 10
16.7065
 20
15.3800
 30
0.0000
 11
16.6429
 21
15.3165
 31
0.0000
  0
LINE
  8
27
 10
16.6429
 20
15.3165
 30
0.0000
 11
16.6429
 21
15.0623
 31
0.0000
  0
LINE
  8
27
 10
16.6429
 20
15.0623
 30
0.0000
 11
16.7065
 21
14.9987
 31
0.0000
  0
LINE
  8
27
 10
16.7065
 20
14.9987
 30
0.0000
 11
16.8336
 21
14.9987
 31
0.0000
  0
LINE
  8
27
 10
16.8336
 20
14.9987
 30
0.0000
 11
16.8971
 21
15.0623
 31
0.0000
  0
LINE
  8
27
 10
17.0171
 20
14.9987
 30
0.0000
 11
17.0171
 21
15.3800
 31
0.0000
  0
LINE
  8
27
 10
17.0171
 20
15.3800
 30
0.0000
 11
17.2078
 21
15.3800
 31
0.0000
  0
LINE
  8
27
 10
17.2078
 20
15.3800
 30
0.0000
 11
17.2713
 21
15.3165
 31
0.0000
  0
LINE
  8
27
 10
17.2713
 20
15.3165
 30
0.0000
 11
17.2713
 21
15.1894
 31
0.0000
  0
LINE
  8
27
 10
17.2713
 20
15.1894
 30
0.0000
 11
17.2078
 21
15.1258
 31
0.0000
  0
LINE
  8
27
 10
17.2078
 20
15.1258
 30
0.0000
 11
17.0171
 21
15.1258
 31
0.0000
  0
LINE
  8
27
 10
17.3913
 20
15.3800
 30
0.0000
 11
17.6455
 21
15.3800
 31
0.0000
  0
LINE
  8
27
 10
17.6455
 20
15.3800
 30
0.0000
 11
17.6455
 21
15.3165
 31
0.0000
  0
LINE
  8
27
 10
17.6455
 20
15.3165
 30
0.0000
 11
17.3913
 21
15.0623
 31
0.0000
  0
LINE
  8
27
 10
17.3913
 20
15.0623
 30
0.0000
 11
17.3913
 21
14.9987
 31
0.0000
  0
LINE
  8
27
 10
17.7655
 20
15.3165
 30
0.0000
 11
17.8291
 21
15.3800
 31
0.0000
  0
LINE
  8
27
 10
17.8291
 20
15.3800
 30
0.0000
 11
17.9562
 21
15.3800
 31
0.0000
  0
LINE
  8
27
 10
17.9562
 20
15.3800
 30
0.0000
 11
18.0197
 21
15.3165
 31
0.0000
  0
LINE
  8
27
 10
18.0197
 20
15.3165
 30
0.0000
 11
18.0197
 21
15.2529
 31
0.0000
  0
LINE
  8
27
 10
18.0197
 20
15.2529
 30
0.0000
 11
17.9562
 21
15.1894
 31
0.0000
  0
LINE
  8
27
 10
17.9562
 20
15.1894
 30
0.0000
 11
17.8926
 21
15.1894
 31
0.0000
  0
LINE
  8
27
 10
17.9562
 20
15.1894
 30
0.0000
 11
18.0197
 21
15.1258
 31
0.0000
  0
LINE
  8
27
 10
18.0197
 20
15.1258
 30
0.0000
 11
18.0197
 21
15.0623
 31
0.0000
  0
LINE
  8
27
 10
18.0197
 20
15.0623
 30
0.0000
 11
17.9562
 21
14.9987
 31
0.0000
  0
LINE
  8
27
 10
17.9562
 20
14.9987
 30
0.0000
 11
17.8291
 21
14.9987
 31
0.0000
  0
LINE
  8
27
 10
17.8291
 20
14.9987
 30
0.0000
 11
17.7655
 21
15.0623
 31
0.0000
  0
LINE
  8
27
 10
18.1397
 20
15.3165
 30
0.0000
 11
18.2033
 21
15.3800
 31
0.0000
  0
LINE
  8
27
 10
18.2033
 20
15.3800
 30
0.0000
 11
18.3304
 21
15.3800
 31
0.0000
  0
LINE
  8
27
 10
18.3304
 20
15.3800
 30
0.0000
 11
18.3939
 21
15.3165
 31
0.0000
  0
LINE
  8
27
 10
18.3939
 20
15.3165
 30
0.0000
 11
18.3939
 21
15.2529
 31
0.0000
  0
LINE
  8
27
 10
18.3939
 20
15.2529
 30
0.0000
 11
18.3304
 21
15.1894
 31
0.0000
  0
LINE
  8
27
 10
18.3304
 20
15.1894
 30
0.0000
 11
18.3939
 21
15.1258
 31
0.0000
  0
LINE
  8
27
 10
18.3939
 20
15.1258
 30
0.0000
 11
18.3939
 21
15.0623
 31
0.0000
  0
LINE
  8
27
 10
18.3939
 20
15.0623
 30
0.0000
 11
18.3304
 21
14.9987
 31
0.0000
  0
LINE
  8
27
 10
18.3304
 20
14.9987
 30
0.0000
 11
18.2033
 21
14.9987
 31
0.0000
  0
LINE
  8
27
 10
18.2033
 20
14.9987
 30
0.0000
 11
18.1397
 21
15.0623
 31
0.0000
  0
LINE
  8
27
 10
18.1397
 20
15.0623
 30
0.0000
 11
18.1397
 21
15.1258
 31
0.0000
  0
LINE
  8
27
 10
18.1397
 20
15.1258
 30
0.0000
 11
18.2033
 21
15.1894
 31
0.0000
  0
LINE
  8
27
 10
18.2033
 20
15.1894
 30
0.0000
 11
18.1397
 21
15.2529
 31
0.0000
  0
LINE
  8
27
 10
18.1397
 20
15.2529
 30
0.0000
 11
18.1397
 21
15.3165
 31
0.0000
  0
LINE
  8
27
 10
18.2033
 20
15.1894
 30
0.0000
 11
18.3304
 21
15.1894
 31
0.0000
  0
LINE
  8
27
 10
18.5139
 20
15.3800
 30
0.0000
 11
18.7682
 21
15.3800
 31
0.0000
  0
LINE
  8
27
 10
18.7682
 20
15.3800
 30
0.0000
 11
18.7682
 21
15.3165
 31
0.0000
  0
LINE
  8
27
 10
18.7682
 20
15.3165
 30
0.0000
 11
18.5139
 21
15.0623
 31
0.0000
  0
LINE
  8
27
 10
18.5139
 20
15.0623
 30
0.0000
 11
18.5139
 21
14.9987
 31
0.0000
  0
LINE
  8
27
 10
18.8881
 20
15.2529
 30
0.0000
 11
19.0153
 21
15.3800
 31
0.0000
  0
LINE
  8
27
 10
19.0153
 20
15.3800
 30
0.0000
 11
19.0153
 21
14.9987
 31
0.0000
  0
LINE
  8
27
 10
18.8881
 20
14.9987
 30
0.0000
 11
19.1424
 21
14.9987
 31
0.0000
  0
POINT
  8
23
 10
9.1440
 20
30.4800
 30
0.0000
  0
LINE
  8
27
 10
10.3373
 20
33.6299
 30
0.0000
 11
10.3373
 21
33.2740
 31
0.0000
  0
LINE
  8
27
 10
10.3373
 20
33.2740
 30
0.0000
 11
10.5153
 21
33.2740
 31
0.0000
  0
LINE
  8
27
 10
10.5153
 20
33.2740
 30
0.0000
 11
10.5746
 21
33.3333
 31
0.0000
  0
LINE
  8
27
 10
10.5746
 20
33.3333
 30
0.0000
 11
10.5746
 21
33.5706
 31
0.0000
  0
LINE
  8
27
 10
10.5746
 20
33.5706
 30
0.0000
 11
10.5153
 21
33.6299
 31
0.0000
  0
LINE
  8
27
 10
10.5153
 20
33.6299
 30
0.0000
 11
10.3373
 21
33.6299
 31
0.0000
  0
LINE
  8
27
 10
10.9488
 20
33.5706
 30
0.0000
 11
10.8895
 21
33.6299
 31
0.0000
  0
LINE
  8
27
 10
10.8895
 20
33.6299
 30
0.0000
 11
10.7708
 21
33.6299
 31
0.0000
  0
LINE
  8
27
 10
10.7708
 20
33.6299
 30
0.0000
 11
10.7115
 21
33.5706
 31
0.0000
  0
LINE
  8
27
 10
10.7115
 20
33.5706
 30
0.0000
 11
10.7115
 21
33.3333
 31
0.0000
  0
LINE
  8
27
 10
10.7115
 20
33.3333
 30
0.0000
 11
10.7708
 21
33.2740
 31
0.0000
  0
LINE
  8
27
 10
10.7708
 20
33.2740
 30
0.0000
 11
10.8895
 21
33.2740
 31
0.0000
  0
LINE
  8
27
 10
10.8895
 20
33.2740
 30
0.0000
 11
10.9488
 21
33.3333
 31
0.0000
  0
LINE
  8
27
 10
11.0857
 20
33.2740
 30
0.0000
 11
11.2044
 21
33.2740
 31
0.0000
  0
LINE
  8
27
 10
11.1450
 20
33.2740
 30
0.0000
 11
11.1450
 21
33.6299
 31
0.0000
  0
LINE
  8
27
 10
11.0857
 20
33.6299
 30
0.0000
 11
11.2044
 21
33.6299
 31
0.0000
  0
LINE
  8
27
 10
11.3352
 20
33.2740
 30
0.0000
 11
11.3352
 21
33.6299
 31
0.0000
  0
LINE
  8
27
 10
11.3352
 20
33.6299
 30
0.0000
 11
11.5725
 21
33.2740
 31
0.0000
  0
LINE
  8
27
 10
11.5725
 20
33.2740
 30
0.0000
 11
11.5725
 21
33.6299
 31
0.0000
  0
INSERT
  8
17
  2
LONGP100
 10
10.4140
 20
30.4800
 30
0.0000
 41
1.5080
 42
1.5080
 43
1.0000
 50
270.0000
  0
INSERT
  8
17
  2
LONGP100
 10
10.4140
 20
30.4800
 30
0.0000
 41
1.5080
 42
1.5080
 43
1.0000
 50
270.0000
  0
INSERT
  8
17
  2
LONGP100
 10
7.8740
 20
30.4800
 30
0.0000
 41
1.5080
 42
1.5080
 43
1.0000
 50
270.0000
  0
INSERT
  8
17
  2
LONGP100
 10
7.8740
 20
30.4800
 30
0.0000
 41
1.5080
 42
1.5080
 43
1.0000
 50
270.0000
  0
POINT
  8
23
 10
38.1000
 20
8.8900
 30
0.0000
  0
INSERT
  8
17
  2
SQUAREP
 10
38.1000
 20
7.6200
 30
0.0000
 41
1.6764
 42
1.6764
 43
1.0000
 50
180.0000
  0
INSERT
  8
17
  2
SQUAREP
 10
38.1000
 20
7.6200
 30
0.0000
 41
1.6764
 42
1.6764
 43
1.0000
 50
180.0000
  0
INSERT
  8
17
  2
ROUNDP
 10
38.1000
 20
10.1600
 30
0.0000
 41
1.6764
 42
1.6764
 43
1.0000
 50
180.0000
  0
INSERT
  8
17
  2
ROUNDP
 10
38.1000
 20
10.1600
 30
0.0000
 41
1.6764
 42
1.6764
 43
1.0000
 50
180.0000
  0
LINE
  8
27
 10
39.0388
 20
6.9088
 30
0.0000
 11
40.2082
 21
6.9088
 31
0.0000
  0
LINE
  8
27
 10
40.2082
 20
6.9088
 30
0.0000
 11
40.2082
 21
7.6884
 31
0.0000
  0
LINE
  8
27
 10
39.0388
 20
8.6629
 30
0.0000
 11
39.0388
 21
8.2731
 31
0.0000
  0
LINE
  8
27
 10
39.0388
 20
8.2731
 30
0.0000
 11
39.2337
 21
8.0782
 31
0.0000
  0
LINE
  8
27
 10
39.2337
 20
8.0782
 30
0.0000
 11
40.0133
 21
8.0782
 31
0.0000
  0
LINE
  8
27
 10
40.0133
 20
8.0782
 30
0.0000
 11
40.2082
 21
8.2731
 31
0.0000
  0
LINE
  8
27
 10
40.2082
 20
8.2731
 30
0.0000
 11
40.2082
 21
8.6629
 31
0.0000
  0
LINE
  8
27
 10
40.2082
 20
8.6629
 30
0.0000
 11
40.0133
 21
8.8578
 31
0.0000
  0
LINE
  8
27
 10
40.0133
 20
8.8578
 30
0.0000
 11
39.2337
 21
8.8578
 31
0.0000
  0
LINE
  8
27
 10
39.2337
 20
8.8578
 30
0.0000
 11
39.0388
 21
8.6629
 31
0.0000
  0
LINE
  8
27
 10
40.2082
 20
9.2476
 30
0.0000
 11
39.4286
 21
9.2476
 31
0.0000
  0
LINE
  8
27
 10
39.4286
 20
9.2476
 30
0.0000
 11
39.0388
 21
9.6374
 31
0.0000
  0
LINE
  8
27
 10
39.0388
 20
9.6374
 30
0.0000
 11
39.4286
 21
10.0272
 31
0.0000
  0
LINE
  8
27
 10
39.4286
 20
10.0272
 30
0.0000
 11
40.2082
 21
10.0272
 31
0.0000
  0
LINE
  8
27
 10
39.6235
 20
9.2476
 30
0.0000
 11
39.6235
 21
10.0272
 31
0.0000
  0
LINE
  8
27
 10
39.0388
 20
10.4170
 30
0.0000
 11
40.2082
 21
10.4170
 31
0.0000
  0
LINE
  8
27
 10
40.2082
 20
10.4170
 30
0.0000
 11
40.2082
 21
11.0017
 31
0.0000
  0
LINE
  8
27
 10
40.2082
 20
11.0017
 30
0.0000
 11
40.0133
 21
11.1966
 31
0.0000
  0
LINE
  8
27
 10
40.0133
 20
11.1966
 30
0.0000
 11
39.2337
 21
11.1966
 31
0.0000
  0
LINE
  8
27
 10
39.2337
 20
11.1966
 30
0.0000
 11
39.0388
 21
11.0017
 31
0.0000
  0
LINE
  8
27
 10
39.0388
 20
11.0017
 30
0.0000
 11
39.0388
 21
10.4170
 31
0.0000
  0
POINT
  8
23
 10
2.5400
 20
8.8900
 30
0.0000
  0
INSERT
  8
17
  2
SQUAREP
 10
2.5400
 20
7.6200
 30
0.0000
 41
1.6764
 42
1.6764
 43
1.0000
 50
180.0000
  0
INSERT
  8
17
  2
SQUAREP
 10
2.5400
 20
7.6200
 30
0.0000
 41
1.6764
 42
1.6764
 43
1.0000
 50
180.0000
  0
INSERT
  8
17
  2
ROUNDP
 10
2.5400
 20
10.1600
 30
0.0000
 41
1.6764
 42
1.6764
 43
1.0000
 50
180.0000
  0
INSERT
  8
17
  2
ROUNDP
 10
2.5400
 20
10.1600
 30
0.0000
 41
1.6764
 42
1.6764
 43
1.0000
 50
180.0000
  0
LINE
  8
27
 10
1.6002
 20
6.6548
 30
0.0000
 11
0.4308
 21
6.6548
 31
0.0000
  0
LINE
  8
27
 10
0.4308
 20
6.6548
 30
0.0000
 11
0.4308
 21
7.2395
 31
0.0000
  0
LINE
  8
27
 10
0.4308
 20
7.2395
 30
0.0000
 11
0.6257
 21
7.4344
 31
0.0000
  0
LINE
  8
27
 10
0.6257
 20
7.4344
 30
0.0000
 11
0.8206
 21
7.4344
 31
0.0000
  0
LINE
  8
27
 10
0.8206
 20
7.4344
 30
0.0000
 11
1.0155
 21
7.2395
 31
0.0000
  0
LINE
  8
27
 10
1.0155
 20
7.2395
 30
0.0000
 11
1.2104
 21
7.4344
 31
0.0000
  0
LINE
  8
27
 10
1.2104
 20
7.4344
 30
0.0000
 11
1.4053
 21
7.4344
 31
0.0000
  0
LINE
  8
27
 10
1.4053
 20
7.4344
 30
0.0000
 11
1.6002
 21
7.2395
 31
0.0000
  0
LINE
  8
27
 10
1.6002
 20
7.2395
 30
0.0000
 11
1.6002
 21
6.6548
 31
0.0000
  0
LINE
  8
27
 10
1.0155
 20
6.6548
 30
0.0000
 11
1.0155
 21
7.2395
 31
0.0000
  0
LINE
  8
27
 10
1.6002
 20
7.8242
 30
0.0000
 11
0.8206
 21
7.8242
 31
0.0000
  0
LINE
  8
27
 10
0.8206
 20
7.8242
 30
0.0000
 11
0.4308
 21
8.2140
 31
0.0000
  0
LINE
  8
27
 10
0.4308
 20
8.2140
 30
0.0000
 11
0.8206
 21
8.6038
 31
0.0000
  0
LINE
  8
27
 10
0.8206
 20
8.6038
 30
0.0000
 11
1.6002
 21
8.6038
 31
0.0000
  0
LINE
  8
27
 10
1.0155
 20
7.8242
 30
0.0000
 11
1.0155
 21
8.6038
 31
0.0000
  0
LINE
  8
27
 10
1.6002
 20
9.3834
 30
0.0000
 11
0.4308
 21
9.3834
 31
0.0000
  0
LINE
  8
27
 10
0.4308
 20
8.9936
 30
0.0000
 11
0.4308
 21
9.7732
 31
0.0000
  0
LINE
  8
27
 10
1.6002
 20
10.5528
 30
0.0000
 11
0.4308
 21
10.5528
 31
0.0000
  0
LINE
  8
27
 10
0.4308
 20
10.1630
 30
0.0000
 11
0.4308
 21
10.9426
 31
0.0000
  0
POINT
  8
23
 10
20.3200
 20
2.5400
 30
0.0000
  0
INSERT
  8
17
  2
ROUNDP
 10
17.7800
 20
2.5400
 30
0.0000
 41
1.6764
 42
1.6764
 43
1.0000
 50
90.0000
  0
INSERT
  8
17
  2
ROUNDP
 10
17.7800
 20
2.5400
 30
0.0000
 41
1.6764
 42
1.6764
 43
1.0000
 50
90.0000
  0
INSERT
  8
17
  2
ROUNDP
 10
20.3200
 20
2.5400
 30
0.0000
 41
1.6764
 42
1.6764
 43
1.0000
 50
90.0000
  0
INSERT
  8
17
  2
ROUNDP
 10
20.3200
 20
2.5400
 30
0.0000
 41
1.6764
 42
1.6764
 43
1.0000
 50
90.0000
  0
INSERT
  8
17
  2
ROUNDP
 10
22.8600
 20
2.5400
 30
0.0000
 41
1.6764
 42
1.6764
 43
1.0000
 50
90.0000
  0
INSERT
  8
17
  2
ROUNDP
 10
22.8600
 20
2.5400
 30
0.0000
 41
1.6764
 42
1.6764
 43
1.0000
 50
90.0000
  0
POINT
  8
23
 10
30.4800
 20
3.5560
 30
0.0000
  0
INSERT
  8
1
  2
RECT
 10
29.4800
 20
7.2560
 30
0.0000
 41
1.0000
 42
4.6000
 43
1.0000
 50
180.0000
  0
INSERT
  8
1
  2
RECT
 10
31.4800
 20
7.2560
 30
0.0000
 41
1.0000
 42
4.6000
 43
1.0000
 50
180.0000
  0
INSERT
  8
1
  2
RECT
 10
33.8800
 20
2.0560
 30
0.0000
 41
3.4000
 42
1.6000
 43
1.0000
 50
270.0000
  0
INSERT
  8
1
  2
RECT
 10
27.0800
 20
2.0560
 30
0.0000
 41
3.4000
 42
1.6000
 43
1.0000
 50
270.0000
  0
POINT
  8
23
 10
6.2390
 20
26.0970
 30
0.0000
  0
LINE
  8
27
 10
4.4864
 20
24.7254
 30
0.0000
 11
4.4864
 21
25.0813
 31
0.0000
  0
LINE
  8
27
 10
4.4864
 20
25.0813
 30
0.0000
 11
4.6644
 21
25.0813
 31
0.0000
  0
LINE
  8
27
 10
4.6644
 20
25.0813
 30
0.0000
 11
4.7237
 21
25.0220
 31
0.0000
  0
LINE
  8
27
 10
4.7237
 20
25.0220
 30
0.0000
 11
4.7237
 21
24.9033
 31
0.0000
  0
LINE
  8
27
 10
4.7237
 20
24.9033
 30
0.0000
 11
4.6644
 21
24.8440
 31
0.0000
  0
LINE
  8
27
 10
4.6644
 20
24.8440
 30
0.0000
 11
4.4864
 21
24.8440
 31
0.0000
  0
LINE
  8
27
 10
4.6050
 20
24.8440
 30
0.0000
 11
4.7237
 21
24.7254
 31
0.0000
  0
LINE
  8
27
 10
5.0979
 20
25.0813
 30
0.0000
 11
4.8606
 21
25.0813
 31
0.0000
  0
LINE
  8
27
 10
4.8606
 20
25.0813
 30
0.0000
 11
4.8606
 21
24.7254
 31
0.0000
  0
LINE
  8
27
 10
4.8606
 20
24.7254
 30
0.0000
 11
5.0979
 21
24.7254
 31
0.0000
  0
LINE
  8
27
 10
4.8606
 20
24.9033
 30
0.0000
 11
4.9792
 21
24.9033
 31
0.0000
  0
LINE
  8
27
 10
5.2348
 20
25.0813
 30
0.0000
 11
5.2348
 21
24.7254
 31
0.0000
  0
LINE
  8
27
 10
5.2348
 20
24.7254
 30
0.0000
 11
5.4128
 21
24.7254
 31
0.0000
  0
LINE
  8
27
 10
5.4128
 20
24.7254
 30
0.0000
 11
5.4721
 21
24.7847
 31
0.0000
  0
LINE
  8
27
 10
5.4721
 20
24.7847
 30
0.0000
 11
5.4721
 21
25.0220
 31
0.0000
  0
LINE
  8
27
 10
5.4721
 20
25.0220
 30
0.0000
 11
5.4128
 21
25.0813
 31
0.0000
  0
LINE
  8
27
 10
5.4128
 20
25.0813
 30
0.0000
 11
5.2348
 21
25.0813
 31
0.0000
  0
INSERT
  8
1
  2
RECT
 10
5.1890
 20
26.0970
 30
0.0000
 41
1.2000
 42
1.2000
 43
1.0000
 50
270.0000
  0
INSERT
  8
1
  2
RECT
 10
7.2890
 20
26.0970
 30
0.0000
 41
1.2000
 42
1.2000
 43
1.0000
 50
270.0000
  0
POINT
  8
23
 10
19.4310
 20
22.6060
 30
0.0000
  0
LINE
  8
27
 10
19.0744
 20
23.8677
 30
0.0000
 11
19.0744
 21
24.6473
 31
0.0000
  0
LINE
  8
27
 10
19.0744
 20
24.6473
 30
0.0000
 11
19.2693
 21
24.8422
 31
0.0000
  0
LINE
  8
27
 10
19.2693
 20
24.8422
 30
0.0000
 11
19.6591
 21
24.8422
 31
0.0000
  0
LINE
  8
27
 10
19.6591
 20
24.8422
 30
0.0000
 11
19.8540
 21
24.6473
 31
0.0000
  0
LINE
  8
27
 10
19.8540
 20
24.6473
 30
0.0000
 11
19.8540
 21
23.8677
 31
0.0000
  0
LINE
  8
27
 10
19.8540
 20
23.8677
 30
0.0000
 11
19.6591
 21
23.6728
 31
0.0000
  0
LINE
  8
27
 10
19.6591
 20
23.6728
 30
0.0000
 11
19.2693
 21
23.6728
 31
0.0000
  0
LINE
  8
27
 10
19.2693
 20
23.6728
 30
0.0000
 11
19.0744
 21
23.8677
 31
0.0000
  0
LINE
  8
27
 10
19.0744
 20
23.8677
 30
0.0000
 11
19.8540
 21
24.6473
 31
0.0000
  0
INSERT
  8
1
  2
RECT
 10
20.4310
 20
22.6060
 30
0.0000
 41
1.1000
 42
1.4000
 43
1.0000
 50
180.0000
  0
INSERT
  8
1
  2
RECT
 10
18.4310
 20
22.6060
 30
0.0000
 41
1.1000
 42
1.4000
 43
1.0000
 50
180.0000
  0
POINT
  8
23
 10
17.7160
 20
11.3820
 30
0.0000
  0
INSERT
  8
1
  2
RECT
 10
16.7160
 20
11.3820
 30
0.0000
 41
1.1000
 42
1.4000
 43
1.0000
 50
0.0000
  0
INSERT
  8
1
  2
RECT
 10
18.7160
 20
11.3820
 30
0.0000
 41
1.1000
 42
1.4000
 43
1.0000
 50
0.0000
  0
LINE
  8
27
 10
16.2604
 20
12.4488
 30
0.0000
 11
15.4808
 21
12.4488
 31
0.0000
  0
LINE
  8
27
 10
15.4808
 20
12.4488
 30
0.0000
 11
16.2604
 21
13.2284
 31
0.0000
  0
LINE
  8
27
 10
16.2604
 20
13.2284
 30
0.0000
 11
16.2604
 21
13.4233
 31
0.0000
  0
LINE
  8
27
 10
16.2604
 20
13.4233
 30
0.0000
 11
16.0655
 21
13.6182
 31
0.0000
  0
LINE
  8
27
 10
16.0655
 20
13.6182
 30
0.0000
 11
15.6757
 21
13.6182
 31
0.0000
  0
LINE
  8
27
 10
15.6757
 20
13.6182
 30
0.0000
 11
15.4808
 21
13.4233
 31
0.0000
  0
LINE
  8
27
 10
16.6502
 20
13.6182
 30
0.0000
 11
17.4298
 21
13.6182
 31
0.0000
  0
LINE
  8
27
 10
17.4298
 20
13.6182
 30
0.0000
 11
17.4298
 21
13.4233
 31
0.0000
  0
LINE
  8
27
 10
17.4298
 20
13.4233
 30
0.0000
 11
16.6502
 21
12.6437
 31
0.0000
  0
LINE
  8
27
 10
16.6502
 20
12.6437
 30
0.0000
 11
16.6502
 21
12.4488
 31
0.0000
  0
LINE
  8
27
 10
17.8196
 20
12.6437
 30
0.0000
 11
17.8196
 21
13.4233
 31
0.0000
  0
LINE
  8
27
 10
17.8196
 20
13.4233
 30
0.0000
 11
18.0145
 21
13.6182
 31
0.0000
  0
LINE
  8
27
 10
18.0145
 20
13.6182
 30
0.0000
 11
18.4043
 21
13.6182
 31
0.0000
  0
LINE
  8
27
 10
18.4043
 20
13.6182
 30
0.0000
 11
18.5992
 21
13.4233
 31
0.0000
  0
LINE
  8
27
 10
18.5992
 20
13.4233
 30
0.0000
 11
18.5992
 21
12.6437
 31
0.0000
  0
LINE
  8
27
 10
18.5992
 20
12.6437
 30
0.0000
 11
18.4043
 21
12.4488
 31
0.0000
  0
LINE
  8
27
 10
18.4043
 20
12.4488
 30
0.0000
 11
18.0145
 21
12.4488
 31
0.0000
  0
LINE
  8
27
 10
18.0145
 20
12.4488
 30
0.0000
 11
17.8196
 21
12.6437
 31
0.0000
  0
LINE
  8
27
 10
17.8196
 20
12.6437
 30
0.0000
 11
18.5992
 21
13.4233
 31
0.0000
  0
LINE
  8
27
 10
18.9890
 20
13.6182
 30
0.0000
 11
18.9890
 21
12.4488
 31
0.0000
  0
LINE
  8
27
 10
18.9890
 20
12.8386
 30
0.0000
 11
19.7686
 21
13.6182
 31
0.0000
  0
LINE
  8
27
 10
19.1839
 20
13.0335
 30
0.0000
 11
19.7686
 21
12.4488
 31
0.0000
  0
POINT
  8
23
 10
22.4310
 20
11.3820
 30
0.0000
  0
INSERT
  8
1
  2
RECT
 10
23.4310
 20
11.3820
 30
0.0000
 41
1.1000
 42
1.4000
 43
1.0000
 50
180.0000
  0
INSERT
  8
1
  2
RECT
 10
21.4310
 20
11.3820
 30
0.0000
 41
1.1000
 42
1.4000
 43
1.0000
 50
180.0000
  0
LINE
  8
27
 10
20.3442
 20
13.2284
 30
0.0000
 11
20.7340
 21
13.6182
 31
0.0000
  0
LINE
  8
27
 10
20.7340
 20
13.6182
 30
0.0000
 11
20.7340
 21
12.4488
 31
0.0000
  0
LINE
  8
27
 10
20.3442
 20
12.4488
 30
0.0000
 11
21.1238
 21
12.4488
 31
0.0000
  0
LINE
  8
27
 10
21.5136
 20
12.6437
 30
0.0000
 11
21.5136
 21
13.4233
 31
0.0000
  0
LINE
  8
27
 10
21.5136
 20
13.4233
 30
0.0000
 11
21.7085
 21
13.6182
 31
0.0000
  0
LINE
  8
27
 10
21.7085
 20
13.6182
 30
0.0000
 11
22.0983
 21
13.6182
 31
0.0000
  0
LINE
  8
27
 10
22.0983
 20
13.6182
 30
0.0000
 11
22.2932
 21
13.4233
 31
0.0000
  0
LINE
  8
27
 10
22.2932
 20
13.4233
 30
0.0000
 11
22.2932
 21
12.6437
 31
0.0000
  0
LINE
  8
27
 10
22.2932
 20
12.6437
 30
0.0000
 11
22.0983
 21
12.4488
 31
0.0000
  0
LINE
  8
27
 10
22.0983
 20
12.4488
 30
0.0000
 11
21.7085
 21
12.4488
 31
0.0000
  0
LINE
  8
27
 10
21.7085
 20
12.4488
 30
0.0000
 11
21.5136
 21
12.6437
 31
0.0000
  0
LINE
  8
27
 10
21.5136
 20
12.6437
 30
0.0000
 11
22.2932
 21
13.4233
 31
0.0000
  0
LINE
  8
27
 10
22.6830
 20
12.6437
 30
0.0000
 11
22.6830
 21
13.4233
 31
0.0000
  0
LINE
  8
27
 10
22.6830
 20
13.4233
 30
0.0000
 11
22.8779
 21
13.6182
 31
0.0000
  0
LINE
  8
27
 10
22.8779
 20
13.6182
 30
0.0000
 11
23.2677
 21
13.6182
 31
0.0000
  0
LINE
  8
27
 10
23.2677
 20
13.6182
 30
0.0000
 11
23.4626
 21
13.4233
 31
0.0000
  0
LINE
  8
27
 10
23.4626
 20
13.4233
 30
0.0000
 11
23.4626
 21
12.6437
 31
0.0000
  0
LINE
  8
27
 10
23.4626
 20
12.6437
 30
0.0000
 11
23.2677
 21
12.4488
 31
0.0000
  0
LINE
  8
27
 10
23.2677
 20
12.4488
 30
0.0000
 11
22.8779
 21
12.4488
 31
0.0000
  0
LINE
  8
27
 10
22.8779
 20
12.4488
 30
0.0000
 11
22.6830
 21
12.6437
 31
0.0000
  0
LINE
  8
27
 10
22.6830
 20
12.6437
 30
0.0000
 11
23.4626
 21
13.4233
 31
0.0000
  0
LINE
  8
27
 10
23.8524
 20
13.6182
 30
0.0000
 11
23.8524
 21
12.4488
 31
0.0000
  0
LINE
  8
27
 10
23.8524
 20
12.8386
 30
0.0000
 11
24.6320
 21
13.6182
 31
0.0000
  0
LINE
  8
27
 10
24.0473
 20
13.0335
 30
0.0000
 11
24.6320
 21
12.4488
 31
0.0000
  0
POINT
  8
23
 10
9.9060
 20
14.4780
 30
0.0000
  0
INSERT
  8
1
  2
RECT
 10
9.9060
 20
13.5280
 30
0.0000
 41
1.3000
 42
1.6000
 43
1.0000
 50
90.0000
  0
INSERT
  8
1
  2
RECT
 10
9.9060
 20
15.4280
 30
0.0000
 41
1.3000
 42
1.6000
 43
1.0000
 50
90.0000
  0
LINE
  8
27
 10
8.0596
 20
13.7668
 30
0.0000
 11
7.6698
 21
14.1566
 31
0.0000
  0
LINE
  8
27
 10
7.6698
 20
14.1566
 30
0.0000
 11
8.8392
 21
14.1566
 31
0.0000
  0
LINE
  8
27
 10
8.8392
 20
13.7668
 30
0.0000
 11
8.8392
 21
14.5464
 31
0.0000
  0
LINE
  8
27
 10
7.6698
 20
14.9362
 30
0.0000
 11
8.8392
 21
14.9362
 31
0.0000
  0
LINE
  8
27
 10
8.4494
 20
14.9362
 30
0.0000
 11
7.6698
 21
15.7158
 31
0.0000
  0
LINE
  8
27
 10
8.2545
 20
15.1311
 30
0.0000
 11
8.8392
 21
15.7158
 31
0.0000
  0
POINT
  8
23
 10
18.9230
 20
6.9850
 30
0.0000
  0
INSERT
  8
1
  2
RECT
 10
18.9230
 20
7.9850
 30
0.0000
 41
1.1000
 42
1.4000
 43
1.0000
 50
270.0000
  0
INSERT
  8
1
  2
RECT
 10
18.9230
 20
5.9850
 30
0.0000
 41
1.1000
 42
1.4000
 43
1.0000
 50
270.0000
  0
LINE
  8
27
 10
18.8546
 20
-4.9550
 30
0.0000
 11
18.4648
 21
-4.5652
 31
0.0000
  0
LINE
  8
27
 10
18.4648
 20
-4.5652
 30
0.0000
 11
19.6342
 21
-4.5652
 31
0.0000
  0
LINE
  8
27
 10
19.6342
 20
-4.9550
 30
0.0000
 11
19.6342
 21
-4.1754
 31
0.0000
  0
LINE
  8
27
 10
18.4648
 20
-3.7856
 30
0.0000
 11
19.6342
 21
-3.7856
 31
0.0000
  0
LINE
  8
27
 10
19.2444
 20
-3.7856
 30
0.0000
 11
18.4648
 21
-3.0060
 31
0.0000
  0
LINE
  8
27
 10
19.0495
 20
-3.5907
 30
0.0000
 11
19.6342
 21
-3.0060
 31
0.0000
  0
POINT
  8
23
 10
21.4630
 20
6.9850
 30
0.0000
  0
INSERT
  8
1
  2
RECT
 10
21.4630
 20
7.9850
 30
0.0000
 41
1.1000
 42
1.4000
 43
1.0000
 50
270.0000
  0
INSERT
  8
1
  2
RECT
 10
21.4630
 20
5.9850
 30
0.0000
 41
1.1000
 42
1.4000
 43
1.0000
 50
270.0000
  0
LINE
  8
27
 10
21.3946
 20
-4.9550
 30
0.0000
 11
21.0048
 21
-4.5652
 31
0.0000
  0
LINE
  8
27
 10
21.0048
 20
-4.5652
 30
0.0000
 11
22.1742
 21
-4.5652
 31
0.0000
  0
LINE
  8
27
 10
22.1742
 20
-4.9550
 30
0.0000
 11
22.1742
 21
-4.1754
 31
0.0000
  0
LINE
  8
27
 10
21.0048
 20
-3.7856
 30
0.0000
 11
22.1742
 21
-3.7856
 31
0.0000
  0
LINE
  8
27
 10
21.7844
 20
-3.7856
 30
0.0000
 11
21.0048
 21
-3.0060
 31
0.0000
  0
LINE
  8
27
 10
21.5895
 20
-3.5907
 30
0.0000
 11
22.1742
 21
-3.0060
 31
0.0000
  0
POINT
  8
23
 10
10.0490
 20
23.1760
 30
0.0000
  0
INSERT
  8
1
  2
RECT
 10
9.0490
 20
23.1760
 30
0.0000
 41
1.1000
 42
1.4000
 43
1.0000
 50
0.0000
  0
INSERT
  8
1
  2
RECT
 10
11.0490
 20
23.1760
 30
0.0000
 41
1.1000
 42
1.4000
 43
1.0000
 50
0.0000
  0
LINE
  8
27
 10
8.9990
 20
25.1524
 30
0.0000
 11
9.3888
 21
25.5422
 31
0.0000
  0
LINE
  8
27
 10
9.3888
 20
25.5422
 30
0.0000
 11
9.3888
 21
24.3728
 31
0.0000
  0
LINE
  8
27
 10
8.9990
 20
24.3728
 30
0.0000
 11
9.7786
 21
24.3728
 31
0.0000
  0
LINE
  8
27
 10
10.1684
 20
25.5422
 30
0.0000
 11
10.1684
 21
24.3728
 31
0.0000
  0
LINE
  8
27
 10
10.1684
 20
24.7626
 30
0.0000
 11
10.9480
 21
25.5422
 31
0.0000
  0
LINE
  8
27
 10
10.3633
 20
24.9575
 30
0.0000
 11
10.9480
 21
24.3728
 31
0.0000
  0
POINT
  8
23
 10
3.3020
 20
18.0340
 30
0.0000
  0
LINE
  8
1
 10
3.3020
 20
22.5340
 30
0.0000
 11
3.3020
 21
19.1340
 31
0.0000
  0
LINE
  8
1
 10
3.3020
 20
17.0340
 30
0.0000
 11
3.3020
 21
12.9340
 31
0.0000
  0
INSERT
  8
1
  2
RECT
 10
3.3020
 20
19.0594
 30
0.0000
 41
1.2000
 42
1.4000
 43
1.0000
 50
270.0000
  0
INSERT
  8
1
  2
RECT
 10
3.3020
 20
17.0086
 30
0.0000
 41
1.2000
 42
1.4000
 43
1.0000
 50
270.0000
  0
INSERT
  8
17
  2
OCTAGONP
 10
3.3020
 20
23.1140
 30
0.0000
 41
1.6764
 42
1.6764
 43
1.0000
 50
270.0000
  0
INSERT
  8
17
  2
OCTAGONP
 10
3.3020
 20
23.1140
 30
0.0000
 41
1.6764
 42
1.6764
 43
1.0000
 50
270.0000
  0
INSERT
  8
17
  2
OCTAGONP
 10
3.3020
 20
12.9540
 30
0.0000
 41
1.6764
 42
1.6764
 43
1.0000
 50
270.0000
  0
INSERT
  8
17
  2
OCTAGONP
 10
3.3020
 20
12.9540
 30
0.0000
 41
1.6764
 42
1.6764
 43
1.0000
 50
270.0000
  0
LINE
  8
27
 10
1.9495
 20
17.6346
 30
0.0000
 11
1.9495
 21
16.8719
 31
0.0000
  0
LINE
  8
27
 10
1.9495
 20
16.8719
 30
0.0000
 11
1.1868
 21
17.6346
 31
0.0000
  0
LINE
  8
27
 10
1.1868
 20
17.6346
 30
0.0000
 11
0.9962
 21
17.6346
 31
0.0000
  0
LINE
  8
27
 10
0.9962
 20
17.6346
 30
0.0000
 11
0.8055
 21
17.4439
 31
0.0000
  0
LINE
  8
27
 10
0.8055
 20
17.4439
 30
0.0000
 11
0.8055
 21
17.0626
 31
0.0000
  0
LINE
  8
27
 10
0.8055
 20
17.0626
 30
0.0000
 11
0.9962
 21
16.8719
 31
0.0000
  0
LINE
  8
27
 10
0.8055
 20
18.0413
 30
0.0000
 11
1.9495
 21
18.0413
 31
0.0000
  0
LINE
  8
27
 10
1.5682
 20
18.0413
 30
0.0000
 11
0.8055
 21
18.8039
 31
0.0000
  0
LINE
  8
27
 10
1.3775
 20
18.2320
 30
0.0000
 11
1.9495
 21
18.8039
 31
0.0000
  0
POINT
  8
23
 10
24.6380
 20
15.7000
 30
0.0000
  0
INSERT
  8
1
  2
RECT
 10
24.6380
 20
14.7000
 30
0.0000
 41
1.1000
 42
1.4000
 43
1.0000
 50
90.0000
  0
INSERT
  8
1
  2
RECT
 10
24.6380
 20
16.7000
 30
0.0000
 41
1.1000
 42
1.4000
 43
1.0000
 50
90.0000
  0
LINE
  8
27
 10
26.0936
 20
13.2108
 30
0.0000
 11
25.7038
 21
13.6006
 31
0.0000
  0
LINE
  8
27
 10
25.7038
 20
13.6006
 30
0.0000
 11
26.8732
 21
13.6006
 31
0.0000
  0
LINE
  8
27
 10
26.8732
 20
13.2108
 30
0.0000
 11
26.8732
 21
13.9904
 31
0.0000
  0
LINE
  8
27
 10
26.6783
 20
14.3802
 30
0.0000
 11
25.8987
 21
14.3802
 31
0.0000
  0
LINE
  8
27
 10
25.8987
 20
14.3802
 30
0.0000
 11
25.7038
 21
14.5751
 31
0.0000
  0
LINE
  8
27
 10
25.7038
 20
14.5751
 30
0.0000
 11
25.7038
 21
14.9649
 31
0.0000
  0
LINE
  8
27
 10
25.7038
 20
14.9649
 30
0.0000
 11
25.8987
 21
15.1598
 31
0.0000
  0
LINE
  8
27
 10
25.8987
 20
15.1598
 30
0.0000
 11
26.6783
 21
15.1598
 31
0.0000
  0
LINE
  8
27
 10
26.6783
 20
15.1598
 30
0.0000
 11
26.8732
 21
14.9649
 31
0.0000
  0
LINE
  8
27
 10
26.8732
 20
14.9649
 30
0.0000
 11
26.8732
 21
14.5751
 31
0.0000
  0
LINE
  8
27
 10
26.8732
 20
14.5751
 30
0.0000
 11
26.6783
 21
14.3802
 31
0.0000
  0
LINE
  8
27
 10
26.6783
 20
14.3802
 30
0.0000
 11
25.8987
 21
15.1598
 31
0.0000
  0
LINE
  8
27
 10
26.6783
 20
15.5496
 30
0.0000
 11
25.8987
 21
15.5496
 31
0.0000
  0
LINE
  8
27
 10
25.8987
 20
15.5496
 30
0.0000
 11
25.7038
 21
15.7445
 31
0.0000
  0
LINE
  8
27
 10
25.7038
 20
15.7445
 30
0.0000
 11
25.7038
 21
16.1343
 31
0.0000
  0
LINE
  8
27
 10
25.7038
 20
16.1343
 30
0.0000
 11
25.8987
 21
16.3292
 31
0.0000
  0
LINE
  8
27
 10
25.8987
 20
16.3292
 30
0.0000
 11
26.6783
 21
16.3292
 31
0.0000
  0
LINE
  8
27
 10
26.6783
 20
16.3292
 30
0.0000
 11
26.8732
 21
16.1343
 31
0.0000
  0
LINE
  8
27
 10
26.8732
 20
16.1343
 30
0.0000
 11
26.8732
 21
15.7445
 31
0.0000
  0
LINE
  8
27
 10
26.8732
 20
15.7445
 30
0.0000
 11
26.6783
 21
15.5496
 31
0.0000
  0
LINE
  8
27
 10
26.6783
 20
15.5496
 30
0.0000
 11
25.8987
 21
16.3292
 31
0.0000
  0
LINE
  8
27
 10
25.7038
 20
16.7190
 30
0.0000
 11
26.8732
 21
16.7190
 31
0.0000
  0
LINE
  8
27
 10
26.4834
 20
16.7190
 30
0.0000
 11
25.7038
 21
17.4986
 31
0.0000
  0
LINE
  8
27
 10
26.2885
 20
16.9139
 30
0.0000
 11
26.8732
 21
17.4986
 31
0.0000
  0
POINT
  8
23
 10
9.9060
 20
19.3040
 30
0.0000
  0
INSERT
  8
1
  2
RECT
 10
9.9060
 20
20.2540
 30
0.0000
 41
1.3000
 42
1.6000
 43
1.0000
 50
270.0000
  0
INSERT
  8
1
  2
RECT
 10
9.9060
 20
18.3540
 30
0.0000
 41
1.3000
 42
1.6000
 43
1.0000
 50
270.0000
  0
LINE
  8
27
 10
11.1076
 20
18.3388
 30
0.0000
 11
10.7178
 21
18.7286
 31
0.0000
  0
LINE
  8
27
 10
10.7178
 20
18.7286
 30
0.0000
 11
11.8872
 21
18.7286
 31
0.0000
  0
LINE
  8
27
 10
11.8872
 20
18.3388
 30
0.0000
 11
11.8872
 21
19.1184
 31
0.0000
  0
LINE
  8
27
 10
10.7178
 20
20.2878
 30
0.0000
 11
10.7178
 21
19.5082
 31
0.0000
  0
LINE
  8
27
 10
10.7178
 20
19.5082
 30
0.0000
 11
11.3025
 21
19.5082
 31
0.0000
  0
LINE
  8
27
 10
11.3025
 20
19.5082
 30
0.0000
 11
11.1076
 21
19.8980
 31
0.0000
  0
LINE
  8
27
 10
11.1076
 20
19.8980
 30
0.0000
 11
11.1076
 21
20.0929
 31
0.0000
  0
LINE
  8
27
 10
11.1076
 20
20.0929
 30
0.0000
 11
11.3025
 21
20.2878
 31
0.0000
  0
LINE
  8
27
 10
11.3025
 20
20.2878
 30
0.0000
 11
11.6923
 21
20.2878
 31
0.0000
  0
LINE
  8
27
 10
11.6923
 20
20.2878
 30
0.0000
 11
11.8872
 21
20.0929
 31
0.0000
  0
LINE
  8
27
 10
11.8872
 20
20.0929
 30
0.0000
 11
11.8872
 21
19.7031
 31
0.0000
  0
LINE
  8
27
 10
11.8872
 20
19.7031
 30
0.0000
 11
11.6923
 21
19.5082
 31
0.0000
  0
LINE
  8
27
 10
11.6923
 20
20.6776
 30
0.0000
 11
10.9127
 21
20.6776
 31
0.0000
  0
LINE
  8
27
 10
10.9127
 20
20.6776
 30
0.0000
 11
10.7178
 21
20.8725
 31
0.0000
  0
LINE
  8
27
 10
10.7178
 20
20.8725
 30
0.0000
 11
10.7178
 21
21.2623
 31
0.0000
  0
LINE
  8
27
 10
10.7178
 20
21.2623
 30
0.0000
 11
10.9127
 21
21.4572
 31
0.0000
  0
LINE
  8
27
 10
10.9127
 20
21.4572
 30
0.0000
 11
11.6923
 21
21.4572
 31
0.0000
  0
LINE
  8
27
 10
11.6923
 20
21.4572
 30
0.0000
 11
11.8872
 21
21.2623
 31
0.0000
  0
LINE
  8
27
 10
11.8872
 20
21.2623
 30
0.0000
 11
11.8872
 21
20.8725
 31
0.0000
  0
LINE
  8
27
 10
11.8872
 20
20.8725
 30
0.0000
 11
11.6923
 21
20.6776
 31
0.0000
  0
LINE
  8
27
 10
11.6923
 20
20.6776
 30
0.0000
 11
10.9127
 21
21.4572
 31
0.0000
  0
LINE
  8
27
 10
10.7178
 20
21.8470
 30
0.0000
 11
11.8872
 21
21.8470
 31
0.0000
  0
LINE
  8
27
 10
11.4974
 20
21.8470
 30
0.0000
 11
10.7178
 21
22.6266
 31
0.0000
  0
LINE
  8
27
 10
11.3025
 20
22.0419
 30
0.0000
 11
11.8872
 21
22.6266
 31
0.0000
  0
POINT
  8
23
 10
7.3660
 20
18.0340
 30
0.0000
  0
LINE
  8
1
 10
7.3660
 20
22.5340
 30
0.0000
 11
7.3660
 21
19.1340
 31
0.0000
  0
LINE
  8
1
 10
7.3660
 20
17.0340
 30
0.0000
 11
7.3660
 21
12.9340
 31
0.0000
  0
INSERT
  8
1
  2
RECT
 10
7.3660
 20
19.0594
 30
0.0000
 41
1.2000
 42
1.4000
 43
1.0000
 50
270.0000
  0
INSERT
  8
1
  2
RECT
 10
7.3660
 20
17.0086
 30
0.0000
 41
1.2000
 42
1.4000
 43
1.0000
 50
270.0000
  0
INSERT
  8
17
  2
OCTAGONP
 10
7.3660
 20
23.1140
 30
0.0000
 41
1.6764
 42
1.6764
 43
1.0000
 50
270.0000
  0
INSERT
  8
17
  2
OCTAGONP
 10
7.3660
 20
23.1140
 30
0.0000
 41
1.6764
 42
1.6764
 43
1.0000
 50
270.0000
  0
INSERT
  8
17
  2
OCTAGONP
 10
7.3660
 20
12.9540
 30
0.0000
 41
1.6764
 42
1.6764
 43
1.0000
 50
270.0000
  0
INSERT
  8
17
  2
OCTAGONP
 10
7.3660
 20
12.9540
 30
0.0000
 41
1.6764
 42
1.6764
 43
1.0000
 50
270.0000
  0
LINE
  8
27
 10
5.5049
 20
16.3639
 30
0.0000
 11
5.1235
 21
16.7452
 31
0.0000
  0
LINE
  8
27
 10
5.1235
 20
16.7452
 30
0.0000
 11
6.2675
 21
16.7452
 31
0.0000
  0
LINE
  8
27
 10
6.2675
 20
16.3639
 30
0.0000
 11
6.2675
 21
17.1266
 31
0.0000
  0
LINE
  8
27
 10
6.0768
 20
17.5333
 30
0.0000
 11
5.3142
 21
17.5333
 31
0.0000
  0
LINE
  8
27
 10
5.3142
 20
17.5333
 30
0.0000
 11
5.1235
 21
17.7240
 31
0.0000
  0
LINE
  8
27
 10
5.1235
 20
17.7240
 30
0.0000
 11
5.1235
 21
18.1053
 31
0.0000
  0
LINE
  8
27
 10
5.1235
 20
18.1053
 30
0.0000
 11
5.3142
 21
18.2959
 31
0.0000
  0
LINE
  8
27
 10
5.3142
 20
18.2959
 30
0.0000
 11
6.0768
 21
18.2959
 31
0.0000
  0
LINE
  8
27
 10
6.0768
 20
18.2959
 30
0.0000
 11
6.2675
 21
18.1053
 31
0.0000
  0
LINE
  8
27
 10
6.2675
 20
18.1053
 30
0.0000
 11
6.2675
 21
17.7240
 31
0.0000
  0
LINE
  8
27
 10
6.2675
 20
17.7240
 30
0.0000
 11
6.0768
 21
17.5333
 31
0.0000
  0
LINE
  8
27
 10
6.0768
 20
17.5333
 30
0.0000
 11
5.3142
 21
18.2959
 31
0.0000
  0
LINE
  8
27
 10
5.1235
 20
18.7027
 30
0.0000
 11
6.2675
 21
18.7027
 31
0.0000
  0
LINE
  8
27
 10
5.8862
 20
18.7027
 30
0.0000
 11
5.1235
 21
19.4653
 31
0.0000
  0
LINE
  8
27
 10
5.6955
 20
18.8934
 30
0.0000
 11
6.2675
 21
19.4653
 31
0.0000
  0
POINT
  8
23
 10
1.2700
 20
24.7650
 30
0.0000
  0
INSERT
  8
1
  2
PIE
 10
1.2700
 20
24.7650
 30
0.0000
 41
1.0000
 42
1.0000
 43
1.0000
 50
0.0000
  0
POINT
  8
23
 10
35.8140
 20
4.8260
 30
0.0000
  0
INSERT
  8
1
  2
PIE
 10
35.8140
 20
4.8260
 30
0.0000
 41
1.0000
 42
1.0000
 43
1.0000
 50
0.0000
  0
POINT
  8
23
 10
2.5400
 20
2.5400
 30
0.0000
  0
INSERT
  8
17
  2
ROUNDP
 10
2.5400
 20
2.5400
 30
0.0000
 41
3.5160
 42
3.5160
 43
1.0000
 50
0.0000
  0
INSERT
  8
17
  2
ROUNDP
 10
2.5400
 20
2.5400
 30
0.0000
 41
3.5160
 42
3.5160
 43
1.0000
 50
0.0000
  0
POINT
  8
23
 10
38.1000
 20
2.5400
 30
0.0000
  0
INSERT
  8
17
  2
ROUNDP
 10
38.1000
 20
2.5400
 30
0.0000
 41
3.5160
 42
3.5160
 43
1.0000
 50
0.0000
  0
INSERT
  8
17
  2
ROUNDP
 10
38.1000
 20
2.5400
 30
0.0000
 41
3.5160
 42
3.5160
 43
1.0000
 50
0.0000
  0
POINT
  8
23
 10
2.5400
 20
27.9400
 30
0.0000
  0
INSERT
  8
17
  2
ROUNDP
 10
2.5400
 20
27.9400
 30
0.0000
 41
3.5160
 42
3.5160
 43
1.0000
 50
0.0000
  0
INSERT
  8
17
  2
ROUNDP
 10
2.5400
 20
27.9400
 30
0.0000
 41
3.5160
 42
3.5160
 43
1.0000
 50
0.0000
  0
POINT
  8
23
 10
38.1000
 20
27.9400
 30
0.0000
  0
INSERT
  8
17
  2
ROUNDP
 10
38.1000
 20
27.9400
 30
0.0000
 41
3.5160
 42
3.5160
 43
1.0000
 50
0.0000
  0
INSERT
  8
17
  2
ROUNDP
 10
38.1000
 20
27.9400
 30
0.0000
 41
3.5160
 42
3.5160
 43
1.0000
 50
0.0000
  0
POINT
  8
23
 10
37.8460
 20
31.4960
 30
0.0000
  0
INSERT
  8
1
  2
PIE
 10
37.8460
 20
31.4960
 30
0.0000
 41
1.0000
 42
1.0000
 43
1.0000
 50
0.0000
  0
LINE
  8
1
 10
19.1770
 20
19.9390
 30
0.0000
 11
19.1770
 21
20.9550
 31
0.0000
  0
LINE
  8
1
 10
19.1770
 20
20.9550
 30
0.0000
 11
21.8440
 21
20.9550
 31
0.0000
  0
LINE
  8
1
 10
21.8440
 20
20.9550
 30
0.0000
 11
21.8440
 21
18.5420
 31
0.0000
  0
LINE
  8
1
 10
21.8440
 20
18.5420
 30
0.0000
 11
19.8120
 21
18.5420
 31
0.0000
  0
LINE
  8
1
 10
19.8120
 20
18.5420
 30
0.0000
 11
19.8120
 21
19.9390
 31
0.0000
  0
LINE
  8
1
 10
19.8120
 20
19.9390
 30
0.0000
 11
19.1770
 21
19.9390
 31
0.0000
  0
LINE
  8
16
 10
21.0820
 20
14.9860
 30
0.0000
 11
21.0820
 21
19.9390
 31
0.0000
  0
LINE
  8
1
 10
21.0820
 20
19.9390
 30
0.0000
 11
21.0820
 21
20.1930
 31
0.0000
  0
LINE
  8
1
 10
21.0740
 20
18.5340
 30
0.0000
 11
20.1260
 21
18.5340
 31
0.0000
  0
LINE
  8
1
 10
21.0820
 20
18.5420
 30
0.0000
 11
21.0740
 21
18.5340
 31
0.0000
  0
LINE
  8
1
 10
21.0820
 20
19.0500
 30
0.0000
 11
21.0820
 21
18.5420
 31
0.0000
  0
LINE
  8
1
 10
20.1420
 20
19.0500
 30
0.0000
 11
21.0820
 21
19.0500
 31
0.0000
  0
LINE
  8
1
 10
20.1260
 20
19.0340
 30
0.0000
 11
20.1420
 21
19.0500
 31
0.0000
  0
LINE
  8
1
 10
9.1600
 20
7.2560
 30
0.0000
 11
9.1600
 21
11.1760
 31
0.0000
  0
LINE
  8
1
 10
9.1600
 20
11.1760
 30
0.0000
 11
9.2870
 21
11.1760
 31
0.0000
  0
LINE
  8
16
 10
17.6530
 20
7.6200
 30
0.0000
 11
7.8740
 21
7.6200
 31
0.0000
  0
LINE
  8
16
 10
7.8740
 20
7.6200
 30
0.0000
 11
2.5400
 21
7.6200
 31
0.0000
  0
LINE
  8
1
 10
7.8740
 20
7.6200
 30
0.0000
 11
8.7960
 21
7.6200
 31
0.0000
  0
LINE
  8
1
 10
8.7960
 20
7.6200
 30
0.0000
 11
9.1600
 21
7.2560
 31
0.0000
  0
LINE
  8
16
 10
21.0820
 20
14.9860
 30
0.0000
 11
17.6530
 21
11.5570
 31
0.0000
  0
LINE
  8
16
 10
17.6530
 20
11.5570
 30
0.0000
 11
17.6530
 21
7.6200
 31
0.0000
  0
INSERT
  8
18
  2
ROUNDV
 10
21.0820
 20
19.9390
 30
0.0000
 41
0.9064
 42
0.9064
 43
1.0000
 50
0.0000
  0
INSERT
  8
18
  2
ROUNDV
 10
21.0820
 20
19.9390
 30
0.0000
 41
0.9064
 42
0.9064
 43
1.0000
 50
0.0000
  0
INSERT
  8
18
  2
ROUNDV
 10
7.8740
 20
7.6200
 30
0.0000
 41
1.0064
 42
1.0064
 43
1.0000
 50
0.0000
  0
INSERT
  8
18
  2
ROUNDV
 10
7.8740
 20
7.6200
 30
0.0000
 41
1.0064
 42
1.0064
 43
1.0000
 50
0.0000
  0
LINE
  8
16
 10
0.0000
 20
0.0000
 30
0.0000
 11
0.0000
 21
33.0470
 31
0.0000
  0
LINE
  8
16
 10
0.0000
 20
33.0470
 30
0.0000
 11
40.6820
 21
33.0470
 31
0.0000
  0
LINE
  8
16
 10
40.6820
 20
33.0470
 30
0.0000
 11
40.6820
 21
0.0000
 31
0.0000
  0
LINE
  8
16
 10
40.6820
 20
0.0000
 30
0.0000
 11
0.0000
 21
0.0000
 31
0.0000
  0
LINE
  8
1
 10
19.1770
 20
17.0180
 30
0.0000
 11
25.2730
 21
17.0180
 31
0.0000
  0
LINE
  8
1
 10
25.2730
 20
17.0180
 30
0.0000
 11
25.2730
 21
13.8430
 31
0.0000
  0
LINE
  8
1
 10
25.2730
 20
13.8430
 30
0.0000
 11
19.1770
 21
13.8430
 31
0.0000
  0
LINE
  8
1
 10
19.1770
 20
13.8430
 30
0.0000
 11
19.1770
 21
17.0180
 31
0.0000
  0
LINE
  8
1
 10
19.1610
 20
17.0340
 30
0.0000
 11
20.1260
 21
17.0340
 31
0.0000
  0
LINE
  8
1
 10
19.1610
 20
16.0690
 30
0.0000
 11
19.1610
 21
17.0020
 31
0.0000
  0
LINE
  8
1
 10
19.1610
 20
17.0020
 30
0.0000
 11
19.1770
 21
17.0180
 31
0.0000
  0
LINE
  8
1
 10
20.0660
 20
12.1920
 30
0.0000
 11
20.1140
 21
12.1440
 31
0.0000
  0
LINE
  8
1
 10
12.4460
 20
14.2240
 30
0.0000
 11
12.4460
 21
15.4140
 31
0.0000
  0
LINE
  8
1
 10
11.9380
 20
13.7160
 30
0.0000
 11
12.4460
 21
14.2240
 31
0.0000
  0
LINE
  8
1
 10
9.9060
 20
20.2540
 30
0.0000
 11
9.9060
 21
21.8440
 31
0.0000
  0
LINE
  8
1
 10
18.1610
 20
18.0340
 30
0.0000
 11
18.9230
 21
18.0340
 31
0.0000
  0
LINE
  8
1
 10
30.2100
 20
10.9380
 30
0.0000
 11
30.2100
 21
11.1760
 31
0.0000
  0
LINE
  8
1
 10
11.1600
 20
7.2560
 30
0.0000
 11
11.1600
 21
11.1760
 31
0.0000
  0
LINE
  8
1
 10
11.1600
 20
11.1760
 30
0.0000
 11
11.2870
 21
11.1760
 31
0.0000
  0
LINE
  8
1
 10
11.2870
 20
11.1760
 30
0.0000
 11
12.9540
 21
11.1760
 31
0.0000
  0
LINE
  8
16
 10
12.9540
 20
11.1760
 30
0.0000
 11
13.4620
 21
11.1760
 31
0.0000
  0
LINE
  8
1
 10
30.2100
 20
11.1760
 30
0.0000
 11
31.3690
 21
11.1760
 31
0.0000
  0
LINE
  8
1
 10
31.3690
 20
11.1760
 30
0.0000
 11
32.7660
 21
12.5730
 31
0.0000
  0
LINE
  8
1
 10
30.2100
 20
10.9380
 30
0.0000
 11
31.4960
 21
9.6520
 31
0.0000
  0
LINE
  8
1
 10
31.4960
 20
9.6520
 30
0.0000
 11
31.4960
 21
8.3820
 31
0.0000
  0
LINE
  8
1
 10
31.4960
 20
8.3820
 30
0.0000
 11
31.4800
 21
8.3660
 31
0.0000
  0
LINE
  8
1
 10
31.4800
 20
8.3660
 30
0.0000
 11
31.4800
 21
7.2560
 31
0.0000
  0
LINE
  8
1
 10
21.4310
 20
11.3820
 30
0.0000
 11
20.8760
 21
11.3820
 31
0.0000
  0
LINE
  8
1
 10
20.8760
 20
11.3820
 30
0.0000
 11
20.0660
 21
12.1920
 31
0.0000
  0
LINE
  8
1
 10
24.3180
 20
30.9210
 30
0.0000
 11
25.3400
 21
30.9210
 31
0.0000
  0
LINE
  8
1
 10
25.3400
 20
30.9210
 30
0.0000
 11
28.4480
 21
27.8130
 31
0.0000
  0
LINE
  8
1
 10
19.1610
 20
17.0020
 30
0.0000
 11
18.8910
 21
17.2720
 31
0.0000
  0
LINE
  8
1
 10
18.8910
 20
17.2720
 30
0.0000
 11
18.1610
 21
17.2720
 31
0.0000
  0
INSERT
  8
18
  2
ROUNDV
 10
22.4790
 20
14.0970
 30
0.0000
 41
0.9064
 42
0.9064
 43
1.0000
 50
0.0000
  0
INSERT
  8
18
  2
ROUNDV
 10
22.4790
 20
14.0970
 30
0.0000
 41
0.9064
 42
0.9064
 43
1.0000
 50
0.0000
  0
INSERT
  8
18
  2
ROUNDV
 10
22.4790
 20
15.3670
 30
0.0000
 41
0.9064
 42
0.9064
 43
1.0000
 50
0.0000
  0
INSERT
  8
18
  2
ROUNDV
 10
22.4790
 20
15.3670
 30
0.0000
 41
0.9064
 42
0.9064
 43
1.0000
 50
0.0000
  0
INSERT
  8
18
  2
ROUNDV
 10
22.6060
 20
16.6370
 30
0.0000
 41
0.9064
 42
0.9064
 43
1.0000
 50
0.0000
  0
INSERT
  8
18
  2
ROUNDV
 10
22.6060
 20
16.6370
 30
0.0000
 41
0.9064
 42
0.9064
 43
1.0000
 50
0.0000
  0
INSERT
  8
18
  2
ROUNDV
 10
18.1610
 20
18.7960
 30
0.0000
 41
0.9064
 42
0.9064
 43
1.0000
 50
0.0000
  0
INSERT
  8
18
  2
ROUNDV
 10
18.1610
 20
18.7960
 30
0.0000
 41
0.9064
 42
0.9064
 43
1.0000
 50
0.0000
  0
INSERT
  8
18
  2
ROUNDV
 10
20.0660
 20
12.1920
 30
0.0000
 41
0.9064
 42
0.9064
 43
1.0000
 50
0.0000
  0
INSERT
  8
18
  2
ROUNDV
 10
20.0660
 20
12.1920
 30
0.0000
 41
0.9064
 42
0.9064
 43
1.0000
 50
0.0000
  0
INSERT
  8
18
  2
ROUNDV
 10
11.9380
 20
13.7160
 30
0.0000
 41
0.9064
 42
0.9064
 43
1.0000
 50
0.0000
  0
INSERT
  8
18
  2
ROUNDV
 10
11.9380
 20
13.7160
 30
0.0000
 41
0.9064
 42
0.9064
 43
1.0000
 50
0.0000
  0
INSERT
  8
18
  2
ROUNDV
 10
9.9060
 20
21.8440
 30
0.0000
 41
0.9064
 42
0.9064
 43
1.0000
 50
0.0000
  0
INSERT
  8
18
  2
ROUNDV
 10
9.9060
 20
21.8440
 30
0.0000
 41
0.9064
 42
0.9064
 43
1.0000
 50
0.0000
  0
INSERT
  8
18
  2
ROUNDV
 10
18.1610
 20
17.2720
 30
0.0000
 41
0.9064
 42
0.9064
 43
1.0000
 50
0.0000
  0
INSERT
  8
18
  2
ROUNDV
 10
18.1610
 20
17.2720
 30
0.0000
 41
0.9064
 42
0.9064
 43
1.0000
 50
0.0000
  0
INSERT
  8
18
  2
ROUNDV
 10
17.3990
 20
18.0340
 30
0.0000
 41
0.9064
 42
0.9064
 43
1.0000
 50
0.0000
  0
INSERT
  8
18
  2
ROUNDV
 10
17.3990
 20
18.0340
 30
0.0000
 41
0.9064
 42
0.9064
 43
1.0000
 50
0.0000
  0
INSERT
  8
18
  2
ROUNDV
 10
18.9230
 20
18.0340
 30
0.0000
 41
0.9064
 42
0.9064
 43
1.0000
 50
0.0000
  0
INSERT
  8
18
  2
ROUNDV
 10
18.9230
 20
18.0340
 30
0.0000
 41
0.9064
 42
0.9064
 43
1.0000
 50
0.0000
  0
INSERT
  8
18
  2
ROUNDV
 10
28.4480
 20
27.8130
 30
0.0000
 41
1.0160
 42
1.0160
 43
1.0000
 50
0.0000
  0
INSERT
  8
18
  2
ROUNDV
 10
28.4480
 20
27.8130
 30
0.0000
 41
1.0160
 42
1.0160
 43
1.0000
 50
0.0000
  0
INSERT
  8
18
  2
ROUNDV
 10
12.9540
 20
11.1760
 30
0.0000
 41
0.9064
 42
0.9064
 43
1.0000
 50
0.0000
  0
INSERT
  8
18
  2
ROUNDV
 10
12.9540
 20
11.1760
 30
0.0000
 41
0.9064
 42
0.9064
 43
1.0000
 50
0.0000
  0
LINE
  8
16
 10
13.9700
 20
13.2080
 30
0.0000
 11
12.4460
 21
14.7320
 31
0.0000
  0
LINE
  8
16
 10
12.4460
 20
14.7320
 30
0.0000
 11
12.4460
 21
21.3360
 31
0.0000
  0
LINE
  8
16
 10
12.4460
 20
21.3360
 30
0.0000
 11
9.6520
 21
24.1300
 31
0.0000
  0
LINE
  8
16
 10
9.6520
 20
24.1300
 30
0.0000
 11
9.6520
 21
25.1460
 31
0.0000
  0
LINE
  8
1
 10
9.6520
 20
25.1460
 30
0.0000
 11
8.7010
 21
26.0970
 31
0.0000
  0
LINE
  8
1
 10
8.7010
 20
26.0970
 30
0.0000
 11
7.2890
 21
26.0970
 31
0.0000
  0
LINE
  8
1
 10
13.9700
 20
13.2080
 30
0.0000
 11
14.9860
 21
13.2080
 31
0.0000
  0
LINE
  8
1
 10
14.9860
 20
13.2080
 30
0.0000
 11
16.2560
 21
14.4780
 31
0.0000
  0
LINE
  8
1
 10
16.2560
 20
14.4780
 30
0.0000
 11
16.7640
 21
14.4780
 31
0.0000
  0
LINE
  8
1
 10
16.7640
 20
14.4780
 30
0.0000
 11
17.1610
 21
14.8750
 31
0.0000
  0
LINE
  8
1
 10
17.1610
 20
14.8750
 30
0.0000
 11
17.1610
 21
16.0690
 31
0.0000
  0
INSERT
  8
18
  2
ROUNDV
 10
13.9700
 20
13.2080
 30
0.0000
 41
0.9064
 42
0.9064
 43
1.0000
 50
0.0000
  0
INSERT
  8
18
  2
ROUNDV
 10
13.9700
 20
13.2080
 30
0.0000
 41
0.9064
 42
0.9064
 43
1.0000
 50
0.0000
  0
INSERT
  8
18
  2
ROUNDV
 10
9.6520
 20
25.1460
 30
0.0000
 41
0.9064
 42
0.9064
 43
1.0000
 50
0.0000
  0
INSERT
  8
18
  2
ROUNDV
 10
9.6520
 20
25.1460
 30
0.0000
 41
0.9064
 42
0.9064
 43
1.0000
 50
0.0000
  0
LINE
  8
1
 10
18.7450
 20
24.8920
 30
0.0000
 11
20.4310
 21
23.2060
 31
0.0000
  0
LINE
  8
1
 10
20.4310
 20
23.2060
 30
0.0000
 11
20.4310
 21
22.6060
 31
0.0000
  0
LINE
  8
1
 10
15.5450
 20
24.8920
 30
0.0000
 11
15.5450
 21
26.9240
 31
0.0000
  0
LINE
  8
1
 10
24.3840
 20
24.7870
 30
0.0000
 11
24.3180
 21
24.7210
 31
0.0000
  0
LINE
  8
1
 10
15.5450
 20
26.9240
 30
0.0000
 11
20.0660
 21
26.9240
 31
0.0000
  0
LINE
  8
1
 10
20.0660
 20
26.9240
 30
0.0000
 11
21.0820
 21
27.9400
 31
0.0000
  0
LINE
  8
1
 10
21.0820
 20
27.9400
 30
0.0000
 11
23.3680
 21
27.9400
 31
0.0000
  0
LINE
  8
1
 10
23.3680
 20
27.9400
 30
0.0000
 11
24.3180
 21
26.9900
 31
0.0000
  0
LINE
  8
1
 10
24.3180
 20
26.9900
 30
0.0000
 11
24.3180
 21
24.7210
 31
0.0000
  0
LINE
  8
19
 10
21.0820
 20
27.9400
 30
0.0000
 11
21.5450
 21
30.9560
 31
0.0000
  0
LINE
  8
19
 10
21.5450
 20
25.4560
 30
0.0000
 11
20.0660
 21
26.9240
 31
0.0000
  0
LINE
  8
19
 10
12.7450
 20
25.4560
 30
0.0000
 11
15.5450
 21
24.8920
 31
0.0000
  0
LINE
  8
19
 10
12.7450
 20
30.9560
 30
0.0000
 11
15.5450
 21
26.9240
 31
0.0000
  0
LINE
  8
1
 10
17.6610
 20
14.3590
 30
0.0000
 11
17.6610
 21
16.0690
 31
0.0000
  0
LINE
  8
1
 10
17.2720
 20
13.9700
 30
0.0000
 11
17.6610
 21
14.3590
 31
0.0000
  0
LINE
  8
1
 10
16.5100
 20
13.9700
 30
0.0000
 11
17.2720
 21
13.9700
 31
0.0000
  0
LINE
  8
1
 10
14.9860
 20
12.4460
 30
0.0000
 11
16.5100
 21
13.9700
 31
0.0000
  0
LINE
  8
1
 10
15.1130
 20
1.0160
 30
0.0000
 11
15.4940
 21
0.6350
 31
0.0000
  0
LINE
  8
1
 10
15.4940
 20
0.6350
 30
0.0000
 11
20.8280
 21
0.6350
 31
0.0000
  0
LINE
  8
1
 10
15.1130
 20
1.0160
 30
0.0000
 11
15.1130
 21
5.8420
 31
0.0000
  0
LINE
  8
1
 10
15.1130
 20
5.8420
 30
0.0000
 11
14.9860
 21
5.9690
 31
0.0000
  0
LINE
  8
1
 10
14.9860
 20
12.4460
 30
0.0000
 11
14.9860
 21
5.9690
 31
0.0000
  0
LINE
  8
1
 10
20.8280
 20
0.6350
 30
0.0000
 11
22.7330
 21
2.5400
 31
0.0000
  0
LINE
  8
1
 10
22.7330
 20
2.5400
 30
0.0000
 11
22.8600
 21
2.5400
 31
0.0000
  0
LINE
  8
1
 10
24.0030
 20
5.9350
 30
0.0000
 11
24.0030
 21
3.6830
 31
0.0000
  0
LINE
  8
1
 10
24.0030
 20
3.6830
 30
0.0000
 11
22.8600
 21
2.5400
 31
0.0000
  0
LINE
  8
1
 10
16.1960
 20
17.0340
 30
0.0000
 11
12.9540
 21
13.7920
 31
0.0000
  0
LINE
  8
1
 10
12.9540
 20
13.7920
 30
0.0000
 11
12.9540
 21
12.9540
 31
0.0000
  0
LINE
  8
1
 10
12.9540
 20
12.9540
 30
0.0000
 11
12.7000
 21
12.7000
 31
0.0000
  0
LINE
  8
1
 10
12.7000
 20
12.7000
 30
0.0000
 11
10.6680
 21
12.7000
 31
0.0000
  0
LINE
  8
1
 10
10.6680
 20
12.7000
 30
0.0000
 11
9.9060
 21
13.4620
 31
0.0000
  0
LINE
  8
1
 10
9.9060
 20
13.4620
 30
0.0000
 11
9.9060
 21
13.5280
 31
0.0000
  0
LINE
  8
1
 10
14.3590
 20
18.5340
 30
0.0000
 11
16.1960
 21
18.5340
 31
0.0000
  0
LINE
  8
1
 10
13.9700
 20
18.9230
 30
0.0000
 11
14.3590
 21
18.5340
 31
0.0000
  0
LINE
  8
16
 10
13.9700
 20
21.9710
 30
0.0000
 11
13.9700
 21
18.9230
 31
0.0000
  0
LINE
  8
16
 10
16.0020
 20
24.0030
 30
0.0000
 11
13.9700
 21
21.9710
 31
0.0000
  0
LINE
  8
16
 10
25.1460
 20
22.2250
 30
0.0000
 11
23.3680
 21
24.0030
 31
0.0000
  0
LINE
  8
16
 10
25.1460
 20
11.4300
 30
0.0000
 11
25.1460
 21
22.2250
 31
0.0000
  0
LINE
  8
1
 10
25.0030
 20
11.4300
 30
0.0000
 11
25.2730
 21
11.4300
 31
0.0000
  0
LINE
  8
16
 10
16.0020
 20
24.0030
 30
0.0000
 11
23.3680
 21
24.0030
 31
0.0000
  0
LINE
  8
1
 10
16.7160
 20
11.3820
 30
0.0000
 11
16.7160
 21
9.6520
 31
0.0000
  0
LINE
  8
1
 10
16.7160
 20
9.6520
 30
0.0000
 11
23.6220
 21
9.6520
 31
0.0000
  0
LINE
  8
1
 10
23.6220
 20
9.6520
 30
0.0000
 11
23.6220
 21
11.3820
 31
0.0000
  0
LINE
  8
1
 10
23.6220
 20
11.3820
 30
0.0000
 11
23.4310
 21
11.3820
 31
0.0000
  0
LINE
  8
16
 10
25.1460
 20
11.4300
 30
0.0000
 11
25.2730
 21
11.4300
 31
0.0000
  0
LINE
  8
1
 10
23.4310
 20
11.3820
 30
0.0000
 11
23.4310
 21
11.4300
 31
0.0000
  0
LINE
  8
1
 10
23.4310
 20
11.4300
 30
0.0000
 11
25.2730
 21
11.4300
 31
0.0000
  0
INSERT
  8
18
  2
ROUNDV
 10
13.9700
 20
18.9230
 30
0.0000
 41
0.9064
 42
0.9064
 43
1.0000
 50
0.0000
  0
INSERT
  8
18
  2
ROUNDV
 10
13.9700
 20
18.9230
 30
0.0000
 41
0.9064
 42
0.9064
 43
1.0000
 50
0.0000
  0
INSERT
  8
18
  2
ROUNDV
 10
25.2730
 20
11.4300
 30
0.0000
 41
0.9064
 42
0.9064
 43
1.0000
 50
0.0000
  0
INSERT
  8
18
  2
ROUNDV
 10
25.2730
 20
11.4300
 30
0.0000
 41
0.9064
 42
0.9064
 43
1.0000
 50
0.0000
  0
LINE
  8
1
 10
9.9060
 20
18.3540
 30
0.0000
 11
9.9060
 21
15.4280
 31
0.0000
  0
LINE
  8
1
 10
7.3660
 20
12.9540
 30
0.0000
 11
7.3660
 21
15.4280
 31
0.0000
  0
LINE
  8
1
 10
7.3660
 20
15.4280
 30
0.0000
 11
9.9060
 21
15.4280
 31
0.0000
  0
LINE
  8
1
 10
32.5120
 20
22.9870
 30
0.0000
 11
32.5120
 21
28.1150
 31
0.0000
  0
LINE
  8
1
 10
32.5120
 20
28.1150
 30
0.0000
 11
35.3180
 21
30.9210
 31
0.0000
  0
LINE
  8
1
 10
31.8220
 20
22.2970
 30
0.0000
 11
24.3840
 21
22.2970
 31
0.0000
  0
LINE
  8
1
 10
31.8220
 20
22.2970
 30
0.0000
 11
32.5120
 21
22.9870
 31
0.0000
  0
LINE
  8
1
 10
18.1610
 20
13.8430
 30
0.0000
 11
18.1610
 21
16.0690
 31
0.0000
  0
LINE
  8
1
 10
17.7800
 20
13.4620
 30
0.0000
 11
18.1610
 21
13.8430
 31
0.0000
  0
LINE
  8
1
 10
16.7640
 20
13.4620
 30
0.0000
 11
17.7800
 21
13.4620
 31
0.0000
  0
LINE
  8
1
 10
15.4940
 20
12.1920
 30
0.0000
 11
16.7640
 21
13.4620
 31
0.0000
  0
LINE
  8
1
 10
15.6210
 20
6.0960
 30
0.0000
 11
15.6210
 21
8.8900
 31
0.0000
  0
LINE
  8
1
 10
15.6210
 20
6.0960
 30
0.0000
 11
15.7480
 21
5.9690
 31
0.0000
  0
LINE
  8
1
 10
15.7480
 20
5.9690
 30
0.0000
 11
16.6030
 21
5.9690
 31
0.0000
  0
LINE
  8
1
 10
15.6210
 20
8.8900
 30
0.0000
 11
15.4940
 21
9.0170
 31
0.0000
  0
LINE
  8
1
 10
15.4940
 20
9.0170
 30
0.0000
 11
15.4940
 21
12.1920
 31
0.0000
  0
LINE
  8
1
 10
16.4760
 20
3.8440
 30
0.0000
 11
17.7800
 21
2.5400
 31
0.0000
  0
LINE
  8
1
 10
16.4760
 20
3.8440
 30
0.0000
 11
16.4760
 21
5.7740
 31
0.0000
  0
LINE
  8
1
 10
16.4760
 20
5.7740
 30
0.0000
 11
16.6370
 21
5.9350
 31
0.0000
  0
LINE
  8
1
 10
16.6030
 20
5.9690
 30
0.0000
 11
16.6370
 21
5.9350
 31
0.0000
  0
LINE
  8
1
 10
16.6370
 20
8.0350
 30
0.0000
 11
18.8730
 21
8.0350
 31
0.0000
  0
LINE
  8
1
 10
18.8730
 20
8.0350
 30
0.0000
 11
18.9230
 21
7.9850
 31
0.0000
  0
LINE
  8
1
 10
21.4630
 20
7.9850
 30
0.0000
 11
23.9530
 21
7.9850
 31
0.0000
  0
LINE
  8
1
 10
23.9530
 20
7.9850
 30
0.0000
 11
24.0030
 21
8.0350
 31
0.0000
  0
LINE
  8
1
 10
9.0490
 20
23.1760
 30
0.0000
 11
7.5870
 21
24.6380
 31
0.0000
  0
LINE
  8
1
 10
7.5870
 20
24.6380
 30
0.0000
 11
5.5880
 21
24.6380
 31
0.0000
  0
LINE
  8
1
 10
5.5880
 20
24.6380
 30
0.0000
 11
5.1890
 21
25.0370
 31
0.0000
  0
LINE
  8
1
 10
5.1890
 20
25.0370
 30
0.0000
 11
5.1890
 21
26.0970
 31
0.0000
  0
LINE
  8
1
 10
20.1260
 20
17.5340
 30
0.0000
 11
23.6300
 21
17.5340
 31
0.0000
  0
LINE
  8
1
 10
23.6300
 20
17.5340
 30
0.0000
 11
24.4640
 21
16.7000
 31
0.0000
  0
LINE
  8
1
 10
24.4640
 20
16.7000
 30
0.0000
 11
24.6380
 21
16.7000
 31
0.0000
  0
LINE
  8
1
 10
20.1260
 20
18.0340
 30
0.0000
 11
21.8440
 21
18.0340
 31
0.0000
  0
LINE
  8
1
 10
21.8440
 20
18.0340
 30
0.0000
 11
22.3520
 21
18.5420
 31
0.0000
  0
LINE
  8
16
 10
22.3520
 20
18.5420
 30
0.0000
 11
22.3520
 21
21.3360
 31
0.0000
  0
LINE
  8
16
 10
22.3520
 20
21.3360
 30
0.0000
 11
21.8440
 21
21.8440
 31
0.0000
  0
LINE
  8
16
 10
21.8440
 20
21.8440
 30
0.0000
 11
17.0180
 21
21.8440
 31
0.0000
  0
LINE
  8
16
 10
17.0180
 20
21.8440
 30
0.0000
 11
14.9860
 21
19.8120
 31
0.0000
  0
LINE
  8
16
 10
14.9860
 20
19.8120
 30
0.0000
 11
14.9860
 21
12.1920
 31
0.0000
  0
LINE
  8
16
 10
14.9860
 20
12.1920
 30
0.0000
 11
9.3980
 21
12.1920
 31
0.0000
  0
LINE
  8
16
 10
9.3980
 20
12.1920
 30
0.0000
 11
8.3820
 21
11.1760
 31
0.0000
  0
LINE
  8
16
 10
8.3820
 20
11.1760
 30
0.0000
 11
5.0800
 21
11.1760
 31
0.0000
  0
LINE
  8
16
 10
5.0800
 20
11.1760
 30
0.0000
 11
3.3020
 21
12.9540
 31
0.0000
  0
INSERT
  8
18
  2
ROUNDV
 10
22.3520
 20
18.5420
 30
0.0000
 41
0.9064
 42
0.9064
 43
1.0000
 50
0.0000
  0
INSERT
  8
18
  2
ROUNDV
 10
22.3520
 20
18.5420
 30
0.0000
 41
0.9064
 42
0.9064
 43
1.0000
 50
0.0000
  0
LINE
  8
1
 10
17.1450
 20
19.8120
 30
0.0000
 11
17.1450
 21
21.7170
 31
0.0000
  0
LINE
  8
1
 10
17.1450
 20
21.7170
 30
0.0000
 11
14.6050
 21
21.7170
 31
0.0000
  0
LINE
  8
1
 10
14.6050
 20
21.7170
 30
0.0000
 11
14.6050
 21
19.0500
 31
0.0000
  0
LINE
  8
1
 10
14.6050
 20
19.0500
 30
0.0000
 11
16.5100
 21
19.0500
 31
0.0000
  0
LINE
  8
1
 10
16.5100
 20
19.0500
 30
0.0000
 11
16.5100
 21
19.8120
 31
0.0000
  0
LINE
  8
1
 10
16.5100
 20
19.8120
 30
0.0000
 11
17.1450
 21
19.8120
 31
0.0000
  0
LINE
  8
16
 10
23.8760
 20
7.8740
 30
0.0000
 11
23.8760
 21
21.0820
 31
0.0000
  0
LINE
  8
16
 10
23.8760
 20
21.0820
 30
0.0000
 11
22.2250
 21
22.7330
 31
0.0000
  0
LINE
  8
16
 10
22.2250
 20
22.7330
 30
0.0000
 11
16.5100
 21
22.7330
 31
0.0000
  0
LINE
  8
16
 10
16.5100
 20
22.7330
 30
0.0000
 11
14.9860
 21
21.2090
 31
0.0000
  0
LINE
  8
16
 10
23.8760
 20
7.8740
 30
0.0000
 11
28.1940
 21
7.8740
 31
0.0000
  0
LINE
  8
16
 10
28.1940
 20
7.8740
 30
0.0000
 11
37.9730
 21
7.8740
 31
0.0000
  0
LINE
  8
16
 10
37.9730
 20
7.8740
 30
0.0000
 11
38.1000
 21
7.7470
 31
0.0000
  0
LINE
  8
16
 10
38.1000
 20
7.7470
 30
0.0000
 11
38.1000
 21
7.6200
 31
0.0000
  0
LINE
  8
1
 10
28.2100
 20
11.1760
 30
0.0000
 11
28.2100
 21
10.1440
 31
0.0000
  0
LINE
  8
1
 10
28.2100
 20
10.1440
 30
0.0000
 11
29.4640
 21
8.8900
 31
0.0000
  0
LINE
  8
1
 10
29.4640
 20
8.8900
 30
0.0000
 11
29.4640
 21
7.8740
 31
0.0000
  0
LINE
  8
1
 10
29.4640
 20
7.8740
 30
0.0000
 11
28.1940
 21
7.8740
 31
0.0000
  0
LINE
  8
1
 10
29.4640
 20
7.8740
 30
0.0000
 11
29.4640
 21
7.2720
 31
0.0000
  0
LINE
  8
1
 10
29.4640
 20
7.2720
 30
0.0000
 11
29.4800
 21
7.2560
 31
0.0000
  0
INSERT
  8
18
  2
ROUNDV
 10
14.9860
 20
21.2090
 30
0.0000
 41
0.9064
 42
0.9064
 43
1.0000
 50
0.0000
  0
INSERT
  8
18
  2
ROUNDV
 10
14.9860
 20
21.2090
 30
0.0000
 41
0.9064
 42
0.9064
 43
1.0000
 50
0.0000
  0
INSERT
  8
18
  2
ROUNDV
 10
28.1940
 20
7.8740
 30
0.0000
 41
1.0064
 42
1.0064
 43
1.0000
 50
0.0000
  0
INSERT
  8
18
  2
ROUNDV
 10
28.1940
 20
7.8740
 30
0.0000
 41
1.0064
 42
1.0064
 43
1.0000
 50
0.0000
  0
LINE
  8
1
 10
17.6530
 20
19.8755
 30
0.0000
 11
17.6530
 21
23.7490
 31
0.0000
  0
LINE
  8
1
 10
17.6530
 20
23.7490
 30
0.0000
 11
18.6690
 21
23.7490
 31
0.0000
  0
LINE
  8
1
 10
18.6690
 20
23.7490
 30
0.0000
 11
18.6690
 21
19.8755
 31
0.0000
  0
LINE
  8
1
 10
18.6690
 20
19.8755
 30
0.0000
 11
17.6530
 21
19.8755
 31
0.0000
  0
LINE
  8
1
 10
16.2560
 20
18.0340
 30
0.0000
 11
13.5890
 21
18.0340
 31
0.0000
  0
LINE
  8
1
 10
13.5890
 20
18.0340
 30
0.0000
 11
13.5890
 21
17.5260
 31
0.0000
  0
LINE
  8
1
 10
13.5890
 20
17.5260
 30
0.0000
 11
16.2560
 21
17.5260
 31
0.0000
  0
LINE
  8
1
 10
16.2560
 20
17.5260
 30
0.0000
 11
16.2560
 21
18.0340
 31
0.0000
  0
LINE
  8
1
 10
18.6610
 20
11.4370
 30
0.0000
 11
18.6610
 21
16.0690
 31
0.0000
  0
LINE
  8
1
 10
12.4460
 20
17.4140
 30
0.0000
 11
12.7150
 21
17.4140
 31
0.0000
  0
LINE
  8
1
 10
12.7150
 20
17.4140
 30
0.0000
 11
13.0810
 21
17.7800
 31
0.0000
  0
LINE
  8
1
 10
13.0810
 20
17.7800
 30
0.0000
 11
14.6050
 21
17.7800
 31
0.0000
  0
LINE
  8
1
 10
14.6050
 20
17.7800
 30
0.0000
 11
15.3670
 21
17.7800
 31
0.0000
  0
LINE
  8
1
 10
18.9230
 20
5.9850
 30
0.0000
 11
20.3200
 21
5.9850
 31
0.0000
  0
LINE
  8
1
 10
20.3200
 20
5.9850
 30
0.0000
 11
21.4630
 21
5.9850
 31
0.0000
  0
LINE
  8
1
 10
12.8110
 20
17.7790
 30
0.0000
 11
12.4460
 21
17.4140
 31
0.0000
  0
LINE
  8
1
 10
12.8110
 20
22.3680
 30
0.0000
 11
12.8110
 21
22.3520
 31
0.0000
  0
LINE
  8
1
 10
12.8110
 20
22.3520
 30
0.0000
 11
12.8110
 21
17.7790
 31
0.0000
  0
LINE
  8
1
 10
16.1960
 20
18.0340
 30
0.0000
 11
15.3670
 21
18.0340
 31
0.0000
  0
LINE
  8
1
 10
15.3670
 20
18.0340
 30
0.0000
 11
15.3670
 21
17.7800
 31
0.0000
  0
LINE
  8
1
 10
17.6610
 20
19.9990
 30
0.0000
 11
17.6610
 21
21.3360
 31
0.0000
  0
LINE
  8
1
 10
17.6610
 20
21.3360
 30
0.0000
 11
18.0340
 21
21.3360
 31
0.0000
  0
LINE
  8
1
 10
18.0340
 20
21.3360
 30
0.0000
 11
18.0340
 21
21.0820
 31
0.0000
  0
LINE
  8
1
 10
18.1610
 20
19.9990
 30
0.0000
 11
18.1610
 21
21.0820
 31
0.0000
  0
LINE
  8
1
 10
16.1960
 20
17.5340
 30
0.0000
 11
14.8510
 21
17.5340
 31
0.0000
  0
ARC
  8
1
 10
14.8510
 20
17.7800
 30
0.0000
 40
0.2460
 50
180.0000
 51
270.0000
  0
LINE
  8
1
 10
18.6610
 20
19.9990
 30
0.0000
 11
18.6690
 21
19.9990
 31
0.0000
  0
LINE
  8
1
 10
18.6690
 20
19.9990
 30
0.0000
 11
18.6690
 21
21.0820
 31
0.0000
  0
LINE
  8
1
 10
18.6690
 20
21.0820
 30
0.0000
 11
18.1610
 21
21.0820
 31
0.0000
  0
LINE
  8
1
 10
24.3840
 20
18.5970
 30
0.0000
 11
27.6860
 21
18.5970
 31
0.0000
  0
LINE
  8
1
 10
27.6860
 20
18.5970
 30
0.0000
 11
31.8220
 21
18.5970
 31
0.0000
  0
LINE
  8
1
 10
31.8220
 20
18.5970
 30
0.0000
 11
32.7660
 21
17.6530
 31
0.0000
  0
LINE
  8
1
 10
11.0490
 20
23.1760
 30
0.0000
 11
12.0030
 21
23.1760
 31
0.0000
  0
LINE
  8
1
 10
12.0030
 20
23.1760
 30
0.0000
 11
12.8110
 21
22.3680
 31
0.0000
  0
LINE
  8
1
 10
24.3840
 20
18.5970
 30
0.0000
 11
24.3290
 21
18.5970
 31
0.0000
  0
LINE
  8
1
 10
24.3290
 20
18.5970
 30
0.0000
 11
22.8600
 21
20.0660
 31
0.0000
  0
LINE
  8
1
 10
22.8600
 20
20.0660
 30
0.0000
 11
22.8600
 21
21.0820
 31
0.0000
  0
LINE
  8
1
 10
22.8600
 20
21.0820
 30
0.0000
 11
18.1610
 21
21.0820
 31
0.0000
  0
LINE
  8
1
 10
17.6610
 20
19.9990
 30
0.0000
 11
17.6610
 21
22.2330
 31
0.0000
  0
LINE
  8
1
 10
17.6610
 20
22.2330
 30
0.0000
 11
17.7800
 21
22.3520
 31
0.0000
  0
LINE
  8
1
 10
17.7800
 20
22.3520
 30
0.0000
 11
12.8110
 21
22.3520
 31
0.0000
  0
LINE
  8
1
 10
18.7160
 20
11.3820
 30
0.0000
 11
18.7160
 21
13.2080
 31
0.0000
  0
LINE
  8
1
 10
18.7160
 20
13.2080
 30
0.0000
 11
25.4000
 21
13.2080
 31
0.0000
  0
LINE
  8
1
 10
25.4000
 20
13.2080
 30
0.0000
 11
26.4160
 21
13.2080
 31
0.0000
  0
LINE
  8
1
 10
26.4160
 20
13.2080
 30
0.0000
 11
27.6860
 21
13.2080
 31
0.0000
  0
LINE
  8
1
 10
27.6860
 20
13.2080
 30
0.0000
 11
27.6860
 21
18.5970
 31
0.0000
  0
LINE
  8
1
 10
18.9230
 20
5.9850
 30
0.0000
 11
20.0660
 21
5.9850
 31
0.0000
  0
LINE
  8
1
 10
20.0660
 20
5.9850
 30
0.0000
 11
20.0660
 21
9.1440
 31
0.0000
  0
LINE
  8
1
 10
20.0660
 20
9.1440
 30
0.0000
 11
25.6540
 21
9.1440
 31
0.0000
  0
LINE
  8
1
 10
7.8740
 20
30.1610
 30
0.0000
 11
11.0490
 21
26.9860
 31
0.0000
  0
LINE
  8
1
 10
11.0490
 20
26.9860
 30
0.0000
 11
11.0490
 21
23.1760
 31
0.0000
  0
LINE
  8
1
 10
18.6610
 20
11.4370
 30
0.0000
 11
18.7160
 21
11.3820
 31
0.0000
  0
LINE
  8
1
 10
25.6540
 20
9.1440
 30
0.0000
 11
26.4160
 21
9.9060
 31
0.0000
  0
LINE
  8
1
 10
26.4160
 20
9.9060
 30
0.0000
 11
26.4160
 21
13.2080
 31
0.0000
  0
LINE
  8
1
 10
20.3200
 20
2.5400
 30
0.0000
 11
20.3200
 21
5.9850
 31
0.0000
  0
LINE
  8
1
 10
7.8740
 20
30.1610
 30
0.0000
 11
7.8740
 21
30.4800
 31
0.0000
  0
ENDSEC
  0
EOF
